<svg width="552" height="380" viewBox="0 0 552 380" fill="none" xmlns="http://www.w3.org/2000/svg">
<g clip-path="url(#clip0_3349_38)">
<rect width="552" height="380" fill="white"/>
<path d="M215.68 8.33386C215.842 8.48039 216.245 8.33386 216.496 8.39666C219.233 9.34389 222.525 10.0033 223.168 13.2898C224.095 18.0568 224.681 22.8837 224.922 27.7338C225.487 38.9018 225.843 50.0854 226.125 61.2638C226.403 72.2538 226.649 83.2438 226.612 94.2338C226.612 112.106 226.424 129.983 226.193 147.855C226.11 154.312 225.827 160.767 225.346 167.218C225.1 170.405 224.733 173.592 224.262 176.758C224.18 177.311 224.218 177.875 224.374 178.411C224.53 178.948 224.799 179.444 225.165 179.867C225.53 180.29 225.982 180.629 226.49 180.861C226.998 181.093 227.55 181.213 228.109 181.212H236.733C237.688 181.213 238.61 180.863 239.324 180.227C240.037 179.592 240.491 178.717 240.601 177.768C240.674 177.14 240.721 176.517 240.742 175.889C241.03 166.469 240.852 156.997 240.841 147.551C240.841 142.475 240.789 137.398 240.752 132.322C240.643 116.538 240.548 100.755 240.376 84.9708C240.376 83.2071 240.983 82.6943 242.647 82.6734C248.131 82.6053 253.637 82.485 259.095 82.2652C262.759 82.1239 266.422 81.7418 270.085 81.5325C273.492 81.3127 276.889 81.3336 280.118 82.6838C294.635 88.7074 300.747 100.838 302.401 115.282C303.641 126.084 302.972 137.095 303.505 147.991C303.773 153.174 304.474 158.326 305.599 163.392C308.011 174.382 314.747 181.976 325.025 186.461C325.51 186.733 326.043 186.911 326.595 186.984C327.46 186.936 328.321 186.822 329.17 186.644C328.877 185.796 328.809 184.744 328.254 184.137C325.723 181.274 323.807 177.922 322.623 174.288C319.76 166.072 318.823 157.541 318.556 148.933C318.399 144.008 318.98 139.057 318.855 134.133C318.577 123.368 318.101 112.608 317.578 101.854C317.458 100.404 316.964 99.0099 316.144 97.8082C313.004 93.1296 309.555 88.6969 304.678 85.6093C300.386 82.9036 296.2 80.1143 292.013 77.3929C292.28 77.2277 292.562 77.0876 292.856 76.9743C298.492 75.1164 303.526 72.123 308.514 68.9568C314.731 65.0109 319.985 60.3584 323.125 53.4818C326.72 45.6318 327.427 37.8289 322.827 30.2615C318.598 23.3169 313.276 17.2776 305.996 13.2061C304.426 12.3374 302.93 11.3692 301.464 10.3487C298 7.94136 294.274 6.02073 290.103 5.47646C283.169 4.5711 276.214 3.65003 269.243 3.21566C259.676 2.61383 250.052 2.22133 240.59 4.26233C235.976 5.20394 231.223 5.23593 226.596 4.35652C223.121 3.75992 219.557 3.61862 216.03 3.39359C214.528 3.29939 212.613 3.70759 212.759 5.40843C212.833 6.45509 214.617 7.38663 215.68 8.33386ZM244.95 8.80486C254.589 7.94136 264.313 7.40233 273.853 8.91477C285.487 10.7569 295.336 15.9117 300.915 27.0378C302.736 30.7011 304.688 34.3226 305.839 38.19C307.216 42.8058 306.431 47.5525 304.725 52.0584C302.009 59.228 298.382 65.8063 292.055 70.4692C290.622 71.541 289.033 72.388 287.345 72.9812C278.406 75.9642 269.196 77.1993 259.77 77.3092C254.228 77.3772 248.697 78.157 243.149 78.4762C240.234 78.6437 240.198 78.5076 240.145 75.5194C240.104 73.2952 240.145 71.0711 240.145 68.8417H240.302C239.967 63.7863 239.533 58.7309 239.334 53.665C239.209 50.4831 239.496 47.2856 239.502 44.0932C239.502 39.5769 239.444 35.0605 239.387 30.5441C239.319 25.4678 239.224 20.3915 239.135 15.3151C239.036 11.2122 240.821 9.17119 244.95 8.80486Z" fill="#20150D"/>
<path d="M383.643 323.176C381.178 306.869 374.919 292.603 361.595 282.126C357.173 278.646 352.819 275.061 346.984 274.177C346.79 274.177 346.638 273.837 346.424 273.612C346.654 273.407 346.801 273.172 346.947 273.167C351.558 273.072 355.467 270.932 359.403 268.891C371.539 262.611 378.07 252.83 378.243 238.925C378.358 229.981 376.065 221.655 372.297 213.711C371.388 211.755 370.086 210.007 368.472 208.577C364.144 204.914 359.785 201.208 355.054 198.11C346.518 192.495 336.978 189.585 326.747 189.088C320.084 188.763 313.412 188.528 306.745 188.251C293.913 187.717 281.079 187.193 268.243 186.681C267.481 186.61 266.715 186.754 266.029 187.094C265.701 187.293 265.417 187.556 265.192 187.867C264.967 188.178 264.807 188.531 264.721 188.905C264.663 189.46 265.281 190.255 265.815 190.653C266.424 190.983 267.1 191.173 267.793 191.207C269.886 191.542 272.053 191.757 274.162 192.16C277.433 192.788 281.018 196.095 281.253 198.963C281.913 207.117 282.619 215.276 282.896 223.445C283.111 229.756 282.614 236.094 282.598 242.421C282.551 263.501 282.441 284.581 282.624 305.655C282.745 319.141 283.43 332.617 283.671 346.104C283.797 353.258 283.634 360.427 283.357 367.56C283.237 370.774 281.918 372.03 279.296 372.019C279.107 372.018 278.919 372.056 278.744 372.129C278.57 372.202 278.412 372.31 278.28 372.446C278.148 372.582 278.045 372.743 277.977 372.92C277.908 373.096 277.877 373.285 277.883 373.474V376.959C277.882 377.158 277.924 377.355 278.005 377.537C278.086 377.719 278.204 377.882 278.353 378.015C278.501 378.148 278.675 378.248 278.865 378.309C279.055 378.369 279.255 378.389 279.453 378.367L279.814 378.331C284.524 377.807 289.333 378.168 294.09 378.283C301.318 378.451 308.535 378.775 315.757 378.985C322.633 379.189 329.51 379.335 336.386 379.471C337.388 379.497 338.39 379.415 339.375 379.225C347.501 377.693 355.397 375.121 362.867 371.574C373.208 366.603 379.671 358.444 382.754 347.558C384.999 339.525 384.873 331.351 383.643 323.176ZM298.052 228.673C298.099 219.363 298.261 210.058 298.476 200.753C298.587 198.686 298.876 196.632 299.34 194.614C299.418 194.217 300.193 193.719 300.669 193.688C303.62 193.515 306.588 193.322 309.539 193.405C314.045 193.531 318.546 194.028 323.052 194.091C331.143 194.211 338.956 195.813 346.078 199.445C355.75 204.354 360.962 212.57 361.857 223.455C362.904 236.052 360.072 247.806 353.829 258.707C350.344 264.783 344.545 267.604 337.878 268.844C327.934 270.723 317.866 270.613 307.802 270.414C304.761 270.362 301.721 270.414 297.995 270.414C298.036 256.179 297.989 242.426 298.052 228.673ZM363.333 349.924C358.314 361.872 349.428 369.811 336.161 371.904C331.734 372.605 327.364 373.322 322.759 372.888C316.296 372.276 309.759 372.48 303.254 372.365C300.559 372.312 300.213 371.909 300.114 369.172C299.633 355.152 299.067 341.132 298.623 327.107C298.466 322.318 298.45 317.519 298.398 312.725C298.268 300.772 298.146 288.821 298.031 276.872C298.031 276.349 298.094 275.778 298.152 274.894C299.936 274.894 301.658 274.894 303.385 274.894C310.748 274.826 318.112 274.731 325.475 274.7C326.794 274.621 328.116 274.772 329.384 275.145C336.522 277.762 343.634 280.457 349.737 285.23C356.969 290.887 361.281 298.412 363.971 306.99C368.477 321.371 369.236 335.867 363.333 349.924Z" fill="#20150D"/>
<path d="M276.281 373.84C276.282 373.656 276.241 373.475 276.162 373.309C276.082 373.143 275.967 372.997 275.824 372.881C275.681 372.766 275.514 372.684 275.335 372.641C275.156 372.599 274.97 372.597 274.79 372.637C270.97 373.484 269.133 372.563 267.4 368.722C266.933 367.667 266.555 366.575 266.27 365.456C263.231 353.681 260.219 341.899 257.232 330.111C254.814 320.607 252.156 311.15 250.094 301.568C246.818 286.36 244.285 270.99 240.82 255.829C237.413 240.924 234.676 225.904 231.924 210.885C231.144 206.672 230.354 202.464 229.647 198.236C229.234 195.687 229.035 193.102 228.721 190.386C230.291 190.386 231.531 190.438 232.771 190.386H232.845C234.938 190.265 234.833 187.104 232.724 187.104H218.955C218.105 187.349 217.223 187.464 216.339 187.445C212.932 187.413 209.535 187.272 206.123 187.167C203.899 187.099 201.654 186.801 199.467 187.031C198.582 187.125 197.446 188.224 197.153 189.124C196.986 189.616 198.2 190.972 199.011 191.281C200.189 191.725 201.591 191.61 202.9 191.652C206.819 191.778 208.808 193.557 208.656 197.409C208.389 203.5 208.17 209.634 207.296 215.658C206.04 224.35 204.37 232.99 202.586 241.594C199.733 255.399 196.646 269.163 193.689 282.937C188.675 306.178 183.746 329.446 178.58 352.645C177.413 357.879 175.503 362.95 173.483 367.911C172.295 370.836 169.778 372.689 166.319 372.841C165.421 372.913 164.557 373.212 163.807 373.709C163.461 373.918 163.165 374.199 162.939 374.534C162.713 374.868 162.563 375.248 162.499 375.647C162.435 376.046 162.459 376.454 162.569 376.842C162.68 377.23 162.873 377.59 163.137 377.896C164.597 379.466 168.124 380.22 169.898 378.917C172.939 376.682 176.283 376.923 179.674 377.122C183.065 377.32 186.32 377.645 189.644 377.797C192.674 377.927 193.83 375.886 192.736 373.144C192.035 371.407 191.439 369.418 191.569 367.592C191.962 361.929 192.464 356.246 193.401 350.651C195.494 338.17 197.263 325.615 200.785 313.406C201.523 310.852 201.979 308.214 202.544 305.723L234.467 307.005C234.654 307.479 234.808 307.965 234.928 308.46C237.021 319.597 239.392 330.702 241.166 341.891C242.479 350.165 242.935 358.564 243.981 366.885C244.332 369.711 243.222 371.485 241.187 373.123C240.496 373.678 240.182 374.693 239.695 375.504C240.742 375.934 241.715 376.677 242.751 376.729C245.368 376.865 248.027 376.504 250.649 376.666C258.797 377.19 266.872 378.801 275.072 378.639C275.394 378.631 275.7 378.497 275.924 378.266C276.148 378.035 276.272 377.726 276.271 377.404L276.281 373.84ZM233.64 301.992H203.915C204.323 298.779 204.438 295.743 205.124 292.839C209.347 274.909 213.701 257.011 218.008 239.103L219.238 239.009C220.086 242.149 220.986 245.257 221.781 248.429C223.451 255.049 225.194 261.659 226.685 268.315C229.098 279.101 231.332 289.924 233.63 300.762C233.67 301.171 233.674 301.582 233.64 301.992Z" fill="#20150D"/>
<path d="M166.298 303.054C166.329 305.147 164.958 305.556 163.252 305.582C161.253 305.613 159.897 306.681 159.474 308.539C158.778 311.569 158.029 314.636 157.841 317.713C157.375 325.338 157.255 332.984 156.935 340.614C156.506 350.732 156.042 360.849 155.543 370.967C155.35 374.835 154.429 375.677 150.624 376.394C145.862 377.258 141.141 378.487 136.342 378.974C132.03 379.398 127.639 379.094 123.259 378.974C119.936 378.864 116.623 378.304 113.316 378.309C108.951 378.309 104.576 378.932 100.232 378.833C94.3499 378.676 88.4834 377.98 82.6011 377.681C77.6922 377.436 72.7677 377.383 67.8483 377.336C65.0014 377.305 62.1545 377.509 59.3075 377.493C57.7375 377.493 56.3612 376.86 56.3716 374.981C56.3716 373.191 57.905 373.04 59.1819 372.83C62.0446 372.364 64.9386 372.15 67.7855 371.517C69.5707 371.089 71.271 370.364 72.8148 369.371C73.7203 368.684 74.3719 367.716 74.6674 366.618C76.9229 358.81 77.2212 350.772 77.216 342.707C77.216 328.389 77.2579 314.07 77.216 299.747C77.1323 281.263 76.9491 262.768 76.8392 244.273C76.7869 235.377 76.9072 226.48 76.7659 217.583C76.6613 211.204 76.274 204.819 75.9705 198.44C75.9709 197.966 75.8739 197.498 75.6854 197.064C75.4969 196.629 75.221 196.238 74.8749 195.915C74.5287 195.592 74.1198 195.344 73.6736 195.186C73.2273 195.028 72.7533 194.963 72.281 194.996C71.0295 195.057 69.7851 195.22 68.5601 195.483C71.4365 194.222 74.088 192.5 76.4101 190.386H77.4201C84.2915 190.386 91.1628 190.302 98.0342 190.443C100.002 190.48 101.975 191.097 103.906 191.605C105.277 191.961 106.308 192.898 106.172 194.447C106.026 196.148 104.539 196.336 103.247 196.54C102.55 196.601 101.85 196.601 101.153 196.54C97.5423 196.488 95.967 197.456 95.2344 200.988C94.5798 204.387 94.1602 207.826 93.9784 211.282C93.7795 214.328 94.015 217.4 93.9365 220.462C93.5458 235.052 93.1306 249.639 92.691 264.223C92.2828 278.327 91.6443 292.43 91.4978 306.54C91.3565 319.822 91.5344 333.104 91.9374 346.381C92.1604 352.684 92.8407 358.964 93.9731 365.169C94.8837 370.198 96.8358 371.218 101.917 371.538C109.244 372.003 116.571 372.668 123.897 373.186C124.86 373.24 125.825 373.12 126.744 372.83C129.439 372.014 132.082 371.004 134.788 370.214C137.865 369.308 139.969 367.665 140.869 364.373C142.706 357.612 143.166 350.698 143.303 343.769C143.465 335.438 143.303 327.086 143.161 318.749C143.127 316.598 142.841 314.459 142.308 312.375C141.162 307.947 137.598 305.331 133.024 305.163C131.784 305.116 130.408 305.163 129.361 304.64C128.477 304.226 127.937 303.07 127.241 302.232C128.074 301.678 128.848 300.783 129.743 300.662C131.371 300.396 133.071 300.579 134.741 300.579H163.1C165.403 300.537 166.261 301.175 166.298 303.054Z" fill="#20150D"/>
<path d="M79.0948 77.6651C79.072 76.1265 79.264 74.5923 79.6652 73.1068C84.2548 54.0418 79.2936 32.9253 66.697 17.8899C63.557 14.1376 59.7262 10.6104 54.9534 9.49042C47.5796 7.74772 40.0331 12.2693 35.1347 18.0522C26.9289 27.7391 23.8621 40.702 21.9834 53.2568C17.354 84.2696 18.3859 115.865 25.0292 146.51C27.2586 156.777 30.2206 167.129 36.2651 175.717C39.6092 180.469 43.9895 184.676 49.3956 186.791C54.8016 188.905 61.3381 188.643 66.0167 185.221C69.4916 182.667 71.632 178.684 73.1759 174.66C78.4877 160.817 77.9591 145.489 76.8392 130.7C76.6351 128.025 76.4205 125.273 77.2212 122.714C78.0219 120.155 80.0996 117.799 82.7686 117.527C85.6626 117.229 88.3159 119.464 89.5719 122.101C90.8279 124.739 90.9744 127.722 91.3198 130.611C92.1676 137.754 96.7363 146.625 95.2605 153.287C93.5859 160.875 87.0285 169.51 83.5012 176.502C80.8846 181.704 77.6556 187.408 72.0612 189.062C71.7995 188.418 72.8985 189.292 72.506 189.873C69.366 194.463 63.3215 196.383 57.8056 195.771C52.2896 195.159 47.2342 192.422 42.6289 189.297C34.6185 183.839 27.5679 177.09 21.7636 169.327C7.99468 150.895 1.98681 127.654 0.406344 104.706C-0.640323 89.7227 0.149911 74.4099 4.96981 60.191C9.40768 47.1076 17.1007 35.4007 24.9507 24.0339C29.2472 17.8114 33.8003 11.4739 40.2634 7.54886C43.3042 5.64768 46.7501 4.4895 50.3219 4.16813C54.7598 3.82796 59.2186 5.03687 63.2535 6.88423C75.1017 12.2903 83.7681 22.8407 90.9535 33.7051C93.005 36.8137 94.9989 40.0269 96.0141 43.6118C97.3172 48.2119 96.9195 53.0998 96.4904 57.8569C95.8833 64.6149 95.2274 71.3659 94.5226 78.1099C94.3866 79.4182 94.1563 80.8836 93.0887 81.6476C92.2566 82.239 91.1524 82.2233 90.1266 82.171L84.1606 81.9773C83.0616 81.9355 81.9155 81.8779 80.9683 81.3232C79.6757 80.5277 79.1785 79.1827 79.0948 77.6651Z" fill="#20150D"/>
<path d="M419.821 325.589C419.381 334.799 420.262 344.025 422.438 352.985C424.165 359.873 427.488 365.65 433.093 370.365C437.552 374.112 441.728 373.39 446.119 371.281C449.351 369.687 452.435 367.81 455.335 365.671C456.753 364.578 457.864 363.135 458.559 361.484C461.589 354.346 464.446 347.072 465.137 339.305C465.488 335.375 464.655 331.309 464.127 327.332C463.377 321.711 462.504 316.108 461.51 310.522C460.343 303.96 456.931 298.543 452.467 293.728C451.473 292.682 450.415 291.635 449.369 290.63C446.6 287.925 443.644 285.92 439.541 285.313C434.746 284.642 430.03 283.494 425.463 281.885C413.222 277.542 404.655 269.571 401.505 256.478C399.296 247.215 399.155 237.931 399.82 228.511C400.395 220.451 402.745 212.952 407.628 206.531C413.63 198.634 421.098 192.448 431.047 190.244C437.411 188.837 443.78 189.412 450.149 191.139C458.522 193.4 465.676 197.623 472.019 203.328C477.393 208.158 481.439 213.988 482.705 221.221C483.52 226.433 483.996 231.693 484.129 236.968C484.359 242.452 484.129 247.958 484.171 253.447C484.155 255.18 484.331 256.908 484.694 258.602C485.186 260.696 485.877 262.684 488.514 263.249C489.362 263.433 489.985 264.657 490.707 265.406C489.843 265.976 489.037 266.887 488.09 267.038C485.82 267.354 483.532 267.529 481.24 267.562C476.179 267.766 471.119 267.975 466.063 268.038C464.63 268.028 463.211 267.755 461.876 267.232C461.521 267.048 461.217 266.779 460.99 266.45C460.763 266.12 460.62 265.74 460.573 265.343C460.65 264.951 460.823 264.584 461.077 264.276C461.331 263.968 461.658 263.729 462.028 263.579C465.624 262.747 466.403 259.916 467.105 256.943C468.727 250.035 468.329 242.996 468.397 236.01C468.444 231.164 468.502 226.265 466.712 221.629C463.348 212.584 457.296 204.785 449.369 199.282C444.659 196.017 439.179 194.787 433.496 196.258C429.202 197.305 425.496 200.009 423.186 203.778C420.025 208.858 418.19 214.65 417.848 220.624C417.435 226.852 416.765 233.074 416.655 239.302C416.503 248.031 418.089 256.404 423.254 263.752C426.682 268.635 431.596 271.67 436.793 274.219C442.367 276.935 448.202 279.117 453.744 281.885C457.064 283.598 460.211 285.625 463.143 287.94C467.361 291.201 471.663 294.466 475.305 298.323C477.849 301.008 479.706 304.52 481.235 307.947C484.008 314.186 485.74 320.984 485.568 327.682C485.306 337.908 484.029 348.155 476.404 356.277C472.94 359.941 469.842 364.002 465.477 366.744C462.013 368.91 458.438 370.931 455.057 373.191C449.515 376.933 443.235 378.153 436.793 378.529C431.56 378.833 427.022 376.619 423.354 372.982C420.957 370.606 418.932 367.848 416.823 365.195C414.839 362.699 412.919 360.145 411.066 357.559C405.943 350.426 404.545 342.137 403.666 333.669C402.909 326.374 402.075 319.087 401.165 311.81C400.882 309.528 399.825 307.885 397.182 307.45C396.334 307.314 395.125 305.927 395.089 305.09C395.052 304.253 396.287 302.866 397.119 302.74C399.631 302.353 402.222 302.421 404.781 302.395C409.412 302.342 414.049 302.489 418.675 302.29C421.317 302.1 423.947 302.786 426.159 304.242C426.981 304.807 427.206 306.288 427.671 307.346C426.708 307.717 425.746 308.392 424.788 308.392C421.276 308.356 420.078 308.999 419.884 312.438C419.623 316.954 419.821 321.449 419.821 325.589Z" fill="#20150D"/>
<path d="M378.991 157.923C381.707 155.83 381.749 152.837 382.288 150.073C384.994 136.299 387.616 122.509 390.379 108.73C393.482 93.2708 396.826 77.8534 399.841 62.3785C402.389 49.2951 404.551 36.1071 407.01 22.9819C407.994 17.6806 409.14 12.4106 410.381 7.16157C411.239 3.49823 412.83 2.41493 416.661 2.49343C421.036 2.58414 425.409 2.72894 429.781 2.9278C430.586 2.96444 431.628 3.0848 432.115 3.59243C432.847 4.3565 433.637 5.53923 433.548 6.45506C433.475 7.14586 432.12 8.10879 431.23 8.24486C426.986 8.89379 426.316 9.34909 425.306 13.5776C422.313 26.1376 419.178 38.6976 416.451 51.3204C415.038 57.8726 414.52 64.6131 413.348 71.2071C411.778 80.1299 409.946 89.0004 408.235 97.8971C406.272 108.086 404.352 118.281 402.358 128.46C400.479 138.032 398.464 147.572 396.633 157.149C394.995 165.705 393.54 174.299 391.959 182.871C391.699 183.945 391.349 184.995 390.913 186.011C390.211 187.89 388.772 188.627 386.841 188.596C381.283 188.444 375.731 188.308 370.178 188.109C367.232 187.999 366.363 186.743 366.049 183.781C365.526 178.548 364.725 173.341 363.877 168.149C362.611 160.367 361.151 152.617 359.858 144.84C358.361 135.823 356.891 126.801 355.53 117.763C354.755 112.624 354.143 107.464 353.594 102.298C352.416 91.1984 351.364 80.0828 350.187 68.9777C349.009 57.8726 347.649 46.9244 346.571 35.8769C345.99 29.6056 344.687 23.4224 342.687 17.4503C341.984 15.5775 341.117 13.7703 340.097 12.0495C339.05 10.1969 337.381 9.23919 335.329 8.65829C333.747 8.22137 332.246 7.5341 330.881 6.62253C329.478 5.66483 329.761 4.3565 331.315 3.59243C331.677 3.39182 332.08 3.27555 332.493 3.25227C339.066 3.37263 345.649 3.40403 352.217 3.70233C356.017 3.87503 357.974 6.31899 358.571 9.98233C359.57 16.2623 360.727 22.5423 361.459 28.8642C363.029 42.2249 364.191 55.6222 365.761 68.9777C367.221 81.433 368.953 93.857 370.633 106.286C371.994 116.376 373.339 126.471 374.899 136.53C375.945 143.333 377.374 150.136 378.64 156.94C378.729 157.277 378.847 157.606 378.991 157.923Z" fill="#20150D"/>
<path d="M551.403 99.5246C552 112.263 551.215 124.917 548.054 137.299C545.385 147.765 540.471 157.322 535.42 166.773C533.112 171.085 530.71 175.46 527.602 179.207C524.605 182.918 521.043 186.134 517.046 188.737C513.085 191.218 508.317 192.401 503.91 194.185C497.699 196.671 491.659 195.807 485.458 193.814C482.702 192.954 480.131 191.589 477.875 189.789C474.452 187.078 470.841 184.598 467.319 182.007C460.034 176.648 455.701 169.002 451.698 161.231C446.988 152.031 444.465 141.983 441.639 132.086C440.028 126.124 439.172 119.982 439.09 113.806C438.991 110.41 438.447 107.003 438.41 103.628C438.316 99.4735 438.447 95.3173 438.803 91.1774C439.431 84.6986 439.849 78.1307 441.33 71.8141C443.376 62.9174 445.412 53.9213 449.882 45.7155C452.99 40.0164 455.382 33.9248 458.36 28.1524C462.169 20.7682 466.832 13.9491 473.055 8.35471C478.811 3.16325 485.243 -0.54195 493.407 0.065117C500.624 0.58845 507.689 1.72931 513.859 5.90028C514.968 6.73667 516.034 7.62924 517.051 8.57451C525.032 15.2679 531.815 23.1232 537.849 31.507C541.472 36.4424 543.696 42.2643 544.286 48.3583C544.283 48.7734 544.365 49.1848 544.526 49.5672C547.525 54.6854 548.012 60.5572 549.236 66.1569C550.361 71.5857 551.061 77.0939 551.33 82.6314C551.67 88.2572 551.403 93.8988 551.403 99.5246ZM535.258 100.927L534.703 100.88C534.416 94.4954 534.18 88.1055 533.814 81.726C533.578 77.7068 533.233 73.6876 532.72 69.6894C532.106 64.8852 531.365 60.1002 530.496 55.3343C529.355 49.159 528.402 42.9052 526.655 36.8973C524.818 30.6173 522.813 24.3739 518.747 18.9679C512.786 11.0499 506.025 4.86408 495.239 5.30891C490.702 5.49731 486.258 5.72234 482.428 8.62684C474.797 14.3835 470.428 22.5423 466.728 30.9784C459.924 46.3696 459.453 63.0012 457.962 79.392C457.438 85.4051 457.575 91.4862 456.915 97.4836C455.722 108.688 457.302 119.741 459.213 130.616C460.934 140.428 464.205 149.979 467.162 159.551C469.334 166.574 472.516 173.121 477.268 178.946C482.595 185.477 489.262 188.779 497.526 189.088C502.356 189.266 505.899 186.026 509.709 183.855C515.989 180.27 519.652 174.215 522.573 167.935C528.157 155.83 532.259 143.239 533.118 129.768C533.725 120.144 534.536 110.536 535.258 100.927Z" fill="#20150D"/>
<path d="M162.121 194.588C154.533 195.31 149.164 190.731 143.564 186.791C135.018 180.783 129.104 172.336 123.735 163.717C120.072 157.803 117.643 150.994 115.362 144.353C113.367 138.395 111.857 132.285 110.845 126.084C109.898 120.568 109.799 114.9 109.375 109.295C109.155 106.249 108.993 103.188 108.961 100.132C108.815 85.5778 109.971 71.1914 114.54 57.2184C116.963 49.808 119.171 42.3243 121.699 34.9453C122.608 32.5519 123.815 30.2821 125.289 28.1891C128.267 23.678 131.145 19.0465 134.599 14.9121C138.817 9.8515 143.773 5.61249 149.923 2.73416C154.633 0.530923 159.343 0.373927 163.759 2.11663C168.38 3.95618 172.726 6.42143 176.675 9.44329C187.78 17.9475 196.792 28.2833 202.805 41.0945C206.416 48.777 208.63 56.7945 209.98 65.1678C211.55 74.7605 212.995 84.3271 213.314 94.0558C213.638 104.209 213.314 114.319 211.676 124.341C210.436 131.977 209.583 139.779 207.28 147.106C204.402 156.285 201.602 165.658 195.667 173.587C187.702 184.226 177.738 191.804 164.403 194.311C163.65 194.494 162.88 194.52 162.121 194.588ZM194.097 106.475H194.448C194.448 105.71 194.448 104.941 194.448 104.177C194.259 90.5704 194.134 76.9638 192.501 63.3937C191.454 54.7273 190.837 46.0191 188.236 37.6196C184.374 25.1852 176.879 15.514 165.947 8.5484C162.713 6.4917 159.034 6.2091 155.308 7.0412C147.076 8.8938 141.989 14.4307 138.619 21.7312C132.779 34.5362 129.128 48.2298 127.817 62.2424C126.618 74.2791 125.881 86.3157 125.31 98.4047C124.762 109.933 125.425 121.487 127.288 132.877C129.841 148.926 135.918 164.211 145.082 177.632C147.722 181.455 151.011 184.787 154.8 187.476C158.584 190.208 163.016 189.528 167.077 188.779C174.64 187.382 179.7 182.358 183.144 175.738C190.381 161.827 193.029 146.714 193.987 131.296C194.516 123.054 194.097 114.748 194.097 106.475Z" fill="#20150D"/>
<path d="M79.0163 183.923C77.4836 185.954 75.7514 187.826 73.8457 189.512C71.5326 191.625 68.8899 193.347 66.0219 194.609C63.0647 195.916 59.7844 196.31 56.6019 195.739H56.5496C44.2408 193.29 73.1026 183.923 73.1026 183.923H79.0163Z" fill="#20150D"/>
</g>
<defs>
<clipPath id="clip0_3349_38">
<rect width="552" height="380" fill="white"/>
</clipPath>
</defs>
</svg>
