<svg width="149" height="157" viewBox="0 0 149 157" fill="none" xmlns="http://www.w3.org/2000/svg">
<path fill-rule="evenodd" clip-rule="evenodd" d="M104.515 0.100631C109.355 0.940893 110.749 1.28842 112.668 2.13199C113.877 2.66362 116.079 4.2192 117.561 5.58944C119.399 7.28899 120.697 8.1487 121.646 8.29598C122.411 8.41472 124.348 8.7126 125.951 8.95793C130.082 9.59092 135.908 11.3 138.808 12.7302C143.172 14.8824 149.679 20.058 148.943 20.7907C148.799 20.933 146.47 21.3087 143.768 21.6256C123.108 24.0458 121.682 24.3425 119.146 26.752C115.858 29.8751 115.172 33.6756 116.793 39.7816C119.815 51.163 120.373 53.6747 120.608 56.9712C120.756 59.0386 120.651 62.007 120.36 64.0214C117.905 80.9934 107.402 95.577 85.3677 112.609C80.4732 116.392 76.1164 119.898 69.9977 124.98L66.5446 127.847L66.7794 129.53C67.4466 134.315 71.9245 145.519 74.024 147.659C75.4022 149.063 75.7547 149.21 77.7347 149.21C80.6909 149.21 86.278 148.377 86.9644 147.835C87.3199 147.554 87.4318 146.954 87.2749 146.174C86.8741 144.182 78.0836 130.119 74.2496 125.336L72.8544 123.596L74.0123 122.872C76.312 121.436 88.191 112.789 88.6972 112.183C90.0204 110.598 89.7653 111.871 88.1378 114.975C87.1534 116.852 85.7215 119.825 84.9556 121.582C83.6453 124.588 83.5941 124.88 84.0836 126.547C85.5371 131.494 91.3877 142.66 93.9318 145.341L95.3029 146.786L102.302 146.653C108.806 146.531 109.419 146.584 110.966 147.408C113.516 148.767 118.821 154.573 118.136 155.254C118.036 155.354 116.411 154.779 114.527 153.978L111.101 152.52H101.324H91.5467L93.3461 153.884C95.0652 155.188 96.1233 157.037 94.8791 156.564C93.6908 156.112 83.873 155.4 73.2968 154.997C59.7063 154.481 53.9239 154.474 52.1757 154.972C50.4841 155.454 50.2406 155.074 51.2171 153.478C52.4225 151.508 55.2068 150.41 59.9323 150.041C64.5063 149.684 67.0533 148.767 67.0533 147.477C67.0533 147.03 65.9448 144.584 64.59 142.042C61.889 136.974 58.639 129.611 57.9027 126.893C57.5514 125.597 57.5543 124.795 57.9144 123.712C58.1787 122.915 58.3065 122.175 58.1983 122.067C58.09 121.96 56.5262 122.443 54.7231 123.142C51.0373 124.57 51.5018 124.365 44.9099 127.471C39.7365 129.909 39.5816 129.965 39.5816 129.405C39.5816 128.747 43.6999 122.761 45.4539 120.87C46.4033 119.846 46.9927 119.009 46.7634 119.009C45.7524 119.009 40.5003 125.262 38.5843 128.748C36.1198 133.231 33.5753 136.806 28.6633 142.687C21.8728 150.818 16.6986 154.677 10.8143 155.999C7.38863 156.769 2.06079 157.239 0.902817 156.874L0 156.589L1.11967 154.658C3.45477 150.629 15.8624 133.571 20.128 128.524C20.8014 127.728 22.7848 125.616 24.5355 123.831C27.7101 120.595 27.7526 120.569 39.9979 114.48C62.1708 103.455 74.538 96.2257 83.4401 89.0857C89.9709 83.8476 92.7684 81.0381 95.8669 76.6067C102.621 66.9464 104.921 59.9351 103.518 53.2858C102.408 48.0271 100.267 45.3412 95.8848 43.7115C92.2044 42.3425 88.6847 42.1973 84.8108 43.2536C80.7658 44.3565 78.8523 45.3209 77.2511 47.0643L76.0024 48.4234L77.383 47.3126C78.8777 46.1095 81.4759 45.2539 85.8851 44.5133C91.6254 43.549 97.5693 46.251 100.05 50.952C100.689 52.1642 100.97 53.6081 101.099 56.349C101.384 62.3603 99.9052 66.8591 95.5077 73.3603C92.3975 77.9592 90.6489 79.8735 85.6387 84.1658C79.4867 89.4362 74.0756 93.3354 68.302 96.6589C66.585 97.6472 63.4945 99.4837 61.4341 100.739C59.3737 101.995 56.0958 103.855 54.1499 104.872C52.204 105.889 48.2706 108.063 45.409 109.704C42.5473 111.344 37.3964 114.131 33.9624 115.896C30.5285 117.66 26.7549 119.644 25.5769 120.304C23.097 121.692 17.4678 124.058 17.2231 123.815C17.0058 123.599 18.6736 120.996 27.328 108.045C31.2814 102.129 35.3444 95.7991 36.3566 93.9788C37.3693 92.1584 39.6083 88.1557 41.3332 85.0838C43.0576 82.012 44.9865 78.5678 45.6188 77.43C46.2514 76.2923 46.9041 75.1753 47.0693 74.9477C47.2342 74.7202 48.0583 73.2717 48.9008 71.7286C55.1551 60.2731 61.1506 50.9996 69.5557 39.7816C75.0675 32.4249 75.6436 31.3662 77.659 24.8878C81.6316 12.1187 82.6339 9.86356 85.9792 6.16533C87.9767 3.9569 91.3748 1.96443 94.8966 0.936342C97.2176 0.258671 102.688 -0.216692 104.515 0.100631ZM105.44 9.19003C103.516 10.5288 105.076 13.5105 107.699 13.5105C110.256 13.5105 111.241 10.1296 108.998 9.05474C107.645 8.40686 106.502 8.4503 105.44 9.19003ZM118.283 13.9242L115.825 16.4065H123.677C127.995 16.4065 132.454 16.6039 133.585 16.8447C134.716 17.0859 136.551 17.2253 137.664 17.1549L139.687 17.0271L136.451 15.4653C132.969 13.7848 124.854 11.4862 122.306 11.4589C120.936 11.444 120.438 11.7493 118.283 13.9242ZM120.929 18.9004C117.245 19.5347 113.103 20.6211 112.631 21.0762C112.36 21.3376 112.58 21.3931 113.259 21.2346C113.834 21.101 116.456 20.7932 119.087 20.5503C126.983 19.8214 131.15 19.2173 130.913 18.8359C130.604 18.3386 123.94 18.382 120.929 18.9004ZM81.9533 77.1077C78.643 80.7112 73.8192 85.4736 70.3832 88.5293L67.6776 90.9359L71.5004 88.4312C77.05 84.7951 82.3941 79.2099 85.9608 73.3173C87.8739 70.1573 87.8934 69.3377 85.9892 72.1485C85.1862 73.3334 83.3702 75.565 81.9533 77.1077ZM52.0687 93.9875C49.665 96.023 47.3236 98.0374 46.8658 98.4643C46.4079 98.8909 43.6412 101.201 40.7171 103.599C37.7935 105.996 35.4755 108.032 35.5662 108.123C35.8297 108.384 40.8058 105.394 43.5359 103.333C45.9846 101.484 47.2142 100.441 51.4286 96.6361C52.582 95.5948 54.249 94.1054 55.1331 93.3263C56.9079 91.7625 62.0584 85.7677 62.0584 85.2654C62.0584 85.0909 60.7939 86.1492 59.2488 87.6174C57.7038 89.0857 54.4725 91.952 52.0687 93.9875ZM23.8629 136.695C22.523 138.458 19.8857 142.229 18.0023 145.073C14.9929 149.619 14.8055 150.003 16.4547 148.252C18.5783 145.996 27.1004 133.489 26.5135 133.489C26.3957 133.489 25.2032 134.932 23.8629 136.695Z" fill="black"/>
</svg>
