<svg width="1000" height="190" viewBox="0 0 1000 190" fill="none" xmlns="http://www.w3.org/2000/svg">
<rect width="1000" height="190" fill="white"/>
<path d="M203.888 11.04C204.041 11.1794 204.422 11.04 204.659 11.0997C207.247 12.0011 210.359 12.6286 210.967 15.7561C211.843 20.2922 212.397 24.8855 212.624 29.5009C213.159 40.1282 213.495 50.7704 213.762 61.4077C214.024 71.8657 214.257 82.3237 214.222 92.7817C214.222 109.788 214.044 126.8 213.827 143.807C213.747 149.952 213.48 156.094 213.025 162.233C212.793 165.266 212.446 168.298 212.001 171.311C211.924 171.837 211.96 172.374 212.107 172.884C212.254 173.395 212.509 173.867 212.854 174.269C213.199 174.672 213.627 174.994 214.107 175.215C214.587 175.436 215.109 175.55 215.637 175.549H223.79C224.693 175.55 225.565 175.217 226.239 174.613C226.913 174.008 227.343 173.175 227.446 172.272C227.516 171.675 227.56 171.082 227.58 170.485C227.852 161.521 227.684 152.507 227.674 143.518C227.674 138.687 227.624 133.857 227.59 129.026C227.486 114.006 227.397 98.9868 227.234 83.9671C227.234 82.2888 227.807 81.8008 229.381 81.7809C234.565 81.7162 239.77 81.6016 244.93 81.3924C248.393 81.258 251.856 80.8945 255.319 80.6953C258.54 80.4861 261.75 80.506 264.803 81.7908C278.526 87.5228 284.305 99.0665 285.868 112.811C287.04 123.09 286.407 133.568 286.912 143.936C287.165 148.869 287.827 153.771 288.891 158.592C291.171 169.05 297.538 176.276 307.255 180.544C307.714 180.803 308.217 180.972 308.739 181.042C309.557 180.996 310.371 180.888 311.173 180.719C310.896 179.912 310.832 178.911 310.307 178.333C307.915 175.608 306.103 172.418 304.984 168.961C302.278 161.142 301.392 153.025 301.14 144.833C300.992 140.146 301.541 135.435 301.422 130.749C301.16 120.505 300.71 110.266 300.215 100.033C300.101 98.653 299.634 97.3266 298.859 96.1831C295.891 91.7309 292.631 87.5129 288.02 84.5747C283.963 82 280.005 79.3457 276.048 76.7561C276.3 76.5989 276.567 76.4655 276.844 76.3577C282.172 74.5898 286.932 71.7412 291.646 68.7283C297.524 64.9734 302.491 60.5462 305.459 54.0024C308.858 46.5324 309.526 39.1073 305.177 31.9062C301.18 25.2977 296.148 19.5508 289.267 15.6764C287.782 14.8497 286.368 13.9284 284.982 12.9573C281.707 10.6665 278.185 8.83883 274.242 8.32091C267.687 7.45937 261.112 6.58289 254.522 6.16955C245.479 5.59685 236.381 5.22335 227.436 7.16555C223.075 8.06158 218.581 8.09203 214.208 7.25519C210.923 6.68747 207.554 6.55301 204.219 6.33887C202.799 6.24923 200.989 6.63767 201.127 8.25617C201.196 9.25217 202.883 10.1386 203.888 11.04ZM231.557 11.4882C240.67 10.6665 249.862 10.1536 258.881 11.5928C269.879 13.3457 279.189 18.251 284.463 28.8385C286.185 32.3245 288.03 35.7707 289.118 39.4509C290.419 43.8432 289.677 48.3601 288.064 52.6479C285.497 59.4705 282.068 65.7304 276.087 70.1675C274.732 71.1874 273.231 71.9934 271.635 72.5579C263.185 75.3965 254.478 76.5718 245.568 76.6764C240.329 76.7411 235.1 77.4832 229.856 77.7869C227.1 77.9463 227.065 77.8168 227.016 74.9732C226.976 72.8567 227.016 70.7402 227.016 68.6188H227.164C226.848 63.8081 226.437 58.9974 226.249 54.1767C226.13 51.1489 226.402 48.1061 226.407 45.0683C226.407 40.7706 226.353 36.4729 226.299 32.1751C226.234 27.3445 226.145 22.5139 226.061 17.6833C225.967 13.779 227.654 11.8368 231.557 11.4882Z" fill="#20150D"/>
<path d="M896.701 130.856C894.371 115.339 888.454 101.763 875.858 91.7933C871.678 88.4816 867.562 85.0703 862.046 84.2287C861.863 84.2287 861.719 83.905 861.516 83.6909C861.734 83.4967 861.872 83.2726 862.011 83.2676C866.369 83.1779 870.065 81.1411 873.785 79.1989C885.258 73.2229 891.432 63.9153 891.595 50.6835C891.704 42.1726 889.537 34.2494 885.975 26.6898C885.116 24.8286 883.885 23.1655 882.359 21.8044C878.268 18.3184 874.147 14.7926 869.674 11.8444C861.605 6.50087 852.587 3.732 842.915 3.2589C836.617 2.95014 830.309 2.72605 824.007 2.46211C811.876 1.95415 799.744 1.45615 787.61 0.968107C786.89 0.90127 786.165 1.03748 785.517 1.36152C785.207 1.55105 784.938 1.80118 784.726 2.09712C784.513 2.39306 784.362 2.72882 784.28 3.08461C784.226 3.61249 784.81 4.36943 785.314 4.74791C785.891 5.06258 786.53 5.24298 787.184 5.27579C789.163 5.59451 791.211 5.79869 793.205 6.18215C796.297 6.77975 799.686 9.92711 799.909 12.6562C800.532 20.415 801.2 28.1788 801.462 35.9526C801.665 41.9585 801.195 47.9893 801.18 54.0101C801.136 74.0695 801.032 94.1289 801.205 114.183C801.319 127.017 801.967 139.84 802.194 152.674C802.313 159.481 802.16 166.304 801.897 173.092C801.784 176.15 800.537 177.345 798.058 177.335C797.879 177.334 797.702 177.37 797.537 177.439C797.372 177.509 797.223 177.612 797.098 177.741C796.973 177.87 796.876 178.024 796.811 178.192C796.747 178.36 796.717 178.539 796.723 178.719V182.036C796.722 182.225 796.762 182.413 796.838 182.586C796.915 182.759 797.027 182.914 797.167 183.04C797.307 183.167 797.472 183.262 797.651 183.32C797.83 183.378 798.02 183.397 798.207 183.376L798.548 183.341C803.001 182.843 807.547 183.186 812.044 183.296C818.876 183.455 825.698 183.764 832.526 183.963C839.026 184.157 845.527 184.297 852.028 184.426C852.975 184.451 853.922 184.372 854.852 184.192C862.535 182.734 869.998 180.287 877.06 176.911C886.836 172.18 892.946 164.417 895.86 154.058C897.982 146.414 897.863 138.635 896.701 130.856ZM815.789 40.9276C815.834 32.0682 815.987 23.2138 816.19 14.3593C816.295 12.3921 816.568 10.4377 817.006 8.51777C817.08 8.13929 817.813 7.66621 818.263 7.63633C821.053 7.47199 823.858 7.28772 826.648 7.3674C830.908 7.48692 835.162 7.96001 839.422 8.01977C847.07 8.13431 854.457 9.65821 861.19 13.1143C870.332 17.7856 875.26 25.6042 876.106 35.9626C877.095 47.9494 874.419 59.1345 868.517 69.5078C865.222 75.2896 859.74 77.9738 853.438 79.1541C844.038 80.9419 834.519 80.8373 825.006 80.6481C822.132 80.5983 819.257 80.6481 815.735 80.6481C815.774 67.1025 815.73 54.0151 815.789 40.9276ZM877.501 156.309C872.756 167.679 864.356 175.233 851.815 177.225C847.629 177.893 843.499 178.575 839.145 178.161C833.035 177.579 826.856 177.773 820.707 177.663C818.159 177.614 817.832 177.23 817.738 174.626C817.283 161.284 816.749 147.943 816.328 134.596C816.18 130.04 816.165 125.473 816.116 120.911C815.994 109.537 815.878 98.1644 815.769 86.7934C815.769 86.2954 815.829 85.7526 815.883 84.911C817.57 84.911 819.198 84.911 820.83 84.911C827.791 84.8462 834.752 84.7566 841.713 84.7267C842.959 84.6519 844.21 84.7951 845.408 85.15C852.156 87.64 858.879 90.2047 864.648 94.7465C871.485 100.13 875.561 107.291 878.104 115.453C882.364 129.138 883.081 142.933 877.501 156.309Z" fill="#20150D"/>
<path d="M795.209 178.799C795.209 178.624 795.17 178.452 795.096 178.294C795.021 178.136 794.912 177.997 794.776 177.887C794.641 177.777 794.483 177.699 794.314 177.659C794.145 177.618 793.969 177.617 793.799 177.654C790.187 178.461 788.451 177.584 786.813 173.929C786.371 172.925 786.014 171.886 785.745 170.821C782.872 159.616 780.024 148.405 777.201 137.186C774.915 128.143 772.402 119.144 770.453 110.026C767.356 95.5536 764.962 80.9274 761.687 66.5003C758.466 52.3173 755.879 38.0247 753.276 23.7321C752.539 19.7232 751.792 15.7193 751.124 11.6954C750.733 9.27017 750.545 6.81005 750.249 4.22543C751.733 4.22543 752.905 4.27523 754.078 4.22543H754.147C756.126 4.11089 756.027 1.10296 754.033 1.10296H741.017C740.214 1.33588 739.38 1.44503 738.543 1.42668C735.323 1.3968 732.112 1.26232 728.887 1.16272C726.784 1.09798 724.662 0.814116 722.594 1.03324C721.758 1.12288 720.684 2.16868 720.407 3.02524C720.249 3.49336 721.396 4.78317 722.163 5.07699C723.276 5.50029 724.602 5.39074 725.839 5.43058C729.544 5.5501 731.424 7.2433 731.281 10.9086C731.029 16.7053 730.821 22.5419 729.995 28.2738C728.807 36.5456 727.229 44.7676 725.542 52.9547C722.846 66.092 719.927 79.1894 717.132 92.2967C712.392 114.413 707.732 136.554 702.849 158.63C701.746 163.61 699.94 168.436 698.031 173.157C696.908 175.941 694.528 177.704 691.258 177.848C690.41 177.917 689.593 178.201 688.883 178.675C688.556 178.873 688.276 179.141 688.063 179.459C687.849 179.778 687.707 180.139 687.647 180.519C687.587 180.898 687.61 181.286 687.714 181.656C687.818 182.025 688.001 182.368 688.25 182.659C689.63 184.153 692.965 184.87 694.642 183.63C697.516 181.503 700.678 181.733 703.883 181.922C707.089 182.111 710.166 182.42 713.308 182.564C716.172 182.689 717.266 180.747 716.232 178.137C715.569 176.484 715.005 174.591 715.128 172.853C715.499 167.465 715.974 162.057 716.86 156.733C718.839 144.856 720.511 132.909 723.84 121.29C724.538 118.86 724.968 116.35 725.503 113.98L755.681 115.2C755.858 115.65 756.003 116.113 756.116 116.584C758.095 127.182 760.336 137.749 762.013 148.396C763.255 156.27 763.685 164.263 764.675 172.181C765.006 174.87 763.957 176.558 762.033 178.117C761.38 178.645 761.083 179.611 760.623 180.383C761.612 180.791 762.533 181.498 763.512 181.548C765.986 181.678 768.499 181.334 770.977 181.489C778.68 181.987 786.314 183.52 794.066 183.366C794.37 183.358 794.659 183.231 794.871 183.011C795.083 182.791 795.2 182.497 795.199 182.191L795.209 178.799ZM754.899 110.429H726.799C727.185 107.371 727.293 104.483 727.942 101.719C731.934 84.6574 736.05 67.6258 740.122 50.5842L741.284 50.4946C742.086 53.4826 742.937 56.4407 743.689 59.4586C745.267 65.7583 746.914 72.048 748.324 78.3826C750.605 88.6464 752.717 98.945 754.889 109.259C754.927 109.648 754.931 110.039 754.899 110.429Z" fill="#20150D"/>
<path d="M691.238 110.093C691.268 112.085 689.972 112.473 688.359 112.498C686.469 112.528 685.188 113.544 684.787 115.312C684.129 118.195 683.421 121.113 683.243 124.042C682.803 131.297 682.689 138.573 682.387 145.834C681.982 155.462 681.543 165.09 681.072 174.718C680.888 178.398 680.018 179.2 676.421 179.882C671.919 180.704 667.457 181.874 662.92 182.337C658.844 182.741 654.693 182.452 650.552 182.337C647.411 182.233 644.279 181.7 641.152 181.705C637.026 181.705 632.891 182.298 628.784 182.203C623.224 182.054 617.678 181.391 612.117 181.107C607.477 180.873 602.821 180.824 598.171 180.779C595.48 180.749 592.788 180.943 590.097 180.928C588.613 180.928 587.312 180.326 587.322 178.538C587.322 176.835 588.771 176.69 589.978 176.491C592.685 176.048 595.42 175.844 598.112 175.241C599.799 174.834 601.407 174.144 602.866 173.199C603.722 172.545 604.338 171.624 604.617 170.58C606.75 163.15 607.032 155.5 607.027 147.826C607.027 134.201 607.066 120.575 607.027 106.945C606.947 89.3559 606.774 71.7565 606.67 54.1572C606.621 45.6912 606.735 37.2252 606.601 28.7592C606.502 22.6886 606.136 16.613 605.849 10.5424C605.85 10.0918 605.758 9.64607 605.58 9.23279C605.401 8.8195 605.141 8.44756 604.813 8.14016C604.486 7.83275 604.1 7.59646 603.678 7.44599C603.256 7.29551 602.808 7.23411 602.361 7.26556C601.178 7.32357 600.002 7.47846 598.844 7.72869C601.563 6.52882 604.07 4.89047 606.265 2.87818H607.22C613.715 2.87818 620.211 2.79849 626.707 2.93295C628.567 2.96781 630.432 3.55544 632.257 4.0385C633.554 4.37714 634.528 5.26855 634.4 6.74263C634.261 8.36113 632.856 8.54041 631.634 8.73463C630.976 8.79248 630.314 8.79248 629.655 8.73463C626.242 8.68483 624.752 9.60613 624.06 12.9676C623.441 16.2015 623.044 19.4745 622.873 22.7633C622.685 25.6617 622.907 28.5849 622.833 31.4982C622.464 45.3825 622.071 59.2634 621.655 73.141C621.27 86.5621 620.666 99.9832 620.528 113.409C620.394 126.048 620.562 138.688 620.943 151.322C621.154 157.32 621.797 163.296 622.868 169.2C623.728 173.986 625.574 174.957 630.377 175.261C637.304 175.704 644.23 176.337 651.156 176.83C652.066 176.881 652.978 176.767 653.847 176.491C656.395 175.714 658.893 174.753 661.451 174.001C664.36 173.139 666.349 171.576 667.2 168.443C668.936 162.009 669.371 155.431 669.5 148.837C669.653 140.909 669.5 132.961 669.366 125.028C669.334 122.981 669.063 120.945 668.56 118.962C667.477 114.749 664.108 112.259 659.784 112.1C658.611 112.055 657.31 112.1 656.321 111.602C655.485 111.208 654.975 110.108 654.317 109.311C655.104 108.783 655.836 107.931 656.682 107.817C658.22 107.563 659.828 107.737 661.406 107.737H688.215C690.392 107.697 691.203 108.305 691.238 110.093Z" fill="#20150D"/>
<path d="M74.7704 71.8967C74.749 70.4327 74.9305 68.9727 75.3097 67.5591C79.6484 49.417 74.9584 29.3227 63.0505 15.0152C60.0822 11.4445 56.4608 8.08797 51.9489 7.02225C44.9783 5.36391 37.8444 9.66663 33.2138 15.1695C25.4566 24.3875 22.5575 36.723 20.7815 48.67C16.4052 78.1816 17.3807 108.247 23.6608 137.409C25.7683 147.179 28.5684 157.03 34.2824 165.202C37.4437 169.724 41.5845 173.728 46.695 175.74C51.8055 177.752 57.9845 177.503 62.4073 174.246C65.6923 171.815 67.7157 168.026 69.1751 164.196C74.1966 151.024 73.6969 136.438 72.6382 122.364C72.4452 119.819 72.2424 117.2 72.9993 114.765C73.7563 112.329 75.7203 110.088 78.2434 109.829C80.9792 109.546 83.4874 111.672 84.6748 114.182C85.8621 116.692 86.0006 119.53 86.3271 122.279C87.1286 129.077 91.4475 137.518 90.0524 143.858C88.4693 151.079 82.2704 159.296 78.936 165.949C76.4624 170.899 73.41 176.327 68.1214 177.901C67.874 177.288 68.9129 178.12 68.5419 178.673C65.5736 183.04 59.8595 184.868 54.6452 184.285C49.4308 183.703 44.6518 181.098 40.2982 178.125C32.7258 172.931 26.0607 166.509 20.5737 159.121C7.55759 141.582 1.87819 119.466 0.384128 97.6284C-0.605315 83.3706 0.141715 68.7991 4.6981 55.2685C8.89334 42.8185 16.1657 31.6782 23.5866 20.8617C27.6482 14.9404 31.9523 8.90967 38.0621 5.17467C40.9367 3.36552 44.1941 2.26341 47.5707 1.95759C51.7659 1.63389 55.9809 2.78428 59.7952 4.54222C70.9957 9.68656 79.1883 19.7262 85.9808 30.0647C87.9201 33.0228 89.805 36.0806 90.7648 39.4919C91.9966 43.8693 91.6207 48.5206 91.215 53.0474C90.6411 59.4783 90.021 65.9024 89.3548 72.32C89.2262 73.565 89.0085 74.9594 87.9993 75.6865C87.2127 76.2492 86.1688 76.2343 85.1992 76.1845L79.5593 76.0002C78.5204 75.9604 77.437 75.9056 76.5415 75.3777C75.3196 74.6208 74.8496 73.3409 74.7704 71.8967Z" fill="#20150D"/>
<path d="M930.901 132.401C930.485 141.165 931.318 149.944 933.375 158.471C935.007 165.025 938.149 170.523 943.447 175.01C947.662 178.575 951.61 177.888 955.761 175.881C958.816 174.364 961.732 172.578 964.473 170.542C965.814 169.502 966.864 168.129 967.521 166.558C970.385 159.766 973.086 152.844 973.739 145.453C974.071 141.713 973.284 137.844 972.784 134.059C972.075 128.71 971.251 123.379 970.311 118.063C969.208 111.818 965.982 106.664 961.762 102.082C960.822 101.086 959.823 100.09 958.833 99.1343C956.216 96.5596 953.421 94.6522 949.542 94.0746C945.01 93.4358 940.551 92.3431 936.234 90.8127C924.663 86.6793 916.564 79.0947 913.586 66.6348C911.498 57.8202 911.365 48.9857 911.993 40.0217C912.537 32.3525 914.759 25.2161 919.374 19.1057C925.049 11.5908 932.108 5.70448 941.513 3.6079C947.529 2.26828 953.55 2.81609 959.57 4.45949C967.486 6.61085 974.249 10.6297 980.245 16.0579C985.326 20.6544 989.15 26.2022 990.347 33.0845C991.118 38.0448 991.567 43.0503 991.693 48.0693C991.91 53.2884 991.693 58.5273 991.732 63.7514C991.718 65.3998 991.884 67.0448 992.227 68.6567C992.692 70.6487 993.345 72.5411 995.838 73.0789C996.64 73.2532 997.229 74.4185 997.911 75.1307C997.095 75.6735 996.333 76.54 995.438 76.6844C993.291 76.9851 991.129 77.1514 988.962 77.1824C984.178 77.3766 979.394 77.5759 974.615 77.6356C973.26 77.626 971.919 77.366 970.657 76.8687C970.321 76.6931 970.034 76.4374 969.819 76.124C969.604 75.8106 969.469 75.4491 969.425 75.0709C969.497 74.698 969.661 74.3491 969.901 74.0561C970.141 73.763 970.451 73.5349 970.801 73.3926C974.199 72.6008 974.936 69.9066 975.599 67.078C977.133 60.5044 976.757 53.8063 976.821 47.158C976.866 42.5465 976.92 37.8852 975.228 33.4729C972.049 24.8658 966.327 17.445 958.833 12.2084C954.381 9.10085 949.201 7.93053 943.828 9.32991C939.769 10.3271 936.265 12.8995 934.082 16.4862C931.094 21.3204 929.359 26.8324 929.036 32.5168C928.645 38.443 928.012 44.3642 927.908 50.2904C927.765 58.5971 929.264 66.5651 934.147 73.557C937.387 78.2033 942.033 81.0917 946.945 83.517C952.214 86.1016 957.73 88.1783 962.969 90.8127C966.107 92.4422 969.083 94.3717 971.854 96.5745C975.842 99.6771 979.908 102.785 983.352 106.455C985.756 109.01 987.512 112.351 988.957 115.613C991.579 121.549 993.216 128.018 993.053 134.393C992.806 144.124 991.599 153.874 984.391 161.603C981.115 165.089 978.187 168.954 974.061 171.563C970.786 173.625 967.407 175.547 964.211 177.699C958.972 181.259 953.035 182.42 946.945 182.778C941.998 183.067 937.709 180.961 934.241 177.5C931.975 175.239 930.06 172.614 928.067 170.089C926.192 167.714 924.376 165.284 922.625 162.823C917.781 156.036 916.46 148.147 915.629 140.09C914.914 133.148 914.125 126.214 913.264 119.288C912.997 117.117 911.998 115.553 909.5 115.14C908.698 115.011 907.555 113.691 907.521 112.894C907.486 112.097 908.654 110.778 909.44 110.658C911.815 110.289 914.264 110.354 916.683 110.329C921.061 110.279 925.445 110.419 929.818 110.23C932.315 110.049 934.801 110.702 936.892 112.087C937.669 112.625 937.882 114.034 938.322 115.04C937.412 115.394 936.502 116.036 935.596 116.036C932.277 116.002 931.144 116.614 930.961 119.886C930.713 124.184 930.901 128.461 930.901 132.401Z" fill="#20150D"/>
<path d="M358.271 152.668C360.838 150.676 360.878 147.827 361.387 145.198C363.945 132.09 366.424 118.968 369.036 105.856C371.969 91.1446 375.131 76.4735 377.98 61.7477C380.39 49.2977 382.433 36.7481 384.758 24.2582C385.688 19.2135 386.771 14.1987 387.944 9.20371C388.755 5.71771 390.259 4.68685 393.881 4.76155C398.016 4.84787 402.151 4.98566 406.283 5.1749C407.045 5.20976 408.03 5.32429 408.49 5.80735C409.182 6.53443 409.929 7.65991 409.845 8.53141C409.776 9.18877 408.495 10.1051 407.654 10.2346C403.641 10.8521 403.008 11.2853 402.053 15.3092C399.224 27.2612 396.26 39.2132 393.683 51.225C392.347 57.4599 391.857 63.8741 390.749 70.1489C389.265 78.6398 387.533 87.0809 385.916 95.547C384.06 105.243 382.245 114.944 380.36 124.63C378.584 133.739 376.679 142.817 374.948 151.931C373.399 160.073 372.024 168.25 370.53 176.407C370.284 177.429 369.953 178.429 369.54 179.395C368.877 181.183 367.517 181.885 365.691 181.855C360.437 181.711 355.188 181.581 349.939 181.392C347.154 181.288 346.333 180.092 346.036 177.274C345.541 172.294 344.784 167.339 343.983 162.398C342.786 154.993 341.406 147.618 340.184 140.218C338.769 131.637 337.378 123.052 336.092 114.451C335.36 109.561 334.781 104.65 334.262 99.7351C333.149 89.1726 332.154 78.595 331.041 68.0275C329.928 57.4599 328.642 47.0418 327.623 36.529C327.074 30.5613 325.842 24.6774 323.952 18.9944C323.287 17.2123 322.467 15.4925 321.503 13.855C320.513 12.0921 318.935 11.1808 316.996 10.628C315.501 10.2122 314.081 9.55821 312.791 8.69077C311.465 7.77943 311.732 6.53443 313.201 5.80735C313.544 5.61646 313.924 5.50581 314.315 5.48365C320.528 5.59819 326.752 5.62807 332.961 5.91193C336.552 6.07627 338.403 8.40193 338.967 11.8879C339.911 17.8639 341.005 23.8399 341.697 29.8558C343.182 42.5697 344.28 55.3185 345.764 68.0275C347.144 79.8799 348.782 91.7024 350.37 103.53C351.656 113.131 352.928 122.738 354.402 132.309C355.391 138.783 356.742 145.257 357.939 151.731C358.023 152.052 358.134 152.365 358.271 152.668Z" fill="#20150D"/>
<path d="M521.256 94.7069C521.82 106.828 521.078 118.87 518.09 130.653C515.567 140.613 510.922 149.706 506.148 158.7C503.966 162.803 501.695 166.967 498.757 170.532C495.923 174.063 492.556 177.123 488.778 179.601C485.033 181.961 480.526 183.087 476.361 184.785C470.488 187.151 464.779 186.329 458.917 184.432C456.312 183.613 453.881 182.315 451.748 180.602C448.513 178.022 445.099 175.662 441.77 173.197C434.883 168.097 430.787 160.821 427.002 153.426C422.55 144.671 420.165 135.11 417.494 125.692C415.97 120.018 415.161 114.174 415.084 108.297C414.99 105.065 414.476 101.823 414.441 98.6112C414.352 94.6582 414.476 90.7032 414.812 86.7638C415.406 80.5985 415.802 74.3486 417.202 68.3378C419.136 59.8718 421.061 51.3111 425.285 43.5025C428.224 38.0793 430.485 32.2826 433.3 26.7896C436.902 19.7628 441.309 13.2739 447.192 7.95028C452.634 3.01012 458.714 -0.515715 466.431 0.0619648C473.254 0.559965 479.932 1.6456 485.765 5.61466C486.814 6.41057 487.821 7.25993 488.783 8.15943C496.327 14.5289 502.739 22.0038 508.443 29.9818C511.868 34.6784 513.97 40.2184 514.528 46.0174C514.526 46.4124 514.603 46.8039 514.756 47.1678C517.591 52.0382 518.051 57.6258 519.208 62.9544C520.271 68.1204 520.933 73.3619 521.187 78.6314C521.509 83.9849 521.256 89.3534 521.256 94.7069ZM505.994 96.0415L505.47 95.9967C505.198 89.9211 504.975 83.8405 504.629 77.7699C504.406 73.9452 504.08 70.1206 503.595 66.3159C503.014 61.7442 502.314 57.1909 501.492 52.6557C500.414 46.7793 499.513 40.8282 497.861 35.1112C496.125 29.1352 494.23 23.1941 490.386 18.0497C484.751 10.515 478.359 4.62862 468.163 5.05192C463.874 5.2312 459.674 5.44534 456.052 8.20924C448.839 13.6872 444.708 21.4511 441.211 29.4788C434.779 44.125 434.334 59.9514 432.924 75.5488C432.429 81.2708 432.558 87.0576 431.934 92.7647C430.807 103.427 432.301 113.945 434.106 124.293C435.734 133.631 438.826 142.719 441.621 151.827C443.674 158.511 446.682 164.741 451.174 170.283C456.21 176.498 462.513 179.641 470.325 179.935C474.891 180.104 478.24 177.021 481.842 174.955C487.779 171.543 491.242 165.781 494.002 159.805C499.281 148.287 503.16 136.305 503.971 123.486C504.545 114.328 505.312 105.185 505.994 96.0415Z" fill="#20150D"/>
<path d="M153.258 185.234C146.084 185.921 141.009 181.564 135.715 177.814C127.636 172.097 122.046 164.059 116.97 155.857C113.507 150.229 111.211 143.75 109.054 137.431C107.169 131.761 105.741 125.947 104.785 120.046C103.89 114.797 103.796 109.403 103.395 104.07C103.187 101.171 103.034 98.2581 103.004 95.3498C102.866 81.5004 103.959 67.8104 108.278 54.5138C110.568 47.4621 112.656 40.3407 115.046 33.3189C115.905 31.0413 117.045 28.8814 118.439 26.8898C121.254 22.597 123.975 18.1897 127.24 14.2555C131.228 9.43984 135.913 5.40603 141.726 2.66703C146.178 0.57045 150.631 0.421054 154.806 2.07939C159.174 3.8299 163.282 6.17581 167.016 9.05139C177.514 17.1439 186.033 26.9794 191.717 39.1704C195.131 46.4811 197.224 54.1104 198.5 62.0784C199.984 71.2068 201.35 80.3102 201.651 89.568C201.958 99.2292 201.651 108.851 200.103 118.387C198.93 125.653 198.124 133.078 195.947 140.05C193.226 148.785 190.58 157.704 184.969 165.249C177.44 175.373 168.02 182.584 155.415 184.97C154.702 185.144 153.975 185.169 153.258 185.234ZM183.485 101.386H183.817C183.817 100.658 183.817 99.9264 183.817 99.1993C183.639 86.2513 183.52 73.3033 181.976 60.3902C180.987 52.1433 180.403 43.8566 177.944 35.8637C174.293 24.0312 167.209 14.8282 156.874 8.19982C153.817 6.24268 150.339 5.97376 146.817 6.76558C139.035 8.5285 134.226 13.7973 131.04 20.7444C125.519 32.9296 122.068 45.9603 120.829 59.2946C119.696 70.7486 118.998 82.2026 118.459 93.7064C117.941 104.677 118.568 115.671 120.329 126.51C122.743 141.782 128.487 156.327 137.15 169.099C139.646 172.736 142.755 175.907 146.337 178.466C149.913 181.066 154.104 180.418 157.943 179.706C165.092 178.376 169.875 173.596 173.131 167.296C179.973 154.059 182.476 139.677 183.381 125.006C183.881 117.162 183.485 109.259 183.485 101.386Z" fill="#20150D"/>
</svg>
