<svg width="283" height="285" viewBox="0 0 283 285" fill="none" xmlns="http://www.w3.org/2000/svg">
<path d="M25.0662 1.71674C24.3719 2.51578 23.529 3.16953 23.1323 3.16953C22.7356 3.16953 22.1405 3.60535 21.843 4.0412C21.3471 4.76758 21.0992 4.76758 20.7521 3.8959C20.3554 2.9516 20.2562 3.02423 20.2562 4.0412C20.2562 4.76758 20.0579 5.34869 19.7604 5.34869C19.5124 5.34869 19.2645 6.14774 19.2645 7.16467C19.2645 8.18164 19.0662 8.98065 18.8182 8.98065C18.124 8.98065 14.8017 15.8814 11.281 24.5981C6.76864 35.6393 6.9174 35.2034 5.38021 43.7748C3.79343 52.7821 3.09921 61.2809 3.79343 63.1695C4.09095 63.9686 4.43806 69.925 4.58682 76.5351C4.83475 86.7046 5.13227 89.6102 6.42153 96.5109C7.21492 100.869 8.45459 106.317 9.1488 108.496C11.0827 114.525 15.3967 123.533 19.0166 129.053C21.0992 132.249 22.2397 134.574 22.2397 135.663C22.2397 136.971 22.5868 137.479 23.6281 137.77C24.3719 137.988 25.4133 138.787 25.9587 139.513C26.5042 140.24 27.7934 141.765 28.8348 142.927C29.8265 144.09 30.6695 145.47 30.6695 145.978C30.6695 146.559 30.9174 146.995 31.1653 146.995C31.4629 146.995 31.6612 146.559 31.6612 146.051C31.6612 145.324 32.5538 145.034 34.686 144.961C36.3719 144.889 38.0083 144.525 38.3058 144.162C38.6034 143.799 39.4463 143.654 40.1405 143.872C42.7191 144.598 42.8182 145.833 42.6695 172.346C42.6199 185.785 42.4711 211.281 42.4215 229.077C42.2232 270.627 41.7769 274.913 38.0083 273.751C36.9174 273.387 36.6695 273.533 36.5207 274.985C36.4215 275.93 36.0248 276.729 35.6281 276.729C35.2314 276.801 34.4876 276.874 33.9918 276.947C33.4463 277.019 33.1488 277.455 33.248 278.182C33.3472 279.199 34.3389 279.416 39.0992 279.707C45.7438 280.07 46.6364 280.216 47.3306 280.869C47.6281 281.087 47.9753 281.16 48.124 281.015C48.2728 280.797 51.6943 280.579 55.7604 280.506C61.0662 280.433 63.4959 280.651 64.3389 281.305C65.529 282.249 68.6529 282.031 72.5207 280.724C73.6116 280.288 74.6529 280.143 74.8513 280.288C75.0496 280.506 76.4876 279.998 78.0744 279.199C79.6612 278.4 81.248 277.891 81.5455 278.036C81.9918 278.327 82.1405 274.913 82.1901 264.453C82.2397 256.753 82.3389 248.182 82.4876 245.421C82.6364 242.588 82.8348 238.375 82.9339 235.978C83.281 229.077 83.7769 225.591 84.5207 225.155C84.9174 224.937 85.2149 225.082 85.2149 225.446C85.2149 225.881 85.4629 226.172 85.7604 226.172C86.0083 226.172 86.1075 225.809 85.9587 225.446C85.81 225.01 86.0083 224.719 86.4546 224.719C86.8513 224.719 87.3472 224.211 87.4959 223.63C87.6943 223.048 88.091 222.54 88.4876 222.54C88.8843 222.54 89.1819 222.031 89.1819 221.45C89.1819 220.724 88.686 220.361 87.6447 220.361C86.8513 220.361 86.2562 220.143 86.3554 219.78C86.5042 219.489 86.405 218.617 86.1571 217.818C85.7604 216.511 85.7604 216.584 85.8596 218.182L85.9587 219.998L80.2562 219.925C77.1323 219.925 74.0579 219.634 73.4133 219.344C72.5703 218.908 72.3224 218.981 72.4215 219.707C72.5703 220.651 72.3719 220.797 70.091 221.015C69.5455 221.087 68.7521 221.45 68.3554 221.814C67.7108 222.467 67.7108 222.613 68.3554 223.266C68.7521 223.63 69.7934 223.993 70.5868 223.993C71.4298 223.993 72.7686 224.792 73.562 225.736L75.0496 227.479L74.9505 246.002C74.8513 264.453 74.6033 267.722 72.8182 272.588C72.2728 274.114 68.8017 275.785 67.6116 275.131C67.1157 274.84 66.6199 275.058 66.3719 275.567C65.9753 276.438 64.686 276.584 57.0992 276.293C55.6612 276.22 54.4711 275.93 54.4711 275.494C54.4711 275.131 53.9257 274.84 53.2314 274.84C50.6034 274.84 50.5042 273.387 50.8513 233.654C51.2976 172.564 51.7438 149.61 52.5372 146.487C52.8348 145.397 53.529 144.743 54.8182 144.453C57.6943 143.726 59.4298 142.419 59.4298 141.039C59.4298 139.586 58.1901 139.295 57.6943 140.458C57.4463 140.966 57.1488 141.039 56.7521 140.53C56.1571 139.804 48.8182 139.949 47.4794 140.821C46.9835 141.039 46.4876 140.966 46.2893 140.53C46.1405 140.094 45.5455 139.731 45 139.731C44.1075 139.731 44.2067 139.513 45.4959 137.843C46.3389 136.826 47.0331 135.663 47.0331 135.3C47.0331 134.864 47.4794 133.92 48.0248 133.048C48.5703 132.177 49.0166 130.869 49.0166 130.143C49.0166 129.416 49.2645 128.835 49.5124 128.835C49.81 128.835 50.0083 128.327 50.0083 127.746C50.0083 127.165 50.4546 125.567 50.9505 124.186C51.4959 122.806 52.091 120.482 52.2893 119.029C52.4381 117.576 53.0331 116.124 53.529 115.688C54.0744 115.324 54.3224 114.598 54.1736 114.162C53.9753 113.654 54.0744 113.581 54.4215 113.872C54.7191 114.162 54.8678 115.034 54.7191 115.833C54.2232 118.085 55.1653 117.358 55.9587 114.816C56.3554 113.508 56.6033 111.693 56.5538 110.748C56.3554 108.932 56.3554 108.932 55.562 110.385C55.0662 111.111 54.7686 111.62 54.8182 111.475C54.8678 111.402 54.4711 110.603 53.9753 109.804C53.4794 109.005 52.8843 106.68 52.7356 104.574C52.5372 102.54 52.1405 100.288 51.8926 99.5618C51.6447 98.7627 51.3967 96.7288 51.3967 94.9855C51.3967 93.2422 51.1984 91.7894 50.9505 91.7894C50.7025 91.7894 50.5042 91.2083 50.5042 90.4819C50.5042 89.5376 50.6034 89.4649 50.9505 90.1913C51.2976 90.9903 51.3967 90.9903 51.6447 90.046C51.843 89.3196 51.6943 88.8838 51.2976 88.8838C50.9505 88.8838 50.3554 88.3753 50.0083 87.7942C49.6612 87.2131 49.2149 86.9225 48.967 87.0678C48.7686 87.2857 47.529 87.5037 46.2893 87.5763C45.0496 87.5763 44.0579 87.9395 44.0083 88.448C43.9587 88.8838 44.0083 93.4601 44.0579 98.6901C44.1075 109.441 43.4133 120.337 42.2728 125.421C41.7769 127.528 40.6364 130.07 39.2976 132.031C38.1075 133.847 37.1157 135.591 37.1157 136.027C37.1157 136.39 36.6695 136.971 36.124 137.189C35.5786 137.479 35.2314 137.915 35.3306 138.206C35.4794 138.496 34.8843 138.569 33.9918 138.424C33.0992 138.278 31.3637 136.826 30.0744 135.228C28.7852 133.702 27.0496 132.104 26.2562 131.668C23.4794 130.216 19.2645 119.973 19.2645 114.525C19.2645 112.056 18.7191 108.642 17.7273 105.228C17.4794 104.429 17.1819 101.232 17.0331 98.1816C16.7852 92.1526 16.3389 87.3584 15.9422 86.4867C15.843 86.1962 15.9918 85.9782 16.2893 85.9782C16.5868 85.9782 16.686 85.6877 16.5372 85.2518C16.3885 84.8886 16.1405 79.3681 15.9918 73.1211C15.7438 60.1913 15.5951 58.3027 15.1488 57.1405C14.9505 56.7046 15.0496 56.1962 15.3471 56.0509C16.2397 55.615 16.2397 43.2664 15.2976 42.3947C14.9009 42.0315 14.405 41.9589 14.2067 42.1041C14.0083 42.3221 13.81 42.1768 13.81 41.741C13.81 41.3051 14.2562 40.6514 14.8017 40.2155C15.6447 39.5618 15.6943 39.1986 15.1984 38.0363C14.7521 37.0194 14.7521 36.2204 15.1984 34.7676C15.5455 33.678 15.9422 30.8451 16.1405 28.5206C16.2893 26.1235 16.686 24.2349 16.9835 24.2349C17.281 24.2349 17.9257 23 18.3719 21.4746C18.8182 20.0218 19.9587 17.5521 20.9505 16.0267C21.9422 14.5013 22.7356 12.9758 22.7356 12.6853C22.7356 12.4673 23.5786 10.9419 24.5703 9.4165C26.3554 6.72885 26.4546 6.65622 29.3802 7.09204C31.0662 7.30997 32.7025 7.52786 33.0496 7.60052C34.0414 7.81842 36.124 12.1042 38.1571 17.9879C39.4463 21.6925 40.1901 23.1453 40.8843 23.1453C41.9257 23.1453 42.4711 24.3802 44.0579 30.5545C45.2976 35.3487 45.8926 48.1332 45.0496 52.4915C44.7025 54.3802 44.7521 55.1792 45.1984 55.615C45.6447 56.0509 45.6447 56.1962 45.1984 56.1962C44.3554 56.1962 44.405 58.448 45.2976 60.3366C45.8926 61.5715 46.3885 61.7894 48.1736 61.4988C49.5124 61.2809 50.5042 61.4262 50.7025 61.9346C51.1984 63.0242 51.9918 62.9516 51.9918 61.7167C51.9918 61.1356 52.3389 60.5545 52.686 60.3366C53.6777 59.7555 53.9257 56.9225 54.124 43.6296C54.2728 34.9855 54.1736 32.0073 53.6777 31.4262C53.3306 30.9903 53.1323 30.2639 53.281 29.7555C53.5786 28.5206 52.1901 26.8499 51.2976 27.3584C50.8017 27.6489 50.4546 27.2131 50.2067 26.1962C49.7108 23.6538 46.1405 16.3172 42.4711 10.2155C40.6364 7.16467 39.0992 3.96857 39.0992 3.09689C39.0992 2.07993 38.8513 1.71674 38.2562 1.86203C37.7604 2.00729 37.4133 2.73367 37.4629 3.46008C37.5124 4.33176 37.2645 4.54968 36.7191 4.18646C36.2232 3.96857 35.3306 3.53271 34.6364 3.31479C33.9422 3.16953 33.1488 2.66104 32.8513 2.37048C32.5538 2.00729 31.3141 1.93466 30.0744 2.15259C28.2893 2.51578 27.7934 2.37048 27.5455 1.42618C27.1488 -0.0992432 26.6033 -0.0266113 25.0662 1.71674ZM16.2893 23.5811C16.2893 23.9443 16.091 24.2349 15.7934 24.2349C15.5455 24.2349 15.2976 23.7264 15.2976 23.0727C15.2976 22.4915 15.5455 22.201 15.7934 22.4189C16.091 22.6368 16.2893 23.1453 16.2893 23.5811ZM14.8017 51.2567C14.5538 59.0291 15.0992 85.8329 15.5951 91.063C16.2397 97.3826 16.2397 97.6005 15.4959 97.6005C15.0992 97.6005 14.7521 96.8741 14.7521 95.9298C14.7025 95.0581 14.6529 92.2252 14.5538 89.6102C14.5042 86.9952 14.3058 78.3511 14.0579 70.3608C13.6612 55.0339 13.6116 53.1453 13.81 46.7531L13.9091 42.7579L14.405 46.0267C14.6529 47.8426 14.8513 50.1671 14.8017 51.2567ZM16.9339 105.591C17.0827 106.39 16.9835 107.044 16.7356 107.044C16.4876 107.044 16.2893 106.39 16.2893 105.591C16.2893 104.792 16.3885 104.138 16.4876 104.138C16.5868 104.138 16.7852 104.792 16.9339 105.591ZM17.7273 111.039C17.7273 111.402 17.529 111.257 17.281 110.676C17.0331 110.094 16.8348 109.077 16.8348 108.496C16.8348 107.334 17.6777 109.659 17.7273 111.039ZM29.1819 135.809C29.1819 135.954 28.7356 135.809 28.1901 135.373C27.6447 134.937 27.1984 134.429 27.1984 134.211C27.1984 134.065 27.6447 134.211 28.1901 134.647C28.7356 135.082 29.1819 135.591 29.1819 135.809ZM49.3637 227.77C49.2645 228.714 49.1653 227.988 49.1653 226.172C49.1653 224.356 49.2645 223.63 49.3637 224.501C49.4629 225.446 49.4629 226.898 49.3637 227.77ZM48.8678 245.93C48.7191 246.511 48.5703 246.293 48.5703 245.494C48.5207 244.695 48.6695 244.259 48.8182 244.55C48.967 244.768 49.0166 245.421 48.8678 245.93ZM49.5124 253.048L49.1653 259.223L49.1157 253.339C49.0662 250.143 49.1653 247.237 49.3637 247.019C49.8596 246.22 49.8596 246.511 49.5124 253.048ZM48.8678 265.542C48.7191 266.051 48.6199 265.688 48.6199 264.671C48.6199 263.654 48.7191 263.291 48.8678 263.726C48.967 264.235 48.967 265.107 48.8678 265.542Z" fill="black"/>
<path d="M3.39673 1.93457C3.39673 2.66096 3.79342 3.16943 4.28929 3.16943C4.73557 3.16943 4.93392 2.87888 4.6364 2.58832C4.38846 2.29776 3.99177 1.78929 3.79342 1.42609C3.54549 1.0629 3.39673 1.28081 3.39673 1.93457Z" fill="black"/>
<path d="M4.38843 1.28083C4.38843 1.42611 4.73554 1.78931 5.18182 2.00723C5.57851 2.22514 5.77686 2.1525 5.6281 1.71667C5.33058 0.990277 4.38843 0.69972 4.38843 1.28083Z" fill="black"/>
<path d="M17.7769 2.44306C17.7769 4.33168 19.562 4.40432 19.8595 2.58834C20.0578 1.64403 19.8099 1.28083 18.9669 1.13556C18.0744 1.06292 17.7769 1.35347 17.7769 2.44306Z" fill="black"/>
<path d="M63.3967 3.16949C63.3967 4.04116 64.7356 4.04116 66.124 3.16949C66.9174 2.66101 66.7686 2.51574 65.281 2.51574C64.2397 2.4431 63.3967 2.73365 63.3967 3.16949Z" fill="black"/>
<path d="M43.9587 3.67791C44.2563 3.82318 44.8513 3.82318 45.1984 3.67791C45.4959 3.45999 45.248 3.31471 44.5538 3.31471C43.8596 3.31471 43.6116 3.45999 43.9587 3.67791Z" fill="black"/>
<path d="M80.8017 4.76753C77.281 7.30991 70.4876 18.3511 68.9009 24.0169C68.5537 25.3244 68.0083 26.414 67.7604 26.414C67.5124 26.414 67.3637 26.8499 67.5124 27.2857C67.6116 27.7942 67.2645 29.1743 66.719 30.2639C66.2232 31.4261 65.8761 32.4431 66.0248 32.661C66.124 32.8789 65.8265 34.6949 65.281 36.8014C63.8926 42.1041 62.8017 47.77 61.7108 55.3244C61.1653 59.029 60.3223 84.2348 60.6199 88.7385C61.0166 95.4939 61.8099 103.412 62.3554 105.591C63.248 109.223 65.0331 118.303 64.9835 118.811C64.9339 119.174 65.0827 119.392 65.281 119.392C65.529 119.392 67.1157 122.588 68.8513 126.438C70.5868 130.361 72.9174 135.01 74.1075 136.826C75.248 138.642 76.2893 140.748 76.3885 141.547C76.4876 142.346 76.8843 142.927 77.281 142.855C77.7273 142.709 78.719 143.508 79.5124 144.525C81.5951 147.14 84.0744 148.666 85.0661 148.085C85.562 147.794 87.248 147.576 88.8347 147.504C90.4215 147.504 91.8099 147.213 91.9587 146.85C92.1075 146.559 92.7521 146.269 93.3471 146.269C93.9918 146.269 94.7851 145.76 95.1323 145.179C95.4794 144.598 96.5207 143.872 97.5124 143.654C98.8017 143.291 99.0992 143 98.4546 142.709C97.6612 142.274 97.6612 142.128 98.3554 140.603C98.8017 139.731 99.3967 139.005 99.7438 139.005C100.537 139.005 105.05 131.886 105.05 130.651C105.05 130.07 105.298 129.562 105.545 129.562C105.843 129.562 106.041 128.981 106.041 128.327C106.041 127.673 106.934 124.477 107.975 121.281C109.909 115.542 111.446 109.586 111.793 106.68C111.942 105.518 113.331 96.293 113.43 95.5666C113.479 95.4939 113.479 94.4043 113.479 93.2421C113.479 91.9346 113.876 90.5545 114.471 89.8281C115.017 89.1017 115.264 88.3026 115.017 87.8668C114.769 87.431 114.471 83.2905 114.273 78.7143C114.074 74.138 113.727 68.908 113.479 67.092C112.835 62.3704 112.835 62.0799 114.025 62.5157C114.868 62.8789 115.017 62.661 114.868 61.5714C114.769 60.845 114.322 60.2639 113.876 60.2639C113.033 60.4092 112.587 58.23 112.19 52.2736C112.091 50.6755 111.793 48.4237 111.545 47.1888C109.364 36.8741 108.669 34.1138 106.934 29.5375C105.893 26.7046 104.703 23.9443 104.306 23.5085C103.909 23 103.562 22.0557 103.562 21.4019C103.562 20.7482 103.116 19.6586 102.57 18.9322C102.025 18.2784 101.579 17.2615 101.579 16.6804C101.579 15.4455 100.388 13.9201 99.9422 14.5738C99.7438 14.7917 99.843 15.4455 100.141 16.0266C100.587 16.6804 100.537 16.9709 100.141 16.9709C99.843 16.9709 99.5951 16.753 99.5455 16.3898C99.3967 14.4285 99.0992 13.339 98.2066 12.0314C97.562 11.0871 97.1157 10.8692 96.967 11.3777C96.8678 11.8135 96.4711 11.1598 96.0248 9.92491C95.3802 8.0363 95.3802 7.52782 95.9256 6.65614C96.8678 5.34865 96.0744 3.82321 94.686 4.40433C93.9918 4.69489 93.7934 4.98544 94.1405 5.34865C94.438 5.63921 94.7356 6.29295 94.7851 6.87407C94.8843 7.45518 95.0827 8.32686 95.3306 8.83533C95.6777 9.707 95.5289 9.707 94.686 8.98061C94.0909 8.54477 93.4463 7.6731 93.2975 7.09198C93.1488 6.51086 92.7025 6.07504 92.3554 6.07504C91.9587 6.07504 91.1157 5.56656 90.4711 4.98544C88.7356 3.31474 82.9339 3.16946 80.8017 4.76753ZM86.3554 10.724C86.2066 11.1598 86.3058 11.1598 86.7521 10.5787C87.843 9.12589 91.0661 9.48907 91.6612 11.1598C91.9587 11.9588 92.5042 12.6126 92.8513 12.6126C94.0909 12.6126 98.0083 19.6586 99.7438 25.0339C101.876 31.5714 102.967 37.6005 103.314 44.7191C103.463 47.6247 103.86 51.6925 104.157 53.799C104.504 56.3414 104.603 63.3874 104.405 75.5908C103.909 102.54 103.512 109.731 101.826 118.811C100.587 125.712 97.8595 134.646 97.0166 134.646C96.7686 134.646 96.6694 134.937 96.8182 135.3C96.967 135.591 96.5703 136.535 95.9752 137.334C91.1157 143.654 86.5537 143.218 81.6942 135.881C79.6612 132.83 75.2975 123.533 75.2975 122.298C75.2975 121.935 74.8513 120.554 74.3058 119.174C73.7604 117.794 73.2149 115.615 73.1653 114.38C73.1157 113.145 72.7686 111.983 72.3719 111.765C72.0248 111.547 71.8761 110.893 72.0248 110.24C72.1736 109.659 72.124 109.368 71.8265 109.586C71.529 109.804 71.281 109.513 71.281 108.932C71.1818 107.189 71.0827 106.753 70.686 105.809C70.4876 105.373 70.4876 104.501 70.6364 103.92C70.7851 103.266 70.6364 102.031 70.2893 101.16C69.9422 100.215 69.8926 99.4164 70.1901 99.2712C70.8347 98.908 70.3389 93.8959 69.5951 92.7336C69.248 92.2252 69.0496 91.1356 69.1984 90.3365C69.3471 89.5375 69.248 88.4479 68.9504 87.9394C68.6529 87.431 68.6033 86.6319 68.8513 85.9782C69.0496 85.4697 69.0992 84.3075 68.8513 83.4358C68.6529 82.6368 68.6033 80.5302 68.8513 78.8595C69.0496 77.1888 69 75.8087 68.8017 75.8087C68.2066 75.8087 68.2562 73.121 68.8017 72.6126C69.0496 72.322 69.1488 72.9031 69 73.7748C68.8017 75.2276 68.8513 75.3002 69.3471 74.2106C69.6942 73.339 69.7438 72.4673 69.3967 71.5956C69.1488 70.8692 69.0992 69.8523 69.2975 69.3438C69.843 68.1089 69.9422 62.7336 69.3967 62.7336C68.8513 62.7336 69.3471 58.8838 69.9918 58.23C70.3389 57.9394 70.2893 57.3583 69.8926 56.6319C69.3967 55.7603 69.3967 55.4697 69.7934 55.4697C70.1405 55.4697 70.2397 55.1065 70.0413 54.6707C69.8926 54.2348 69.9918 53.6537 70.2893 53.3632C70.5868 53.0726 70.8843 51.5472 70.9339 49.9491C70.9835 48.4237 71.2314 46.8983 71.529 46.6077C71.8761 46.2445 71.7273 46.0266 71.2314 46.0266C70.5372 46.0266 70.3389 45.3729 70.3389 43.1937C70.3389 41.5956 70.5868 40.0702 70.8347 39.8523C71.1323 39.6344 71.3306 38.5448 71.3306 37.4552C71.3306 35.4213 72.8678 30.5545 74.1075 28.8111C74.5042 28.23 74.8513 27.2131 74.8513 26.5593C75.0496 22.9273 76.1901 19.4407 77.5289 18.569C78.8678 17.6973 79.2645 16.0266 78.0248 16.6804C77.4794 17.0436 77.3802 16.8256 77.5785 15.954C77.7273 15.3002 78.0744 15.0097 78.3223 15.2276C78.5703 15.4455 78.7686 15.1549 78.7686 14.5738C78.7686 13.9927 79.3141 12.9758 80.0083 12.322C81.3967 11.0145 81.9422 10.7966 81.4959 11.8862C81.3471 12.2494 81.4463 12.6126 81.6942 12.6126C81.9918 12.6126 82.2397 12.2494 82.2397 11.7409C82.2397 11.0871 82.3885 11.0871 82.7851 11.6683C83.4298 12.6126 84.719 12.1041 84.719 11.0145C84.719 10.5787 84.3719 10.4334 83.9752 10.6513C83.5785 10.9419 83.1323 10.7966 83.0331 10.506C82.5868 9.48907 83.1323 9.27116 84.967 9.56172C86.0579 9.77963 86.6033 10.1428 86.3554 10.724ZM70.0413 51.5472C70.1901 52.1283 70.1405 52.4189 69.843 52.2009C69.5455 51.983 69.3471 51.4745 69.3471 51.0387C69.3471 50.0218 69.6942 50.2397 70.0413 51.5472Z" fill="black"/>
<path d="M110.752 5.05807C110.058 5.78445 110.008 6.07501 110.554 6.07501C112.091 6.14764 113.975 9.56171 114.074 12.3946L114.124 15.1549L114.322 12.6125C114.57 9.48904 115.066 8.69003 116.355 9.27115C117.645 9.9249 118.438 14.7191 118.488 22.0556C118.488 25.0338 118.537 29.4648 118.587 31.8619C118.636 34.259 118.587 50.2397 118.537 67.4552C118.438 84.598 118.388 99.9975 118.438 101.596C118.488 103.194 118.488 109.876 118.488 116.487C118.438 135.663 117.05 141.184 112.587 140.167C109.116 139.368 103.264 139.077 102.62 139.731C100.636 141.475 104.851 144.598 108.719 144.162C110.554 143.944 110.603 144.017 110.306 145.688C110.107 146.559 108.967 154.695 107.727 163.702C106.537 172.709 105.198 181.499 104.802 183.315C104.157 186.22 103.612 189.707 102.769 196.753C102.62 197.915 101.975 202.709 101.281 207.286C98.9504 222.83 97.562 232.346 96.5207 240.482C95.6281 247.455 95.3306 248.617 94.4876 248.835C93.1488 249.126 92.8017 250.869 93.9917 251.305C94.8347 251.668 94.8843 252.177 94.6364 255.082C94.4876 256.971 94.1405 259.005 93.8926 259.586C93.6446 260.167 93.3967 261.475 93.3471 262.419C92.9008 268.23 90.5703 277.165 89.8265 276.002C89.6777 275.784 88.7851 276.293 87.7934 277.019C86.4546 278.109 85.9091 278.254 85.6612 277.6C85.0165 276.148 84.6694 277.383 85.0165 279.852C85.4628 282.903 87.0992 283.484 89.4298 281.378C90.6198 280.288 91.5124 279.998 92.2562 280.361C94.438 281.378 100.537 281.232 101.132 280.215C101.43 279.634 101.975 279.199 102.372 279.199C102.719 279.199 103.165 278.835 103.364 278.399C103.562 277.818 103.364 277.746 102.62 278.109C101.777 278.472 101.579 278.254 101.579 277.092C101.579 276.22 101.281 275.567 100.884 275.567C99.9422 275.567 99.595 273.968 99.595 269.61C99.595 266.269 100.835 254.719 101.479 252.322C101.628 251.741 101.826 250.433 101.876 249.416C101.975 248.399 102.273 246.148 102.521 244.332C102.769 242.516 103.364 238.085 103.81 234.525C105.05 224.429 104.702 225.228 108.223 225.736C109.86 226.027 113.777 226.245 116.851 226.317C119.876 226.317 122.405 226.462 122.405 226.535C122.405 227.044 125.033 249.489 125.628 253.775C126.074 257.116 126.273 262.637 126.223 267.939C126.124 275.93 126.025 276.656 125.182 276.656C124.686 276.656 124.091 277.383 123.843 278.254C123.347 280.215 124.438 280.942 126.62 280.07C127.463 279.78 128.653 279.562 129.347 279.707C130.041 279.78 132.372 280.07 134.554 280.361C136.736 280.651 138.769 281.16 139.066 281.523C139.413 281.886 140.306 281.959 141.05 281.668C143.678 280.869 154.587 280.288 163.81 280.579C165 280.651 165.545 280.942 165.198 281.232C164.702 281.741 164.702 282.104 165.198 283.121C165.744 284.211 166.041 284.356 166.934 283.629C167.876 282.903 170.405 282.54 172.488 282.83C174.372 283.121 177.446 282.54 176.851 282.031C176.058 281.305 176.256 281.087 178.934 280.143C180.174 279.707 182.207 278.835 183.545 278.182C185.777 277.165 185.876 277.165 185.876 278.472C185.876 279.416 186.223 279.925 186.868 279.925C187.959 279.925 188.207 278.545 187.314 277.237C186.917 276.656 187.215 276.002 188.355 274.768C190.438 272.443 194.058 264.235 194.504 260.821C194.702 259.295 194.851 253.557 194.851 248.109C194.851 241.063 195 238.521 195.347 239.247C195.744 240.119 195.843 239.901 195.645 238.521C195.496 237.504 195.149 234.38 194.802 231.62C193.165 217.165 188.405 204.889 183.248 201.62C181.81 200.748 181.81 200.675 182.702 199.731C183.198 199.15 183.793 198.86 184.041 199.077C184.24 199.223 184.785 199.005 185.231 198.424C185.926 197.625 186.074 197.625 186.273 198.424C186.818 200.893 191.331 191.959 191.579 188.036C191.628 187.237 191.826 183.968 192.025 180.772C192.521 173.363 191.083 163.557 188.851 158.763C188.008 157.092 187.364 155.421 187.364 155.131C187.364 154.332 183.149 147.722 182.653 147.722C182.405 147.722 181.76 147.068 181.215 146.341C180.62 145.615 179.182 144.453 177.942 143.799L175.711 142.709L177.397 142.637C180.273 142.637 178.785 141.91 175.165 141.62C170.752 141.257 170.95 141.329 171.05 140.24C171.198 138.569 171 137.552 170.504 137.552C170.256 137.552 170.008 138.06 170.008 138.642C170.008 140.094 169.364 140.022 168.372 138.424C166.587 135.518 165.595 119.901 165.298 90.3365C165.248 82.5641 164.256 77.0435 162.174 72.1041C160.488 68.2542 156.322 62.0072 154.488 60.6271C152.752 59.3196 152.802 58.9564 154.785 57.5762C163.959 51.1113 165.298 49.368 167.38 41.9588C168.025 39.6343 168.917 37.3099 169.314 36.8014C169.81 36.2929 170.008 35.4213 169.81 34.6949C169.612 34.0411 169.364 33.6779 169.165 33.9685C168.967 34.259 168.521 32.7336 168.174 30.6271C167.777 28.5205 166.686 25.0338 165.694 22.9273C163.76 18.8595 157.264 9.70697 156.273 9.70697C155.926 9.70697 155.43 9.12585 155.182 8.32684C154.736 7.16461 153.248 6.36557 150.174 5.63919C149.777 5.56653 148.884 5.20334 148.19 4.91278C147.496 4.69485 146.504 4.47696 145.959 4.47696C135.496 4.69485 133.264 4.69485 132.868 4.33167C132.62 4.04111 132.124 4.33167 131.727 4.84015C131.38 5.34863 130.438 5.71182 129.645 5.71182C128.851 5.63919 127.562 6.00238 126.769 6.5835C125.975 7.23724 124.983 7.45517 124.488 7.09195C124.041 6.80139 123.496 6.51083 123.298 6.4382C123.05 6.29294 122.752 6.14764 122.554 6.07501C121.959 5.78445 121.463 5.63919 118.19 5.05807C112.24 4.11374 111.694 4.11374 110.752 5.05807ZM142.141 10.0702C143.529 10.2881 145.512 10.9418 146.504 11.5229C147.496 12.1041 148.835 12.6125 149.479 12.6125C152.702 12.6125 158.603 26.9951 159 35.7845C159.198 39.8522 159.149 40.3607 158.405 39.9975C157.81 39.6343 157.612 39.9975 157.612 41.3777C157.612 46.4624 153.397 53.2179 149.628 54.3075C146.901 55.0339 143.281 56.414 140.405 57.7941C138.223 58.8111 135.645 59.3196 131.826 59.4648L126.372 59.6101L126.273 57.3583C126.273 56.1234 126.124 54.0895 126.074 52.9273C125.727 48.2058 125.777 16.4624 126.074 13.5569C126.372 11.1598 126.719 10.3607 127.76 9.7796C129 9.12585 135.149 9.27115 142.141 10.0702ZM147.793 63.6779C148.983 64.6949 150.57 66.3656 151.314 67.4552C152.554 69.3438 155.083 76.0266 155.331 78.1331C155.38 78.6416 155.579 79.5133 155.826 80.0217C156.669 81.983 157.017 97.4552 156.669 115.106C156.471 125.349 157.463 130.797 160.289 134.937C161.43 136.608 162.769 138.351 163.314 138.787C164.157 139.586 163.612 139.659 160.19 139.368C157.909 139.15 155.678 138.714 155.231 138.424C154.785 138.133 153.298 137.915 151.909 138.06C150.57 138.133 148.388 138.278 147.099 138.351C145.76 138.424 144.719 138.714 144.719 139.077C144.719 139.368 144.223 139.586 143.628 139.586C139.959 139.295 137.826 139.804 137.678 140.966C137.479 142.419 140.455 144.961 141.595 144.307C141.942 144.09 142.934 144.307 143.727 144.816C144.967 145.542 145.264 146.341 145.909 150.482C146.306 153.169 146.702 156.801 146.752 158.617C146.901 164.937 146.107 190.288 145.661 193.339C145.264 196.027 145.116 244.695 145.463 258.133C145.512 260.748 145.661 264.816 145.711 267.213C145.909 274.768 145.81 275.349 144.471 275.857C143.777 276.148 142.785 276.002 142.24 275.567C141.446 274.913 141.149 274.985 140.95 275.93C140.802 276.511 140.455 277.019 140.207 277.019C138.917 277.019 137.926 272.152 135.496 253.484C135.099 250.361 133.959 244.186 132.967 239.683C131.331 232.128 130.388 226.245 129.645 219.271C128.95 212.879 128.256 207.794 127.86 206.196C127.612 205.324 127.165 201.983 126.868 198.86C126.174 191.741 125.926 189.416 123.744 170.966C122.802 162.758 121.86 154.913 121.711 153.533C121.562 152.152 121.215 149.828 120.917 148.448C120.174 144.743 120.273 144.307 121.81 143.872C122.554 143.581 123.893 142.419 124.785 141.184C126.174 139.223 126.372 138.424 126.372 135.3C126.372 133.339 126.57 131.741 126.818 131.741C127.066 131.741 127.066 130.361 126.818 128.545C126.273 124.041 125.876 86.3414 126.273 73.6295L126.62 63.0968L132.372 63.0242C135.545 62.9515 138.521 62.5883 138.917 62.2978C139.364 61.9346 141.05 61.7167 142.686 61.7167C144.917 61.7893 146.207 62.2978 147.793 63.6779ZM164.702 124.114C164.95 126.148 164.901 126.583 164.554 125.567C164.157 124.186 163.86 120.264 164.256 120.918C164.355 121.063 164.554 122.516 164.702 124.114ZM162.917 143.799C166.141 144.09 168.967 144.525 169.264 144.889C169.512 145.252 170.702 145.542 171.992 145.542C173.231 145.542 175.017 145.978 176.008 146.487C178.24 147.576 181.413 151.063 181.413 152.37C181.413 152.952 182.008 154.913 182.752 156.801C185.331 163.557 184.736 176.414 181.364 187.31C180.57 189.852 179.479 192.613 178.884 193.412C177.694 195.01 173.182 197.407 172.488 196.753C172.24 196.535 171.198 196.608 170.207 197.044C168.719 197.625 168.521 197.625 169.017 196.753C169.512 195.881 169.463 195.591 168.818 195.228C167.826 194.646 167.281 195.3 167.281 196.971C167.281 197.915 166.736 198.278 164.851 198.424C162.868 198.642 162.322 198.424 161.727 197.116L160.983 195.591L159.893 197.044C159.198 197.988 158.455 198.351 157.76 198.133C157.215 197.915 156.223 198.133 155.579 198.569L154.488 199.441L154.785 177.504C154.934 165.445 154.835 153.678 154.587 151.426C154.339 149.174 154.091 146.705 154.041 145.978C153.893 144.525 155.926 142.346 156.719 143.073C156.917 143.291 159.694 143.581 162.917 143.799ZM115.661 177.722C115.86 179.392 116.306 182.37 116.702 184.404C117.744 189.852 119.331 201.039 120.124 208.375C120.521 211.935 120.967 215.421 121.066 216.002C121.215 216.583 121.463 218.036 121.612 219.126L121.959 221.16L113.727 221.014C109.215 220.942 105.545 220.724 105.545 220.579C105.545 220.433 105.744 219.78 105.992 219.053C106.537 217.528 107.826 209.683 109.066 200.821C109.612 197.116 110.157 193.702 110.306 193.339C110.504 192.903 110.752 191.45 110.851 189.998C111 188.545 111.545 185.421 112.041 183.097C112.537 180.7 112.983 178.157 112.983 177.358C112.983 176.559 113.231 175.324 113.529 174.525C114.273 172.419 115.264 173.872 115.661 177.722ZM188.603 194.211C188.107 195.01 187.612 195.518 187.463 195.3C187.314 195.082 187.612 194.283 188.107 193.484C188.603 192.685 189.099 192.177 189.248 192.395C189.397 192.613 189.099 193.412 188.603 194.211ZM170.504 202.491C170.901 203 172.488 204.235 174.025 205.252C178.884 208.593 184.141 218.981 185.182 227.479C185.38 228.932 185.727 230.748 185.975 231.547C186.669 233.436 187.661 243.46 187.463 246.656C187.364 248.545 187.066 249.416 186.521 249.416C185.975 249.416 185.826 249.852 186.124 251.014C186.917 254.864 186.372 258.86 184.636 262.201C183.893 263.581 183.446 265.106 183.545 265.615C183.694 266.123 183.843 265.978 183.843 265.324C183.893 264.671 184.24 263.944 184.636 263.654C185.529 263.145 185.579 263.872 184.686 265.542C184.339 266.269 183.645 266.85 183.198 266.85C182.702 266.85 182.504 267.14 182.653 267.576C182.802 267.939 182.603 268.303 182.207 268.303C181.81 268.303 181.264 268.738 181.066 269.32C180.868 269.828 178.884 271.571 176.702 273.097L172.736 275.93L166.041 276.002C162.372 276.075 158.256 275.857 156.917 275.639L154.537 275.203L154.438 239.029C154.388 219.126 154.488 202.564 154.636 202.201C155.281 200.748 169.264 200.966 170.504 202.491ZM190.736 218.545C191.628 221.087 192.322 223.993 192.322 225.01C192.322 226.027 192.57 226.898 192.818 226.898C193.116 226.898 193.314 227.189 193.314 227.625C193.314 230.385 190.388 222.903 190.041 219.053C189.992 218.545 189.496 217.019 188.95 215.639C188.355 214.186 188.157 213.315 188.554 213.533C188.901 213.751 189.893 216.002 190.736 218.545ZM193.76 233.436L193.711 235.252L193.314 233.436C193.116 232.419 192.917 231.111 192.868 230.53C192.818 229.586 192.868 229.586 193.314 230.53C193.562 231.111 193.76 232.419 193.76 233.436Z" fill="black"/>
<path d="M162.818 6.07501C164.207 6.94668 165.645 6.94668 165.298 6.07501C165.149 5.63917 164.256 5.34861 163.413 5.42125C162.074 5.42125 161.975 5.56653 162.818 6.07501Z" fill="black"/>
<path d="M169.116 6.65607C167.479 7.16455 167.281 7.6004 167.727 9.92484C167.926 11.0144 168.273 11.2324 169.512 10.7965C170.802 10.3607 171.248 10.6512 172.587 12.7578C174.174 15.2275 175.264 18.2784 175.661 21.5471C175.76 22.6367 176.058 23.8716 176.207 24.3074C176.603 25.1791 177.248 32.8788 177.992 46.0265C178.289 51.0387 178.934 60.9902 179.529 68.1815C180.074 75.3728 180.62 82.8546 180.769 84.8885C180.868 86.8498 181.413 91.5713 181.959 95.4212C182.504 99.1985 183.397 105.881 183.942 110.312C184.488 114.671 185.38 120.409 185.926 123.024C186.422 125.639 186.967 129.053 187.165 130.651C187.314 132.249 187.81 135.445 188.207 137.77C188.851 141.039 189.248 142.056 190.141 142.346C190.785 142.564 191.331 143.145 191.331 143.508C191.331 143.944 192.124 144.089 193.066 143.944C194.703 143.654 194.802 143.799 194.802 145.905C194.802 147.431 194.95 147.794 195.248 147.068C195.496 146.559 196.537 145.978 197.628 145.905C200.107 145.688 201.545 144.307 202.091 141.62L202.537 139.441L203.331 141.838L204.124 144.307L208.884 144.162L213.645 144.017L212.752 146.414C212.306 147.721 211.711 148.956 211.463 149.102C211.264 149.247 210.57 150.191 209.975 151.208C209.43 152.225 208.438 153.678 207.843 154.477C207.198 155.349 206.703 156.511 206.703 157.165C206.703 157.818 206.157 159.344 205.512 160.433C203.826 163.266 203.231 169.223 203.182 183.097C203.182 192.322 203.331 195.373 204.025 197.77C204.471 199.368 205.066 200.748 205.413 200.748C205.711 200.748 206.901 202.056 208.091 203.654C210.967 207.576 213.694 210.191 214.884 210.191C216.273 210.191 219.397 211.862 220.438 213.169C221.975 215.131 225.545 217.528 225.545 216.583C225.545 216.148 226.091 216.656 226.736 217.673C227.529 218.908 228.025 219.271 228.174 218.69C228.322 218.182 228.471 218.327 228.471 219.053C228.521 219.707 228.769 220.506 229.116 220.797C229.463 221.087 229.512 221.014 229.314 220.506C229.116 219.997 229.215 219.634 229.463 219.634C229.76 219.634 230.008 220.215 230.008 220.942C230.008 221.741 230.703 222.758 231.694 223.484C233.132 224.428 233.529 225.3 234.223 228.714C235.86 236.995 236.355 247.528 235.264 251.232L234.818 252.685L235.612 251.232C236.058 250.433 236.455 249.126 236.504 248.327C236.504 247.528 236.703 247.964 236.95 249.344C237.347 251.959 235.364 267.068 234.422 268.738C234.174 269.247 233.826 270.336 233.727 271.208C233.479 273.169 232.041 275.712 231.446 275.131C231.248 274.985 230.653 275.131 230.157 275.494C227.43 277.746 221.579 277.528 221.579 275.203C221.579 274.622 221.231 274.114 220.835 274.114C220.438 274.114 219.149 272.588 218.008 270.772C215.876 267.431 213.545 259.876 212.95 254.428C212.554 250.797 212.504 233.363 212.901 230.312C213.248 227.697 214.537 226.244 215.628 227.261C216.074 227.697 217.612 226.099 217.612 225.228C217.612 225.01 217.066 224.646 216.372 224.428C215.678 224.138 215.132 223.702 215.132 223.339C215.132 223.048 214.141 222.976 212.95 223.266C211.711 223.557 209.579 223.484 208.091 223.121C206.653 222.83 205.116 222.54 204.719 222.54C204.322 222.612 202.884 222.612 201.595 222.612L199.215 222.685L199.562 224.937C200.058 228.569 200.752 230.094 201.397 229.15C201.694 228.714 202.19 228.351 202.537 228.351C203.132 228.351 204.074 232.709 204.422 237.431C204.57 239.029 204.818 242.08 205.017 244.186C205.264 246.874 205.165 248.617 204.669 249.852C204.273 251.087 204.174 251.886 204.521 252.177C204.818 252.467 205.314 254.646 205.661 257.043C206.008 259.441 206.851 262.637 207.545 264.235C208.24 265.76 208.835 267.794 208.934 268.666C208.983 269.537 210.422 272.298 212.157 274.695L215.331 279.126L212.107 279.634C210.372 279.997 208.587 280.143 208.19 279.997C207.595 279.852 207.595 279.997 208.041 280.724C208.488 281.378 209.529 281.45 212.455 280.942L216.223 280.215L217.264 282.249C218.157 283.993 218.653 284.283 220.587 284.283C221.826 284.283 224.107 283.775 225.645 283.194C227.182 282.613 229.165 282.322 230.107 282.54C233.579 283.266 236.355 283.412 237 282.758C237.446 282.322 237.05 282.104 235.661 282.104C234.57 282.104 233.529 281.886 233.331 281.668C232.785 280.869 235.165 276.511 236.851 275.131C239.628 272.951 244.785 265.034 245.975 261.257C248.157 254.138 247.066 235.252 244.141 229.077C243.347 227.407 242.703 225.3 242.653 224.428C242.653 223.484 242.306 222.83 241.661 222.685C241.116 222.612 239.826 220.651 238.736 218.472C237.694 216.293 236.256 214.114 235.512 213.751C234.818 213.315 233.678 212.225 232.983 211.281C232.289 210.409 231.198 209.392 230.504 209.102C229.81 208.738 228.422 207.794 227.43 206.85C226.438 205.905 225.298 205.324 224.901 205.542C224.504 205.76 223.165 204.889 221.876 203.654C220.636 202.419 219.397 201.547 219.198 201.765C218.207 202.637 214.141 194.356 214.141 191.45C214.141 190.506 213.645 188.254 213.05 186.366C212.107 183.387 211.959 181.717 211.959 172.782C211.959 161.305 212.554 157.237 214.537 154.622C216.57 152.007 219.545 149.174 220.339 149.174C220.686 149.174 221.083 148.884 221.182 148.448C221.479 147.068 223.86 147.213 225.793 148.811C229.959 152.225 230.95 153.315 232.736 156.801C235.264 161.596 236.95 169.659 236.901 176.777C236.851 179.755 236.901 184.114 236.95 186.511C237 190.361 236.851 191.16 235.215 194.646C234.174 196.826 233.083 198.569 232.785 198.569C232.488 198.642 233.033 199.15 233.975 199.731C235.215 200.53 236.008 200.603 236.95 200.022C238.686 199.005 245.777 199.295 247.76 200.458C249.347 201.402 249.397 201.402 249.099 199.949C248.901 199.15 249.05 198.06 249.347 197.479C250.041 196.244 249.248 194.211 248.058 194.211C247.711 194.211 246.967 193.266 246.422 192.177C245.579 190.433 245.38 188.472 245.132 178.884C244.636 163.339 243.298 156.947 238.983 150.409C236.504 146.559 234.62 144.816 232.983 144.816C232.438 144.816 231.992 144.453 231.992 144.017C231.992 143.654 231.793 143.436 231.545 143.654C231.298 143.872 230.107 143.29 228.868 142.274C227.628 141.329 226.537 140.893 226.438 141.257C226.19 142.274 224.554 141.257 224.554 140.094C224.554 139.513 224.306 138.859 224.008 138.569C223.661 138.278 223.562 138.569 223.76 139.513C224.107 141.184 223.017 141.765 218.355 142.419C211.215 143.436 206.058 142.855 203.777 140.675C203.331 140.24 203.281 136.027 203.727 136.462C204.223 136.898 204.322 135.809 204.471 129.416C204.471 127.964 204.769 126.002 205.066 125.058C206.008 122.225 206.703 117.576 206.703 114.38C206.703 112.637 206.95 111.402 207.248 111.402C207.645 111.402 207.645 111.039 207.198 110.312C206.752 109.513 206.752 109.223 207.149 109.223C207.496 109.223 207.694 108.206 207.645 106.826C207.595 105.591 207.793 103.121 208.141 101.523C208.438 99.8522 208.587 98.0362 208.438 97.4551C208.289 96.874 208.488 95.4939 208.835 94.4043C209.331 93.0968 209.43 91.644 209.182 90.1185C208.785 87.2856 209.132 82.2009 209.727 82.782C209.975 82.9999 210.174 82.6367 210.174 82.0556C210.174 81.4018 209.876 80.8934 209.579 80.8934C209.083 80.8934 209.083 80.7481 209.529 80.3123C209.876 79.9491 210.273 77.9152 210.422 75.736C210.57 73.5568 210.769 71.0144 210.917 69.9975C211.066 69.0532 211.264 66.075 211.413 63.46C211.612 60.8449 212.058 55.3244 212.455 51.1113C212.901 46.8982 213.397 41.5229 213.595 39.1258C213.843 36.7287 214.388 32.2977 214.835 29.3195C215.281 26.3413 215.876 22.2009 216.174 20.2396C216.868 15.5181 218.058 11.7408 218.653 12.3219C218.901 12.5399 219.496 12.3219 219.893 11.8135C220.537 11.0871 220.736 11.0871 221.083 11.9587C221.43 12.7578 221.678 12.7578 222.174 12.0314C222.471 11.5956 223.165 11.1597 223.612 11.1597C224.851 11.1597 225.248 9.8522 224.504 8.54471C223.909 7.52774 223.81 7.52774 223.215 8.68997C222.669 9.8522 222.372 9.8522 221.579 9.12582C221.033 8.68997 220.091 8.25415 219.446 8.25415C218.802 8.25415 218.107 7.96359 217.81 7.52774C217.562 7.16455 216.273 6.80136 215.033 6.72873C211.81 6.5108 210.372 8.10886 209.43 12.7578C208.835 15.736 206.207 33.7505 206.207 34.9127C206.207 35.058 205.909 35.1307 205.512 35.1307C204.322 35.1307 204.074 36.5108 205.116 37.1646C206.008 37.673 206.008 37.8909 204.967 47.4793C204.322 52.8546 203.479 60.8449 202.983 65.2759C202.537 69.6343 201.496 77.334 200.703 82.3461C198.471 96.2929 197.38 104.719 196.488 115.034C196.388 116.414 196.041 118.52 195.694 119.61C195 122.225 194.752 121.499 193.612 114.307C193.116 111.329 192.521 107.697 192.322 106.317C192.074 104.937 191.331 98.3994 190.636 91.7892C189.942 85.1791 189.298 79.0047 189.149 77.9878C189 76.9709 188.653 72.903 188.355 68.9079C188.058 64.9127 187.562 60.0459 187.264 58.012C186.917 55.8328 186.917 54.3801 187.215 54.2348C187.512 54.0895 187.413 51.0387 187.066 46.1718C186.223 36.2202 186.223 36.7287 187.165 36.874C188.504 37.0193 188.554 35.2033 187.264 34.4769C186.174 33.8958 185.975 33.0241 184.983 23.4357C184.24 16.7529 183.496 12.0314 182.752 10.1428C182.157 8.47205 181.661 7.09192 181.612 6.94662C181.463 6.5108 170.603 6.29288 169.116 6.65607ZM184.736 34.5495C184.636 35.4939 184.537 34.7675 184.537 32.9515C184.537 31.1355 184.636 30.4091 184.736 31.2808C184.835 32.2251 184.835 33.6779 184.736 34.5495ZM185.38 40.9418C185.38 41.305 185.281 41.6682 185.182 41.6682C185.033 41.6682 184.785 41.305 184.636 40.9418C184.488 40.506 184.587 40.2154 184.835 40.2154C185.132 40.2154 185.38 40.506 185.38 40.9418ZM185.727 46.8982C185.579 47.4067 185.479 47.0435 185.479 46.0265C185.479 45.0096 185.579 44.6464 185.727 45.0822C185.826 45.5907 185.826 46.4624 185.727 46.8982ZM209.876 67.9636C209.529 70.8692 209.331 73.8474 209.479 74.5738C209.628 75.3001 209.529 76.2445 209.281 76.7529C209.033 77.2614 208.686 79.2953 208.488 81.4018C208.339 83.4357 208.091 85.5423 207.942 86.1234C207.694 86.9951 207.248 92.6609 207.099 97.2372C207.05 98.3994 206.802 99.6343 206.603 99.8522C206.405 100.07 206.107 102.467 205.959 105.3C205.81 108.06 205.512 111.257 205.264 112.491L204.818 114.671L204.769 112.491C204.719 110.312 205.512 98.9079 205.86 96.874C205.959 96.2929 206.207 94.1137 206.405 92.1525C206.603 90.1185 207.198 85.5423 207.694 81.983C208.19 78.351 208.884 72.4672 209.231 68.7626C209.579 65.058 210.025 62.2251 210.174 62.3704C210.372 62.5156 210.223 65.058 209.876 67.9636ZM186.719 66.5108C186.57 67.0919 186.422 66.874 186.422 66.075C186.372 65.2759 186.521 64.8401 186.669 65.1307C186.818 65.3486 186.868 66.0023 186.719 66.5108ZM221.579 212.734C221.926 213.387 221.975 213.823 221.678 213.823C221.43 213.823 221.083 213.315 220.884 212.734C220.736 212.152 220.686 211.644 220.785 211.644C220.884 211.644 221.231 212.152 221.579 212.734ZM228.471 215.566C229.116 216.002 230.008 217.092 230.405 218.036C231.099 219.634 231.099 219.634 229.711 218.545C228.917 217.964 228.025 217.455 227.727 217.455C227.43 217.455 226.884 216.947 226.537 216.366C226.19 215.784 225.744 215.494 225.496 215.712C225.248 215.93 225.05 215.566 225.05 214.913C225.05 213.678 226.041 213.823 228.471 215.566ZM202.884 224.501C202.537 224.646 201.843 224.646 201.397 224.501C200.901 224.283 201.198 224.138 201.992 224.138C202.835 224.138 203.182 224.283 202.884 224.501Z" fill="black"/>
<path d="M246.124 8.83528C244.785 9.4164 243.347 10.506 243 11.2324C242.653 12.0314 242.058 12.6125 241.661 12.6125C241.017 12.6125 237.05 19.2953 236.554 21.3292C236.405 21.9103 236.008 22.9273 235.711 23.5084C235.116 24.5254 232.984 30.1912 231 35.8571C229.612 39.7796 225.546 56.8498 224.207 64.1864C223.612 67.6731 223.314 75.0823 223.661 79.8038C223.86 83.1452 223.512 88.23 223.116 87.7941C222.57 87.3583 221.876 90.0459 222.322 90.9902C222.471 91.4261 222.917 91.5714 223.265 91.3534C223.909 90.9902 224.554 93.5326 225.546 100.506C226.24 105.736 227.033 109.876 227.479 111.257C228.025 112.782 229.116 118.375 229.314 120.918C229.612 124.332 230.405 126.511 232.438 129.198C233.529 130.724 234.57 132.54 234.719 133.266C234.917 134.065 235.265 134.646 235.562 134.646C235.86 134.646 237.099 136.099 238.289 137.915C240.074 140.675 240.372 141.547 240.124 143.073C239.827 144.889 239.876 144.961 241.265 144.525C242.306 144.162 243.05 144.453 243.992 145.542C244.835 146.487 246.025 146.995 247.314 146.995C248.455 146.995 249.347 147.358 249.347 147.794C249.347 148.23 249.694 148.012 250.141 147.358C250.736 146.559 251.132 146.414 251.579 146.995C252.025 147.504 252.818 147.431 254.355 146.705C255.546 146.123 257.331 145.47 258.273 145.179C260.207 144.598 264.124 141.547 265.116 139.804C265.661 138.86 265.711 138.86 265.413 139.731C265.165 140.458 265.413 140.385 266.108 139.441C266.703 138.642 267.198 137.552 267.248 136.898C267.248 136.099 267.347 136.027 267.546 136.68C267.694 137.189 268.389 135.881 269.083 133.775C269.827 131.668 270.62 129.78 270.818 129.634C271.215 129.416 272.008 126.947 272.058 125.712C272.108 125.421 272.603 124.477 273.248 123.751C273.893 122.952 274.24 122.37 274.041 122.298C273.843 122.298 274.141 120.772 274.636 118.956C275.182 117.14 275.529 115.324 275.331 114.961C275.182 114.598 275.281 114.307 275.479 114.307C275.727 114.307 275.926 113.218 275.926 111.91C275.975 110.675 276.124 108.424 276.322 107.044C276.471 105.663 276.769 102.031 276.917 99.0532C277.066 96.075 277.413 92.6609 277.711 91.5714C278.157 89.9733 278.108 89.3195 277.612 88.8837C277.017 88.3026 277.066 84.8159 277.76 79.8038C277.909 79.0048 277.81 76.3898 277.562 73.9927C277.314 71.3777 277.364 68.3268 277.661 66.4382C277.959 64.4769 277.959 62.9515 277.661 62.443C277.413 62.0072 277.066 59.3195 276.868 56.5593C276.67 53.7263 276.223 49.6585 275.827 47.4067C275.43 45.1549 275.132 42.104 275.132 40.7239C275.132 37.3825 274.339 34.4043 273.496 34.4043C273.099 34.4043 272.058 32.2978 271.165 29.7554C269.529 24.9612 268.041 22.0556 267.198 22.0556C266.901 22.0556 266.703 21.6198 266.703 21.1113C266.703 20.5302 265.76 17.9878 264.62 15.3728C262.587 10.7965 260.355 8.32681 259.265 9.34377C258.967 9.63431 258.025 9.48904 257.132 9.05321C254.306 7.7457 248.802 7.60042 246.124 8.83528ZM248.355 12.7578C248.355 13.4842 248.504 13.4116 248.802 12.6852C249.05 12.104 249.347 12.0314 249.546 12.4672C249.694 12.9031 250.488 13.0484 251.231 12.8304C253.215 12.2493 255.793 12.5399 255.793 13.4116C255.793 13.6295 256.24 14.0653 256.785 14.2832C257.38 14.5011 257.678 14.3559 257.479 13.92C257.331 13.5568 257.827 13.7021 258.57 14.2832C260.504 15.736 265.116 23.8716 266.256 27.7941C266.802 29.4648 267.149 31.7893 267.099 32.8789C267.05 33.9685 267.149 35.2033 267.347 35.6392C267.546 36.075 267.744 38.1089 267.744 40.1428C267.793 42.1767 267.992 43.6295 268.19 43.4842C268.736 42.9757 269.083 46.4624 268.636 47.6246C268.041 49.0048 268.091 52.4188 268.736 52.9999C269.132 53.2905 269.182 52.9273 268.934 51.7651C268.686 50.6028 268.736 50.2396 269.083 50.7481C269.628 51.5471 270.372 56.9225 269.926 56.9225C269.777 56.9225 269.43 56.1961 269.182 55.2517C268.835 53.9442 268.736 54.1622 268.736 56.7045C268.686 59.029 268.884 59.828 269.43 59.828C269.827 59.828 270.174 60.3365 270.174 60.9176C270.174 61.4987 269.975 62.0072 269.678 62.0072C269.43 62.0072 269.182 63.0241 269.182 64.259C269.182 65.4939 269.38 66.2929 269.678 66.0024C269.975 65.7844 270.174 65.7118 270.174 65.9297C270.174 66.075 270.322 66.8014 270.471 67.3825C270.719 68.2542 270.57 68.4721 269.975 68.1089C269.331 67.7457 269.182 68.1089 269.182 69.8522C269.182 71.0871 269.38 72.1767 269.628 72.322C269.926 72.4672 269.926 73.8474 269.727 75.5907C269.43 77.7699 269.479 78.7142 269.876 78.7869C270.223 78.7869 270.223 78.9321 269.827 79.2227C269.331 79.4406 269.331 79.8764 269.777 80.8934C270.471 82.5641 269.827 83.8716 269.132 82.3462C268.736 81.5471 268.686 81.6198 268.934 82.8547C269.132 83.8716 269.033 84.5254 268.686 84.5254C268.389 84.5254 268.289 84.8886 268.438 85.2518C268.686 85.8329 268.984 85.7602 269.479 85.1791C270.025 84.5254 270.174 84.598 270.174 85.5423C270.174 86.1961 269.827 86.7045 269.331 86.7045C268.636 86.7045 268.636 86.9225 269.479 88.3026C269.975 89.1743 270.174 89.6827 269.876 89.3922C269.132 88.7384 268.537 95.058 268.984 98.9806C269.182 100.579 269.132 102.467 268.984 103.121C268.785 103.847 268.587 107.044 268.438 110.24C268.339 114.598 267.893 117.576 266.802 121.499C265.116 127.891 261.149 135.663 259.017 136.898C258.223 137.334 256.785 138.206 255.843 138.787C254.951 139.368 253.661 139.731 253.017 139.513C252.372 139.368 251.975 139.513 252.124 139.804C252.273 140.167 251.727 140.458 250.984 140.458C249.496 140.458 247.661 138.932 246.273 136.462C245.678 135.445 245.43 135.3 245.38 136.027C245.38 137.044 244.636 136.462 244.636 135.445C244.636 135.155 243.793 133.847 242.802 132.54C241.76 131.232 240.917 129.489 240.917 128.763C240.917 128.036 240.62 127.383 240.223 127.383C239.628 127.383 237.992 120.482 237.248 115.034C236.703 111.111 235.364 103.048 234.917 101.378C234.471 99.7796 234.322 98.1815 233.727 89.2469C233.628 87.213 233.678 83.5084 233.926 80.8934C234.174 77.7699 234.174 76.0266 233.827 75.6634C233.43 75.3728 233.479 74.5738 233.876 73.2663C234.223 72.1767 234.322 70.8692 234.074 70.1428C233.827 69.489 233.727 68.2542 233.777 67.4551C233.827 66.6561 234.025 62.3704 234.223 58.012C234.67 47.4067 236.256 34.8401 237.744 30.5544C239.231 26.0508 240.174 24.1622 240.521 24.6706C240.67 24.8885 240.967 24.6706 241.215 24.1622C241.463 23.581 241.364 23.4358 240.917 23.8716C240.074 24.6706 240.769 21.6198 242.058 18.9321C242.802 17.2614 243.149 17.0435 243.496 17.8425C243.843 18.5689 243.893 18.4963 243.694 17.4794C243.496 16.6077 243.992 15.5907 245.479 14.0653C247.711 11.6682 248.355 11.3777 248.355 12.7578ZM270.868 70.4333C271.017 71.0145 270.967 71.305 270.67 71.0871C270.372 70.8692 270.174 70.3607 270.174 69.9249C270.174 68.9079 270.521 69.1258 270.868 70.4333Z" fill="black"/>
<path d="M237.446 11.2324C237.446 11.5956 237.694 11.7409 237.942 11.523C238.24 11.3051 238.438 10.9419 238.438 10.7239C238.438 10.5787 238.24 10.4334 237.942 10.4334C237.694 10.4334 237.446 10.7966 237.446 11.2324Z" fill="black"/>
<path d="M271.859 11.4504C271.314 12.1041 271.661 12.2494 273.397 12.2494C274.636 12.2494 275.628 12.0315 275.628 11.8136C275.628 10.9419 272.603 10.6513 271.859 11.4504Z" fill="black"/>
<path d="M223.612 14.0654C223.562 14.2833 223.413 15.5908 223.314 16.8983C223.215 18.8596 223.265 19.1501 223.661 18.2058C223.909 17.4794 224.008 16.1719 223.909 15.3002C223.81 14.4286 223.661 13.8475 223.612 14.0654Z" fill="black"/>
<path d="M278.107 17.7699C278.107 18.1331 278.355 18.2784 278.603 18.0605C278.901 17.8425 279.099 17.4793 279.099 17.2614C279.099 17.1161 278.901 16.9709 278.603 16.9709C278.355 16.9709 278.107 17.3341 278.107 17.7699Z" fill="black"/>
<path d="M278.157 29.0291C278.157 29.8281 278.306 30.046 278.455 29.4649C278.603 28.9564 278.554 28.3027 278.405 28.0848C278.256 27.7942 278.107 28.23 278.157 29.0291Z" fill="black"/>
<path d="M57.1984 31.4988C57.0496 31.862 57.1488 32.879 57.4463 33.678C57.7438 34.477 57.8926 35.4213 57.7934 35.7119C57.6446 36.0025 57.7438 36.8741 57.9917 37.6732C58.3388 38.9807 58.3884 38.908 58.3388 37.31C58.3388 36.293 58.4876 34.4044 58.686 33.0969C58.9835 31.2809 58.8843 30.7724 58.2893 30.7724C57.843 30.7724 57.3471 31.063 57.1984 31.4988Z" fill="black"/>
<path d="M278.157 41.3777C278.157 42.1767 278.306 42.3946 278.455 41.8135C278.603 41.3051 278.554 40.6513 278.405 40.4334C278.256 40.1428 278.107 40.5787 278.157 41.3777Z" fill="black"/>
<path d="M278.108 56.1961C278.405 56.9952 278.703 57.6489 278.802 57.6489C278.901 57.6489 278.901 56.9952 278.752 56.1961C278.603 55.3971 278.306 54.7434 278.008 54.7434C277.76 54.7434 277.81 55.3971 278.108 56.1961Z" fill="black"/>
<path d="M278.107 59.7554C278.107 60.1912 278.355 60.6997 278.603 60.9176C278.901 61.1356 279.099 60.845 279.099 60.2639C279.099 59.6101 278.901 59.1017 278.603 59.1017C278.355 59.1017 278.107 59.3922 278.107 59.7554Z" fill="black"/>
<path d="M53.2314 90.4092C53.0331 90.845 52.9835 91.2809 53.1323 91.4988C53.2314 91.7167 53.4794 91.3535 53.6281 90.6997C53.9752 89.4649 53.6777 89.247 53.2314 90.4092Z" fill="black"/>
<path d="M54.9174 89.6101C54.7191 91.2809 54.7687 97.6005 55.0166 97.6005C55.5621 97.6005 55.9588 90.7724 55.4629 90.046C55.215 89.6828 54.967 89.4649 54.9174 89.6101Z" fill="black"/>
<path d="M279.198 96.874C279.198 97.891 279.298 98.2542 279.446 97.7457C279.545 97.3099 279.545 96.4382 279.446 95.9297C279.298 95.4939 279.198 95.8571 279.198 96.874Z" fill="black"/>
<path d="M54.5703 101.232C54.5703 102.613 54.6695 103.194 54.8182 102.467C54.9174 101.814 54.9174 100.651 54.8182 99.9249C54.6695 99.2712 54.5703 99.8523 54.5703 101.232Z" fill="black"/>
<path d="M278.157 106.753C278.157 107.552 278.306 107.77 278.455 107.189C278.603 106.68 278.554 106.027 278.405 105.809C278.256 105.518 278.107 105.954 278.157 106.753Z" fill="black"/>
<path d="M54.2728 107.479C53.8761 109.077 53.8761 109.223 54.5703 109.223C54.8678 109.223 54.967 109.005 54.8183 108.714C54.6199 108.496 54.7191 107.843 55.0166 107.262C55.3637 106.68 55.4133 106.317 55.0662 106.317C54.8183 106.317 54.4216 106.826 54.2728 107.479Z" fill="black"/>
<path d="M194.355 113.291C194.355 114.09 194.504 114.307 194.653 113.726C194.802 113.218 194.752 112.564 194.603 112.346C194.455 112.056 194.306 112.492 194.355 113.291Z" fill="black"/>
<path d="M112.984 115.034C112.984 115.905 113.331 116.487 113.777 116.487C114.521 116.487 114.57 117.286 114.273 123.169C114.074 126.874 114.074 129.707 114.223 129.416C114.669 128.763 115.413 116.632 115.116 114.961C114.769 113.073 112.984 113.145 112.984 115.034Z" fill="black"/>
<path d="M278.405 120.918C277.959 123.097 277.612 125.93 277.81 125.93C278.405 125.93 279.545 121.208 279.099 120.555C278.802 120.119 278.554 120.264 278.405 120.918Z" fill="black"/>
<path d="M168.917 123.024C168.769 124.186 168.868 125.203 169.116 125.203C169.314 125.203 169.512 124.186 169.512 123.024C169.512 121.789 169.413 120.845 169.314 120.845C169.215 120.845 169.017 121.789 168.917 123.024Z" fill="black"/>
<path d="M58.3885 127.237C58.2893 130.579 58.3389 133.484 58.5372 133.629C58.9835 134.065 59.281 126.729 58.8843 123.751C58.686 121.862 58.5372 122.806 58.3885 127.237Z" fill="black"/>
<path d="M222.868 123.533C222.471 125.712 222.62 131.015 223.066 131.015C223.314 131.015 223.463 130.433 223.463 129.707C223.463 129.053 223.612 127.092 223.81 125.349C224.058 123.315 224.008 122.298 223.661 122.298C223.364 122.298 223.017 122.879 222.868 123.533Z" fill="black"/>
<path d="M169.066 127.891C169.413 128.763 169.81 129.344 169.959 129.126C170.108 128.981 169.81 128.254 169.314 127.528C168.471 126.366 168.422 126.366 169.066 127.891Z" fill="black"/>
<path d="M1.0166 133.194C1.0166 138.06 1.11578 138.932 1.46288 137.407C1.80999 136.172 1.80999 133.993 1.51247 131.232L1.0166 127.019V133.194Z" fill="black"/>
<path d="M170.058 132.177C170.058 132.976 170.207 133.194 170.355 132.613C170.504 132.104 170.455 131.45 170.306 131.232C170.157 130.942 170.008 131.378 170.058 132.177Z" fill="black"/>
<path d="M277.612 133.194C277.909 133.993 278.207 134.646 278.306 134.646C278.405 134.646 278.405 133.993 278.256 133.194C278.107 132.395 277.81 131.741 277.512 131.741C277.264 131.741 277.314 132.395 277.612 133.194Z" fill="black"/>
<path d="M223.116 134.356C223.116 135.155 223.264 135.373 223.413 134.792C223.562 134.283 223.512 133.63 223.364 133.412C223.215 133.121 223.066 133.557 223.116 134.356Z" fill="black"/>
<path d="M275.975 135.155C275.38 136.027 275.628 138.787 276.372 139.731C277.314 140.893 277.314 141.692 276.322 143.218C275.579 144.308 275.579 144.38 276.422 144.889C278.008 145.833 278.256 145.615 278.008 143.726C277.86 142.709 277.959 141.91 278.256 141.91C278.554 141.91 278.157 140.966 277.413 139.804C276.422 138.278 276.124 137.261 276.372 136.172C276.67 134.646 276.57 134.283 275.975 135.155Z" fill="black"/>
<path d="M20.5041 140.53C19.9586 141.765 20.6033 142.201 23.2314 142.201C25.8099 142.274 26.6529 141.62 24.3719 141.329C23.6281 141.257 22.7851 140.821 22.5372 140.458C21.8925 139.513 20.9008 139.513 20.5041 140.53Z" fill="black"/>
<path d="M7.8595 141.039C7.8595 141.329 8.55371 141.983 9.3471 142.419C10.5372 143.073 10.8347 143.073 10.8347 142.274C10.8347 141.765 10.3388 141.184 9.74379 140.893C8.2066 140.312 7.8595 140.385 7.8595 141.039Z" fill="black"/>
<path d="M65.033 141.983C64.5372 142.274 65.7273 142.491 67.6116 142.491C71.0826 142.491 71.1322 142.201 67.7603 141.765C66.7686 141.62 65.5289 141.692 65.033 141.983Z" fill="black"/>
<path d="M269.926 144.09C270.074 144.453 270.719 144.816 271.314 144.743C272.355 144.743 272.355 144.671 271.413 144.09C270.025 143.218 269.579 143.218 269.926 144.09Z" fill="black"/>
<path d="M194.901 149.901C194.901 150.918 195 151.281 195.149 150.772C195.248 150.336 195.248 149.465 195.149 148.956C195 148.52 194.901 148.884 194.901 149.901Z" fill="black"/>
<path d="M2.40503 151.281C2.40503 153.097 2.70255 153.242 3.04966 151.717C3.248 151.136 3.14883 150.482 2.9009 150.264C2.60338 149.973 2.40503 150.482 2.40503 151.281Z" fill="black"/>
<path d="M1.76041 175.252C1.66124 175.978 1.71083 177.068 1.95876 177.576C2.25628 178.303 2.40504 177.867 2.40504 176.196C2.40504 173.581 2.15711 173.145 1.76041 175.252Z" fill="black"/>
<path d="M251.182 181.935C251.38 182.879 251.579 183.242 251.727 182.661C251.827 182.153 251.678 181.354 251.43 180.99C251.033 180.409 250.984 180.7 251.182 181.935Z" fill="black"/>
<path d="M251.38 185.93C251.38 186.729 251.529 186.947 251.678 186.366C251.826 185.857 251.777 185.203 251.628 184.985C251.479 184.695 251.331 185.131 251.38 185.93Z" fill="black"/>
<path d="M250.934 194.138C250.984 195.3 251.182 196.172 251.38 196.027C251.678 195.663 251.38 192.031 251.033 192.031C250.884 192.031 250.884 192.976 250.934 194.138Z" fill="black"/>
<path d="M1.61159 196.898C1.76035 198.86 1.90911 201.039 1.90911 201.838C1.9587 202.637 2.25622 201.475 2.60333 199.295C3.24796 194.864 3.14878 193.484 2.10746 193.484C1.56201 193.484 1.41325 194.283 1.61159 196.898Z" fill="black"/>
<path d="M86.2562 196.099C86.2562 196.898 86.4049 197.116 86.5537 196.535C86.7025 196.027 86.6529 195.373 86.5041 195.155C86.3554 194.864 86.2066 195.3 86.2562 196.099Z" fill="black"/>
<path d="M2.35534 206.051C2.55369 207.286 2.65286 209.755 2.55369 211.499C2.40493 215.203 3.19832 214.985 3.69419 211.208C3.89253 209.755 3.74377 207.794 3.39666 206.559C2.5041 203.508 1.95865 203.218 2.35534 206.051Z" fill="black"/>
<path d="M279.744 214.913C279.744 216.511 279.843 217.092 279.942 216.148C280.041 215.276 280.041 213.969 279.942 213.242C279.793 212.588 279.694 213.315 279.744 214.913Z" fill="black"/>
<path d="M85.8099 214.55C85.8099 215.567 85.9091 215.93 86.0579 215.421C86.157 214.985 86.157 214.114 86.0579 213.605C85.9091 213.169 85.8099 213.533 85.8099 214.55Z" fill="black"/>
<path d="M251.926 217.092C251.926 218.254 252.025 218.69 252.174 217.964C252.273 217.31 252.273 216.293 252.174 215.785C252.025 215.349 251.926 215.857 251.926 217.092Z" fill="black"/>
<path d="M1.11568 221.45C0.917336 222.177 1.21486 223.266 1.85948 224.211L2.95039 225.809L2.80163 223.339C2.65287 220.651 1.61155 219.489 1.11568 221.45Z" fill="black"/>
<path d="M85.6612 228.061C85.4628 236.124 85.5124 243.605 85.8595 243.605C86.2562 243.605 86.4546 238.739 86.2562 231.983C86.1075 227.552 85.7604 225.01 85.6612 228.061Z" fill="black"/>
<path d="M251.38 230.893C251.38 231.693 251.578 233 251.826 233.799L252.273 235.252V233.799C252.273 233 252.074 231.693 251.826 230.893L251.38 229.441V230.893Z" fill="black"/>
<path d="M1.11573 236.196C1.06615 240.845 1.16532 241.354 1.51243 239.247C1.76036 237.867 2.15705 235.688 2.3554 234.38C2.7521 232.346 2.30581 230.53 1.46284 230.53C1.26449 230.53 1.16532 233.073 1.11573 236.196Z" fill="black"/>
<path d="M251.231 237.14C251.083 240.627 251.43 246.801 251.826 248.254C252.074 249.126 252.174 246.947 251.975 242.879C251.727 236.124 251.43 233.654 251.231 237.14Z" fill="black"/>
<path d="M280.835 240.337C280.983 243.097 281.083 247.455 281.083 249.925C281.083 252.467 281.281 254.501 281.579 254.501C282.273 254.501 282.124 247.165 281.331 240.7L280.636 235.252L280.835 240.337Z" fill="black"/>
<path d="M0.471069 248.109C0.471069 252.613 0.570243 252.903 1.76033 251.232C2.40495 250.215 2.40495 249.78 1.51239 247.019L0.520656 243.968L0.471069 248.109Z" fill="black"/>
<path d="M85.3141 253.702C85.3141 257.77 85.3637 261.039 85.4629 260.893C85.9092 260.24 86.1571 248.182 85.7604 247.31C85.4629 246.583 85.2645 248.835 85.3141 253.702Z" fill="black"/>
<path d="M251.628 252.467C251.678 253.412 251.777 256.317 251.777 259.005C251.827 261.765 252.025 263.944 252.223 263.944C252.669 263.944 252.57 255.736 252.124 253.993C251.975 253.484 252.074 253.048 252.322 253.048C252.57 253.048 252.669 252.54 252.521 251.959C252.074 250.288 251.479 250.651 251.628 252.467Z" fill="black"/>
<path d="M0.421509 254.501C0.421509 254.864 0.669443 255.228 0.966963 255.228C1.2149 255.228 1.31407 254.864 1.16531 254.501C1.01655 254.065 0.768616 253.775 0.619856 253.775C0.520682 253.775 0.421509 254.065 0.421509 254.501Z" fill="black"/>
<path d="M0.719079 257.334C0.570318 257.625 0.520732 259.295 0.669492 261.039C0.768665 262.709 0.669492 267.213 0.471145 271.063C0.0248637 278.617 0.0744505 279.344 1.16536 278.763C1.90916 278.327 1.95875 273.097 1.21495 271.353C1.0166 270.918 0.967013 270.191 1.11577 269.828C1.26453 269.465 1.51247 267.939 1.66123 266.414C1.80999 264.816 2.05792 262.564 2.1571 261.329C2.55379 257.915 1.56205 255.3 0.719079 257.334Z" fill="black"/>
<path d="M85.2148 269.174C85.2148 273.605 85.4132 276.22 85.6611 275.639C86.2066 274.332 86.2066 262.564 85.6611 262.056C85.4132 261.838 85.2148 264.889 85.2148 269.174Z" fill="black"/>
<path d="M251.876 265.833C251.876 266.632 252.025 266.85 252.174 266.269C252.322 265.76 252.273 265.107 252.124 264.889C251.975 264.598 251.826 265.034 251.876 265.833Z" fill="black"/>
<path d="M28.2397 267.286C28.2397 268.085 28.3885 268.303 28.5372 267.721C28.686 267.213 28.6364 266.559 28.4876 266.341C28.3389 266.051 28.1901 266.487 28.2397 267.286Z" fill="black"/>
<path d="M252.074 271.935C252.223 274.55 252.322 276.656 252.322 276.656C252.372 276.656 252.471 277.237 252.57 277.964C253.017 281.378 253.264 279.634 252.967 275.131C252.57 268.448 251.826 265.833 252.074 271.935Z" fill="black"/>
<path d="M27.7439 273.823C27.7439 274.622 27.8926 274.84 28.0414 274.259C28.1901 273.751 28.1406 273.097 27.9918 272.879C27.843 272.588 27.6943 273.024 27.7439 273.823Z" fill="black"/>
<path d="M281.281 274.768C281.43 276.075 281.579 278.617 281.579 280.361C281.579 282.104 281.777 283.557 281.975 283.557C282.57 283.557 282.124 273.896 281.479 273.024C281.083 272.516 281.033 272.952 281.281 274.768Z" fill="black"/>
<path d="M7.26452 277.528C7.85956 277.673 8.8513 277.673 9.49593 277.528C10.091 277.382 9.5951 277.237 8.35543 277.237C7.11576 277.237 6.61989 277.382 7.26452 277.528Z" fill="black"/>
<path d="M241.81 278.109C241.661 278.327 241.661 279.271 241.76 280.143C242.008 281.886 244.041 282.685 245.083 281.45C245.727 280.724 250.339 280.942 253.066 281.886C254.157 282.249 255.397 282.467 255.793 282.395C256.19 282.395 257.38 282.249 258.422 282.249C261.645 282.031 260.405 280.942 256.934 280.942C255.05 280.869 251.678 280.506 249.397 279.998C246.471 279.416 245.083 279.344 244.686 279.925C243.942 281.015 243.496 280.797 243.595 279.416C243.645 278.182 242.405 277.237 241.81 278.109Z" fill="black"/>
<path d="M279.198 278.69C278.405 280.07 279.546 281.596 280.587 280.651C281.231 280.07 281.231 279.852 280.537 278.835C279.893 277.818 279.694 277.818 279.198 278.69Z" fill="black"/>
<path d="M119.578 278.981C120.025 279.126 120.719 279.126 121.066 278.981C121.364 278.763 121.017 278.617 120.174 278.617C119.38 278.617 119.083 278.763 119.578 278.981Z" fill="black"/>
<path d="M121.909 279.199C121.909 279.562 122.157 279.925 122.455 279.925C122.702 279.925 122.802 279.562 122.653 279.199C122.504 278.763 122.256 278.472 122.107 278.472C122.008 278.472 121.909 278.763 121.909 279.199Z" fill="black"/>
<path d="M193.711 278.981C194.008 279.126 194.603 279.126 194.95 278.981C195.248 278.763 195 278.617 194.306 278.617C193.612 278.617 193.364 278.763 193.711 278.981Z" fill="black"/>
<path d="M200.157 279.707C200.504 279.925 200.95 279.852 201.099 279.634C201.298 279.416 201 279.199 200.455 279.271C199.909 279.271 199.76 279.489 200.157 279.707Z" fill="black"/>
<path d="M266.901 281.015C266.058 281.959 266.157 281.959 267.942 281.305C270.868 280.215 271.066 280.07 269.38 279.998C268.587 279.925 267.446 280.433 266.901 281.015Z" fill="black"/>
<path d="M276.124 280.724C275.727 281.087 274.388 281.232 273.149 281.014C271.512 280.724 271.215 280.797 271.909 281.305C273.793 282.613 278.802 281.814 277.265 280.433C277.017 280.215 276.521 280.361 276.124 280.724Z" fill="black"/>
<path d="M240.322 281.886C240.669 282.104 241.116 282.032 241.265 281.814C241.463 281.596 241.165 281.378 240.62 281.45C240.074 281.45 239.926 281.668 240.322 281.886Z" fill="black"/>
</svg>
