<svg xmlns="http://www.w3.org/2000/svg" width="283" height="285" fill="none"><path fill="#000" d="M25.066 1.717c-.694.799-1.537 1.453-1.934 1.453-.396 0-.992.435-1.289.871-.496.727-.744.727-1.09-.145-.398-.944-.497-.872-.497.145 0 .727-.198 1.308-.496 1.308-.248 0-.495.799-.495 1.816s-.199 1.816-.447 1.816c-.694 0-4.016 6.9-7.537 15.617-4.512 11.041-4.364 10.605-5.9 19.177C3.792 52.782 3.098 61.28 3.792 63.17c.298.799.645 6.755.794 13.365.248 10.17.545 13.075 1.835 19.976.793 4.358 2.033 9.806 2.727 11.985 1.934 6.029 6.248 15.037 9.868 20.557 2.082 3.196 3.223 5.521 3.223 6.61 0 1.308.347 1.816 1.388 2.107.744.218 1.785 1.017 2.33 1.743.546.727 1.835 2.252 2.877 3.414.991 1.163 1.834 2.543 1.834 3.051 0 .581.248 1.017.496 1.017.298 0 .496-.436.496-.944 0-.727.893-1.017 3.025-1.09 1.686-.072 3.322-.436 3.62-.799.297-.363 1.14-.508 1.835-.29 2.578.726 2.677 1.961 2.529 28.474-.05 13.439-.199 38.935-.248 56.731-.199 41.55-.645 45.836-4.414 44.674-1.09-.364-1.339-.218-1.487 1.234-.1.945-.496 1.744-.893 1.744-.397.072-1.14.145-1.636.218-.546.072-.843.508-.744 1.235.1 1.017 1.09 1.234 5.851 1.525 6.645.363 7.537.509 8.232 1.162.297.218.644.291.793.146.149-.218 3.57-.436 7.636-.509 5.306-.073 7.736.145 8.579.799 1.19.944 4.314.726 8.182-.581 1.09-.436 2.132-.581 2.33-.436.199.218 1.637-.29 3.223-1.089 1.587-.799 3.174-1.308 3.472-1.163.446.291.594-3.123.644-13.583.05-7.7.149-16.271.298-19.032.148-2.833.347-7.046.446-9.443.347-6.901.843-10.387 1.587-10.823.396-.218.694-.073.694.291 0 .435.248.726.545.726.248 0 .347-.363.199-.726-.149-.436.05-.727.496-.727.396 0 .892-.508 1.04-1.089.2-.582.596-1.09.993-1.09.396 0 .694-.509.694-1.09 0-.726-.496-1.089-1.537-1.089-.794 0-1.389-.218-1.29-.581.15-.291.05-1.163-.198-1.962-.397-1.307-.397-1.234-.297.364l.099 1.816-5.703-.073c-3.124 0-6.198-.291-6.843-.581-.843-.436-1.09-.363-.992.363.15.944-.05 1.09-2.33 1.308-.545.072-1.339.435-1.736.799-.644.653-.644.799 0 1.452.397.364 1.438.727 2.232.727.843 0 2.182.799 2.975 1.743l1.488 1.743-.1 18.523c-.099 18.451-.347 21.72-2.132 26.586-.545 1.526-4.016 3.197-5.206 2.543-.496-.291-.992-.073-1.24.436-.397.871-1.686 1.017-9.273.726-1.438-.073-2.628-.363-2.628-.799 0-.363-.545-.654-1.24-.654-2.628 0-2.727-1.453-2.38-41.186.447-61.09.893-84.044 1.686-87.167.298-1.09.992-1.744 2.281-2.034 2.876-.727 4.612-2.034 4.612-3.414 0-1.453-1.24-1.744-1.736-.581-.248.508-.545.581-.942.072-.595-.726-7.934-.581-9.273.291-.495.218-.991.145-1.19-.291-.148-.436-.744-.799-1.289-.799-.892 0-.793-.218.496-1.888.843-1.017 1.537-2.18 1.537-2.543 0-.436.446-1.38.992-2.252.545-.871.992-2.179.992-2.905 0-.727.247-1.308.495-1.308.298 0 .496-.508.496-1.089s.447-2.179.942-3.56c.546-1.38 1.141-3.704 1.34-5.157.148-1.453.743-2.905 1.239-3.341.545-.364.793-1.09.645-1.526-.199-.508-.1-.581.248-.29.297.29.446 1.162.297 1.961-.496 2.252.446 1.525 1.24-1.017.396-1.308.644-3.123.595-4.068-.199-1.816-.199-1.816-.992-.363-.496.726-.793 1.235-.744 1.09.05-.073-.347-.872-.843-1.671s-1.09-3.124-1.24-5.23c-.198-2.034-.594-4.286-.842-5.012-.248-.8-.496-2.833-.496-4.576 0-1.744-.199-3.197-.447-3.197s-.446-.58-.446-1.307c0-.944.1-1.017.447-.29.347.798.446.798.694-.146.198-.726.05-1.162-.347-1.162-.348 0-.943-.509-1.29-1.09-.347-.58-.793-.871-1.041-.726-.198.218-1.438.436-2.678.508-1.24 0-2.231.364-2.28.872-.05.436 0 5.012.049 10.242.05 10.751-.645 21.647-1.785 26.731-.496 2.107-1.637 4.649-2.975 6.61-1.19 1.816-2.182 3.56-2.182 3.996 0 .363-.447.944-.992 1.162-.545.29-.893.726-.793 1.017.148.29-.447.363-1.34.218-.892-.146-2.627-1.598-3.917-3.196-1.289-1.526-3.024-3.124-3.818-3.56-2.777-1.452-6.991-11.695-6.991-17.143 0-2.469-.546-5.883-1.538-9.297-.248-.799-.545-3.996-.694-7.046-.248-6.03-.694-10.824-1.09-11.695-.1-.29.049-.509.346-.509.298 0 .397-.29.248-.726-.148-.363-.396-5.884-.545-12.13-.248-12.93-.397-14.82-.843-15.981-.198-.436-.1-.945.198-1.09.893-.436.893-12.785-.05-13.656-.396-.364-.892-.436-1.09-.29-.199.217-.397.072-.397-.364s.446-1.09.992-1.526c.843-.653.892-1.016.396-2.179-.446-1.017-.446-1.816 0-3.268.348-1.09.744-3.923.942-6.247.15-2.398.546-4.286.843-4.286.298 0 .943-1.235 1.389-2.76.446-1.453 1.587-3.923 2.579-5.448.991-1.526 1.785-3.051 1.785-3.342 0-.218.843-1.743 1.834-3.269 1.785-2.687 1.885-2.76 4.81-2.324 1.686.218 3.323.436 3.67.509.991.217 3.074 4.503 5.107 10.387 1.29 3.704 2.033 5.157 2.727 5.157 1.042 0 1.587 1.235 3.174 7.41 1.24 4.794 1.835 17.578.992 21.937-.347 1.888-.298 2.687.148 3.123.447.436.447.581 0 .581-.843 0-.793 2.252.1 4.14.595 1.236 1.09 1.453 2.876 1.163 1.338-.218 2.33-.073 2.529.436.495 1.09 1.289 1.017 1.289-.218 0-.581.347-1.163.694-1.38.992-.582 1.24-3.415 1.438-16.707.149-8.645.05-11.623-.446-12.204-.347-.436-.546-1.162-.397-1.67.298-1.235-1.09-2.906-1.983-2.398-.496.29-.843-.145-1.091-1.162-.496-2.542-4.066-9.879-7.736-15.98-1.835-3.051-3.372-6.247-3.372-7.12 0-1.016-.248-1.38-.843-1.234-.496.145-.843.872-.793 1.598.05.872-.199 1.09-.744.726-.496-.217-1.388-.653-2.083-.871-.694-.145-1.487-.654-1.785-.945-.297-.363-1.537-.435-2.777-.217-1.785.363-2.28.217-2.529-.727-.396-1.525-.942-1.453-2.479.29ZM16.29 23.58c0 .363-.198.654-.496.654-.247 0-.495-.509-.495-1.162 0-.582.248-.872.495-.654.298.218.496.726.496 1.162Zm-1.487 27.676c-.248 7.772.297 34.576.793 39.806.645 6.32.645 6.537-.1 6.537-.396 0-.743-.726-.743-1.67-.05-.872-.1-3.705-.198-6.32-.05-2.615-.248-11.259-.496-19.25-.397-15.326-.446-17.215-.248-23.607l.1-3.995.495 3.269c.248 1.816.446 4.14.397 5.23Zm2.132 54.334c.149.799.05 1.453-.198 1.453s-.447-.654-.447-1.453.1-1.453.199-1.453.297.654.446 1.453Zm.793 5.448c0 .363-.198.218-.446-.363-.248-.582-.446-1.599-.446-2.18 0-1.162.843 1.163.892 2.543Zm11.455 24.77c0 .145-.446 0-.992-.436-.545-.436-.992-.944-.992-1.162 0-.146.447 0 .992.436.546.435.992.944.992 1.162Zm20.182 91.961c-.1.944-.199.218-.199-1.598s.1-2.542.199-1.671c.099.945.099 2.397 0 3.269Zm-.496 18.16c-.149.581-.298.363-.298-.436-.05-.799.1-1.235.248-.944.149.218.199.871.05 1.38Zm.644 7.118-.347 6.175-.05-5.884c-.049-3.196.05-6.102.249-6.32.496-.799.496-.508.148 6.029Zm-.644 12.494c-.149.509-.248.146-.248-.871s.1-1.38.248-.945c.099.509.099 1.381 0 1.816ZM3.397 1.935c0 .726.396 1.234.892 1.234.447 0 .645-.29.347-.58-.248-.291-.644-.8-.843-1.163-.248-.363-.396-.145-.396.509ZM4.388 1.28c0 .146.348.51.794.727.397.218.595.145.446-.29C5.331.99 4.388.7 4.388 1.28ZM17.777 2.443c0 1.889 1.785 1.961 2.082.145.199-.944-.05-1.307-.892-1.452-.893-.073-1.19.217-1.19 1.307ZM63.397 3.17c0 .871 1.339.871 2.727 0 .793-.509.645-.654-.843-.654-1.041-.073-1.884.218-1.884.653ZM43.959 3.678c.297.145.892.145 1.24 0 .297-.218.049-.363-.645-.363-.694 0-.942.145-.595.363Z"/><path fill="#000" d="M80.802 4.768C77.28 7.31 70.488 18.35 68.9 24.017c-.347 1.307-.893 2.397-1.14 2.397-.249 0-.397.436-.249.872.1.508-.248 1.888-.793 2.978-.496 1.162-.843 2.18-.694 2.397.099.218-.199 2.034-.744 4.14-1.388 5.303-2.48 10.969-3.57 18.523-.546 3.705-1.389 28.91-1.091 33.415.397 6.755 1.19 14.673 1.735 16.852.893 3.632 2.678 12.712 2.629 13.22-.05.363.099.581.297.581.248 0 1.835 3.196 3.57 7.046 1.736 3.923 4.066 8.572 5.257 10.388 1.14 1.816 2.181 3.922 2.28 4.721.1.799.496 1.38.893 1.308.446-.146 1.438.653 2.231 1.67 2.083 2.615 4.562 4.141 5.554 3.56.496-.291 2.182-.509 3.769-.581 1.587 0 2.975-.291 3.124-.654.148-.291.793-.581 1.388-.581.645 0 1.438-.509 1.785-1.09.347-.581 1.389-1.307 2.38-1.525 1.29-.363 1.587-.654.943-.945-.794-.435-.794-.581-.1-2.106.447-.872 1.042-1.598 1.389-1.598.793 0 5.306-7.119 5.306-8.354 0-.581.248-1.089.495-1.089.298 0 .496-.581.496-1.235 0-.654.893-3.85 1.934-7.046 1.934-5.739 3.471-11.695 3.818-14.601.149-1.162 1.538-10.387 1.637-11.113.049-.073.049-1.163.049-2.325 0-1.307.397-2.688.992-3.414.546-.726.793-1.525.546-1.961-.248-.436-.546-4.577-.744-9.153-.199-4.576-.546-9.806-.794-11.622-.644-4.722-.644-5.012.546-4.576.843.363.992.145.843-.945-.099-.726-.546-1.307-.992-1.307-.843.145-1.289-2.034-1.686-7.99-.099-1.599-.397-3.85-.645-5.085-2.181-10.315-2.876-13.075-4.611-17.651-1.041-2.833-2.231-5.594-2.628-6.03-.397-.508-.744-1.452-.744-2.106 0-.654-.446-1.743-.992-2.47-.545-.654-.991-1.67-.991-2.252 0-1.235-1.191-2.76-1.637-2.106-.198.218-.099.871.199 1.453.446.653.396.944 0 .944-.298 0-.546-.218-.596-.581-.148-1.962-.446-3.051-1.338-4.359-.645-.944-1.091-1.162-1.24-.653-.1.435-.496-.218-.942-1.453-.645-1.889-.645-2.397-.1-3.269.943-1.307.15-2.833-1.239-2.252-.694.29-.893.581-.546.945.298.29.596.944.645 1.525.1.581.298 1.453.546 1.961.347.872.198.872-.645.146-.595-.436-1.24-1.308-1.389-1.889-.148-.581-.594-1.017-.942-1.017-.396 0-1.24-.508-1.884-1.09-1.735-1.67-7.537-1.816-9.67-.217Zm5.553 5.956c-.148.436-.05.436.397-.145 1.091-1.453 4.314-1.09 4.91.58.297.8.842 1.454 1.19 1.454 1.239 0 5.156 7.046 6.892 12.42 2.132 6.538 3.223 12.567 3.57 19.686.149 2.906.546 6.974.843 9.08.347 2.542.446 9.588.248 21.792-.496 26.949-.893 34.14-2.579 43.22-1.239 6.901-3.966 15.835-4.81 15.835-.247 0-.347.291-.198.654.149.291-.248 1.235-.843 2.034-4.86 6.32-9.421 5.884-14.28-1.453-2.034-3.051-6.397-12.348-6.397-13.583 0-.363-.447-1.744-.992-3.124-.546-1.38-1.091-3.559-1.14-4.794-.05-1.235-.397-2.397-.794-2.615-.347-.218-.496-.872-.347-1.525.149-.581.099-.872-.199-.654-.297.218-.545-.073-.545-.654-.1-1.743-.198-2.179-.595-3.123-.198-.436-.198-1.308-.05-1.889.15-.654 0-1.889-.347-2.76-.347-.945-.396-1.744-.099-1.889.645-.363.149-5.375-.595-6.537-.347-.509-.545-1.598-.397-2.397.15-.8.05-1.89-.248-2.398-.297-.508-.347-1.307-.099-1.96.199-.51.248-1.671 0-2.543-.198-.8-.248-2.906 0-4.577.199-1.67.149-3.05-.05-3.05-.594 0-.545-2.688 0-3.196.249-.291.348.29.199 1.162-.198 1.453-.149 1.525.347.436.347-.872.397-1.744.05-2.615-.248-.727-.298-1.744-.1-2.252.546-1.235.645-6.61.1-6.61-.546 0-.05-3.85.595-4.504.347-.29.297-.872-.1-1.598-.495-.872-.495-1.162-.099-1.162.347 0 .447-.364.248-.8-.148-.435-.05-1.016.248-1.307.298-.29.595-1.816.645-3.414.05-1.525.297-3.05.595-3.341.347-.363.198-.581-.298-.581-.694 0-.892-.654-.892-2.833 0-1.598.248-3.124.496-3.342.297-.218.496-1.307.496-2.397 0-2.034 1.537-6.9 2.776-8.644.397-.581.744-1.598.744-2.252.199-3.632 1.34-7.118 2.678-7.99 1.339-.872 1.736-2.542.496-1.889-.546.364-.645.146-.447-.726.15-.654.496-.944.744-.726.248.217.447-.073.447-.654 0-.581.545-1.598 1.24-2.252 1.388-1.307 1.933-1.525 1.487-.436-.149.363-.05.727.198.727.298 0 .546-.364.546-.872 0-.654.148-.654.545-.073.645.945 1.934.436 1.934-.653 0-.436-.347-.582-.744-.364-.396.29-.843.146-.942-.145-.446-1.017.1-1.235 1.934-.944 1.09.218 1.636.58 1.388 1.162ZM70.041 51.547c.15.581.1.872-.198.654-.297-.218-.496-.727-.496-1.162 0-1.017.347-.8.694.508Z"/><path fill="#000" d="M110.752 5.058c-.694.726-.744 1.017-.198 1.017 1.537.073 3.421 3.487 3.52 6.32l.05 2.76.198-2.542c.248-3.124.744-3.923 2.033-3.342 1.29.654 2.083 5.448 2.133 12.785 0 2.978.049 7.409.099 9.806.049 2.397 0 18.378-.05 35.593-.099 17.143-.149 32.543-.099 34.141.05 1.598.05 8.28.05 14.891-.05 19.176-1.438 24.697-5.901 23.68-3.471-.799-9.323-1.09-9.967-.436-1.984 1.744 2.231 4.867 6.099 4.431 1.835-.218 1.884-.145 1.587 1.526-.199.871-1.339 9.007-2.579 18.014-1.19 9.007-2.529 17.797-2.925 19.613-.645 2.905-1.19 6.392-2.033 13.438a572.726 572.726 0 0 1-1.488 10.533c-2.33 15.544-3.719 25.06-4.76 33.196-.893 6.973-1.19 8.135-2.033 8.353-1.34.291-1.686 2.034-.496 2.47.843.363.892.872.644 3.777-.148 1.889-.495 3.923-.743 4.504-.248.581-.496 1.889-.546 2.833-.446 5.811-2.777 14.746-3.52 13.583-.15-.218-1.042.291-2.034 1.017-1.338 1.09-1.884 1.235-2.132.581-.645-1.452-.992-.217-.645 2.252.447 3.051 2.083 3.632 4.414 1.526 1.19-1.09 2.082-1.38 2.826-1.017 2.182 1.017 8.281.871 8.876-.146.298-.581.843-1.016 1.24-1.016.347 0 .793-.364.992-.8.198-.581 0-.653-.744-.29-.843.363-1.041.145-1.041-1.017 0-.872-.298-1.525-.695-1.525-.942 0-1.289-1.599-1.289-5.957 0-3.341 1.24-14.891 1.884-17.288.149-.581.347-1.889.397-2.906.099-1.017.397-3.268.645-5.084.248-1.816.843-6.247 1.289-9.807 1.24-10.096.892-9.297 4.413-8.789 1.637.291 5.554.509 8.628.581 3.025 0 5.554.145 5.554.218 0 .509 2.628 22.954 3.223 27.24.446 3.341.645 8.862.595 14.164-.099 7.991-.198 8.717-1.041 8.717-.496 0-1.091.727-1.339 1.598-.496 1.961.595 2.688 2.777 1.816.843-.29 2.033-.508 2.727-.363.694.073 3.025.363 5.207.654 2.182.29 4.215.799 4.512 1.162.347.363 1.24.436 1.984.145 2.628-.799 13.537-1.38 22.76-1.089 1.19.072 1.735.363 1.388.653-.496.509-.496.872 0 1.889.546 1.09.843 1.235 1.736.508.942-.726 3.471-1.089 5.554-.799 1.884.291 4.958-.29 4.363-.799-.793-.726-.595-.944 2.083-1.888 1.24-.436 3.273-1.308 4.611-1.961 2.232-1.017 2.331-1.017 2.331.29 0 .944.347 1.453.992 1.453 1.091 0 1.339-1.38.446-2.688-.397-.581-.099-1.235 1.041-2.469 2.083-2.325 5.703-10.533 6.149-13.947.198-1.526.347-7.264.347-12.712 0-7.046.149-9.588.496-8.862.397.872.496.654.298-.726-.149-1.017-.496-4.141-.843-6.901-1.637-14.455-6.397-26.731-11.554-30-1.438-.872-1.438-.945-.546-1.889.496-.581 1.091-.871 1.339-.654.199.146.744-.072 1.19-.653.695-.799.843-.799 1.042 0 .545 2.469 5.058-6.465 5.306-10.388.049-.799.247-4.068.446-7.264.496-7.409-.942-17.215-3.174-22.009-.843-1.671-1.487-3.342-1.487-3.632 0-.799-4.215-7.409-4.711-7.409-.248 0-.893-.654-1.438-1.381-.595-.726-2.033-1.888-3.273-2.542l-2.231-1.09 1.686-.072c2.876 0 1.388-.727-2.232-1.017-4.413-.363-4.215-.291-4.115-1.38.148-1.671-.05-2.688-.546-2.688-.248 0-.496.508-.496 1.09 0 1.452-.644 1.38-1.636-.218-1.785-2.906-2.777-18.523-3.074-48.088-.05-7.772-1.042-13.293-3.124-18.232-1.686-3.85-5.852-10.097-7.686-11.477-1.736-1.307-1.686-1.67.297-3.05 9.174-6.466 10.513-8.209 12.595-15.618.645-2.325 1.537-4.65 1.934-5.158.496-.508.694-1.38.496-2.106-.198-.654-.446-1.017-.645-.727-.198.291-.644-1.234-.991-3.34-.397-2.108-1.488-5.594-2.48-7.7-1.934-4.069-8.43-13.221-9.421-13.221-.347 0-.843-.581-1.091-1.38-.446-1.162-1.934-1.961-5.008-2.688-.397-.072-1.29-.436-1.984-.726-.694-.218-1.686-.436-2.231-.436-10.463.218-12.695.218-13.091-.145-.248-.29-.744 0-1.141.508-.347.509-1.289.872-2.082.872-.794-.073-2.083.29-2.876.872-.794.653-1.786.871-2.281.508-.447-.29-.992-.581-1.19-.654a5.255 5.255 0 0 0-.744-.363c-.595-.29-1.091-.436-4.364-1.017-5.95-.944-6.496-.944-7.438 0Zm31.389 5.012c1.388.218 3.371.872 4.363 1.453.992.581 2.331 1.09 2.975 1.09 3.223 0 9.124 14.382 9.521 23.172.198 4.067.149 4.576-.595 4.213-.595-.364-.793 0-.793 1.38 0 5.084-4.215 11.84-7.984 12.93-2.727.726-6.347 2.106-9.223 3.486-2.182 1.017-4.76 1.526-8.579 1.67l-5.454.146-.099-2.252c0-1.235-.149-3.268-.199-4.43-.347-4.722-.297-36.466 0-39.371.298-2.397.645-3.196 1.686-3.777 1.24-.654 7.389-.509 14.381.29Zm5.652 53.608c1.19 1.017 2.777 2.688 3.521 3.777 1.24 1.889 3.769 8.572 4.017 10.678.049.509.248 1.38.495 1.889.843 1.961 1.191 17.433.843 35.084-.198 10.243.794 15.691 3.62 19.831 1.141 1.671 2.48 3.414 3.025 3.85.843.799.298.872-3.124.581-2.281-.218-4.512-.654-4.959-.944-.446-.291-1.933-.509-3.322-.364-1.339.073-3.521.218-4.81.291-1.339.073-2.38.363-2.38.726 0 .291-.496.509-1.091.509-3.669-.291-5.802.218-5.95 1.38-.199 1.453 2.777 3.995 3.917 3.341.347-.217 1.339 0 2.132.509 1.24.726 1.537 1.525 2.182 5.666.397 2.687.793 6.319.843 8.135.149 6.32-.645 31.671-1.091 34.722-.397 2.688-.545 51.356-.198 64.794.049 2.615.198 6.683.248 9.08.198 7.555.099 8.136-1.24 8.644-.694.291-1.686.145-2.231-.29-.794-.654-1.091-.582-1.29.363-.148.581-.495 1.089-.743 1.089-1.29 0-2.281-4.867-4.711-23.535-.397-3.123-1.537-9.298-2.529-13.801-1.636-7.555-2.579-13.438-3.322-20.412-.695-6.392-1.389-11.477-1.785-13.075-.248-.872-.695-4.213-.992-7.336-.694-7.119-.942-9.444-3.124-27.894-.942-8.208-1.884-16.053-2.033-17.433-.149-1.381-.496-3.705-.794-5.085-.743-3.705-.644-4.141.893-4.576.744-.291 2.083-1.453 2.975-2.688 1.389-1.961 1.587-2.76 1.587-5.884 0-1.961.198-3.559.446-3.559s.248-1.38 0-3.196c-.545-4.504-.942-42.204-.545-54.915l.347-10.533 5.752-.073c3.173-.072 6.149-.436 6.545-.726.447-.363 2.133-.581 3.769-.581 2.231.072 3.521.58 5.107 1.96Zm16.909 60.436c.248 2.034.199 2.469-.148 1.453-.397-1.381-.694-5.303-.298-4.649.099.145.298 1.598.446 3.196Zm-1.785 19.685c3.224.291 6.05.726 6.347 1.09.248.363 1.438.653 2.728.653 1.239 0 3.025.436 4.016.945 2.232 1.089 5.405 4.576 5.405 5.883 0 .582.595 2.543 1.339 4.431 2.579 6.756 1.984 19.613-1.388 30.509-.794 2.542-1.885 5.303-2.48 6.102-1.19 1.598-5.702 3.995-6.396 3.341-.248-.218-1.29-.145-2.281.291-1.488.581-1.686.581-1.19-.291.495-.872.446-1.162-.199-1.525-.992-.582-1.537.072-1.537 1.743 0 .944-.545 1.307-2.43 1.453-1.983.218-2.529 0-3.124-1.308l-.744-1.525-1.09 1.453c-.695.944-1.438 1.307-2.133 1.089-.545-.218-1.537 0-2.181.436l-1.091.872.297-21.937c.149-12.059.05-23.826-.198-26.078-.248-2.252-.496-4.721-.546-5.448-.148-1.453 1.885-3.632 2.678-2.905.198.218 2.975.508 6.198.726Zm-47.256 33.923c.199 1.67.645 4.648 1.041 6.682 1.042 5.448 2.629 16.635 3.422 23.971.397 3.56.843 7.046.942 7.627.149.581.397 2.034.546 3.124l.347 2.034-8.232-.146c-4.512-.072-8.182-.29-8.182-.435 0-.146.199-.799.447-1.526.545-1.525 1.834-9.37 3.074-18.232.546-3.705 1.091-7.119 1.24-7.482.198-.436.446-1.889.545-3.341.149-1.453.694-4.577 1.19-6.901.496-2.397.942-4.94.942-5.739 0-.799.248-2.034.546-2.833.744-2.106 1.735-.653 2.132 3.197Zm72.942 16.489c-.496.799-.991 1.307-1.14 1.089-.149-.218.149-1.017.644-1.816.496-.799.992-1.307 1.141-1.089.149.218-.149 1.017-.645 1.816Zm-18.099 8.28c.397.509 1.984 1.744 3.521 2.761 4.859 3.341 10.116 13.729 11.157 22.227.198 1.453.545 3.269.793 4.068.694 1.889 1.686 11.913 1.488 15.109-.099 1.889-.397 2.76-.942 2.76-.546 0-.695.436-.397 1.598.793 3.85.248 7.846-1.488 11.187-.743 1.38-1.19 2.905-1.091 3.414.149.508.298.363.298-.291.05-.653.397-1.38.793-1.67.893-.509.943.218.05 1.888-.347.727-1.041 1.308-1.488 1.308-.496 0-.694.29-.545.726.149.363-.05.727-.446.727-.397 0-.943.435-1.141 1.017-.198.508-2.182 2.251-4.364 3.777l-3.966 2.833-6.695.072c-3.669.073-7.785-.145-9.124-.363l-2.38-.436-.099-36.174c-.05-19.903.05-36.465.198-36.828.645-1.453 14.628-1.235 15.868.29Zm20.232 16.054c.892 2.542 1.586 5.448 1.586 6.465 0 1.017.248 1.888.496 1.888.298 0 .496.291.496.727 0 2.76-2.926-4.722-3.273-8.572-.049-.508-.545-2.034-1.091-3.414-.595-1.453-.793-2.324-.396-2.106.347.218 1.339 2.469 2.182 5.012Zm3.024 14.891-.049 1.816-.397-1.816c-.198-1.017-.397-2.325-.446-2.906-.05-.944 0-.944.446 0 .248.581.446 1.889.446 2.906ZM162.818 6.075c1.389.872 2.827.872 2.48 0-.149-.436-1.042-.726-1.885-.654-1.339 0-1.438.146-.595.654Z"/><path fill="#000" d="M169.116 6.656c-1.637.509-1.835.944-1.389 3.269.199 1.09.546 1.307 1.785.871 1.29-.435 1.736-.145 3.075 1.962 1.587 2.47 2.677 5.52 3.074 8.79.099 1.089.397 2.324.546 2.76.396.871 1.041 8.57 1.785 21.718.297 5.013.942 14.964 1.537 22.155.545 7.192 1.091 14.674 1.24 16.707.099 1.962.644 6.683 1.19 10.533a870.836 870.836 0 0 1 1.983 14.891c.546 4.359 1.438 10.097 1.984 12.712.496 2.615 1.041 6.029 1.239 7.627.149 1.598.645 4.794 1.042 7.119.644 3.269 1.041 4.286 1.934 4.576.644.218 1.19.799 1.19 1.162 0 .436.793.581 1.735.436 1.637-.29 1.736-.145 1.736 1.961 0 1.526.148 1.889.446 1.163.248-.509 1.289-1.09 2.38-1.163 2.479-.217 3.917-1.598 4.463-4.285l.446-2.179.794 2.397.793 2.469 4.76-.145 4.761-.145-.893 2.397c-.446 1.307-1.041 2.542-1.289 2.688-.199.145-.893 1.089-1.488 2.106-.545 1.017-1.537 2.47-2.132 3.269-.645.872-1.14 2.034-1.14 2.688 0 .653-.546 2.179-1.191 3.268-1.686 2.833-2.281 8.79-2.33 22.664 0 9.225.149 12.276.843 14.673.446 1.598 1.041 2.978 1.388 2.978.298 0 1.488 1.308 2.678 2.906 2.876 3.922 5.603 6.537 6.793 6.537 1.389 0 4.513 1.671 5.554 2.978 1.537 1.962 5.107 4.359 5.107 3.414 0-.435.546.073 1.191 1.09.793 1.235 1.289 1.598 1.438 1.017.148-.508.297-.363.297.363.05.654.298 1.453.645 1.744.347.29.396.217.198-.291-.198-.509-.099-.872.149-.872.297 0 .545.581.545 1.308 0 .799.695 1.816 1.686 2.542 1.438.944 1.835 1.816 2.529 5.23 1.637 8.281 2.132 18.814 1.041 22.518l-.446 1.453.794-1.453c.446-.799.843-2.106.892-2.905 0-.799.199-.363.446 1.017.397 2.615-1.586 17.724-2.528 19.394-.248.509-.596 1.598-.695 2.47-.248 1.961-1.686 4.504-2.281 3.923-.198-.146-.793 0-1.289.363-2.727 2.252-8.578 2.034-8.578-.291 0-.581-.348-1.089-.744-1.089-.397 0-1.686-1.526-2.827-3.342-2.132-3.341-4.463-10.896-5.058-16.344-.396-3.631-.446-21.065-.049-24.116.347-2.615 1.636-4.068 2.727-3.051.446.436 1.984-1.162 1.984-2.033 0-.218-.546-.582-1.24-.8-.694-.29-1.24-.726-1.24-1.089 0-.291-.991-.363-2.182-.073-1.239.291-3.371.218-4.859-.145-1.438-.291-2.975-.581-3.372-.581-.397.072-1.835.072-3.124.072l-2.38.073.347 2.252c.496 3.632 1.19 5.157 1.835 4.213.297-.436.793-.799 1.14-.799.595 0 1.537 4.358 1.885 9.08.148 1.598.396 4.649.595 6.755.247 2.688.148 4.431-.348 5.666-.396 1.235-.495 2.034-.148 2.325.297.29.793 2.469 1.14 4.866.347 2.398 1.19 5.594 1.884 7.192.695 1.525 1.29 3.559 1.389 4.431.049.871 1.488 3.632 3.223 6.029l3.174 4.431-3.224.508c-1.735.363-3.52.509-3.917.363-.595-.145-.595 0-.149.727.447.654 1.488.726 4.414.218l3.768-.727 1.041 2.034c.893 1.744 1.389 2.034 3.323 2.034 1.239 0 3.52-.508 5.058-1.089 1.537-.581 3.52-.872 4.462-.654 3.472.726 6.248.872 6.893.218.446-.436.05-.654-1.339-.654-1.091 0-2.132-.218-2.33-.436-.546-.799 1.834-5.157 3.52-6.537 2.777-2.18 7.934-10.097 9.124-13.874 2.182-7.119 1.091-26.005-1.834-32.18-.794-1.67-1.438-3.777-1.488-4.649 0-.944-.347-1.598-.992-1.743-.545-.073-1.835-2.034-2.925-4.213-1.042-2.179-2.48-4.358-3.224-4.721-.694-.436-1.834-1.526-2.529-2.47-.694-.872-1.785-1.889-2.479-2.179-.694-.364-2.082-1.308-3.074-2.252-.992-.945-2.132-1.526-2.529-1.308-.397.218-1.736-.653-3.025-1.888-1.24-1.235-2.479-2.107-2.678-1.889-.991.872-5.057-7.409-5.057-10.315 0-.944-.496-3.196-1.091-5.084-.943-2.979-1.091-4.649-1.091-13.584 0-11.477.595-15.545 2.578-18.16 2.033-2.615 5.008-5.448 5.802-5.448.347 0 .744-.29.843-.726.297-1.38 2.678-1.235 4.611.363 4.166 3.414 5.157 4.504 6.943 7.99 2.528 4.795 4.214 12.858 4.165 19.976-.05 2.978 0 7.337.049 9.734.05 3.85-.099 4.649-1.735 8.135-1.041 2.18-2.132 3.923-2.43 3.923-.297.073.248.581 1.19 1.162 1.24.799 2.033.872 2.975.291 1.736-1.017 8.827-.727 10.81.436 1.587.944 1.637.944 1.339-.509-.198-.799-.049-1.889.248-2.47.694-1.235-.099-3.268-1.289-3.268-.347 0-1.091-.945-1.636-2.034-.843-1.744-1.042-3.705-1.29-13.293-.496-15.545-1.834-21.937-6.149-28.475-2.479-3.85-4.363-5.593-6-5.593-.545 0-.991-.363-.991-.799 0-.363-.199-.581-.447-.363-.247.218-1.438-.364-2.677-1.38-1.24-.945-2.331-1.381-2.43-1.017-.248 1.017-1.884 0-1.884-1.163 0-.581-.248-1.235-.546-1.525-.347-.291-.446 0-.248.944.347 1.671-.743 2.252-5.405 2.906-7.14 1.017-12.297.436-14.578-1.744-.446-.435-.496-4.648-.05-4.213.496.436.595-.653.744-7.046 0-1.452.298-3.414.595-4.358.942-2.833 1.637-7.482 1.637-10.678 0-1.743.247-2.978.545-2.978.397 0 .397-.363-.05-1.09-.446-.799-.446-1.089-.049-1.089.347 0 .545-1.017.496-2.397-.05-1.235.148-3.705.496-5.303.297-1.67.446-3.487.297-4.068-.149-.581.05-1.961.397-3.05.496-1.308.595-2.761.347-4.287-.397-2.832-.05-7.917.545-7.336.248.218.447-.145.447-.726 0-.654-.298-1.163-.595-1.163-.496 0-.496-.145-.05-.58.347-.364.744-2.398.893-4.577.148-2.18.347-4.722.495-5.739.149-.944.347-3.922.496-6.537.199-2.615.645-8.136 1.042-12.349.446-4.213.942-9.588 1.14-11.985.248-2.397.793-6.828 1.24-9.806.446-2.979 1.041-7.12 1.339-9.08.694-4.722 1.884-8.5 2.479-7.918.248.218.843 0 1.24-.508.644-.727.843-.727 1.19.145.347.799.595.799 1.091.072.297-.435.991-.871 1.438-.871 1.239 0 1.636-1.308.892-2.615-.595-1.017-.694-1.017-1.289.145-.546 1.162-.843 1.162-1.636.436-.546-.436-1.488-.872-2.133-.872-.644 0-1.339-.29-1.636-.726-.248-.363-1.537-.727-2.777-.8-3.223-.217-4.661 1.38-5.603 6.03-.595 2.978-3.223 20.993-3.223 22.155 0 .145-.298.218-.695.218-1.19 0-1.438 1.38-.396 2.034.892.508.892.726-.149 10.314-.645 5.376-1.488 13.366-1.984 17.797-.446 4.358-1.487 12.058-2.28 17.07-2.232 13.947-3.323 22.373-4.215 32.688-.1 1.38-.447 3.486-.794 4.576-.694 2.615-.942 1.889-2.082-5.303-.496-2.978-1.091-6.61-1.29-7.99-.248-1.38-.991-7.918-1.686-14.528-.694-6.61-1.338-12.784-1.487-13.801-.149-1.017-.496-5.085-.794-9.08-.297-3.995-.793-8.862-1.091-10.896-.347-2.18-.347-3.632-.049-3.777.297-.145.198-3.196-.149-8.063-.843-9.952-.843-9.443.099-9.298 1.339.145 1.389-1.67.099-2.397-1.09-.581-1.289-1.453-2.281-11.041-.743-6.683-1.487-11.405-2.231-13.293-.595-1.671-1.091-3.051-1.14-3.196-.149-.436-11.009-.654-12.496-.29Zm15.62 27.894c-.1.944-.199.218-.199-1.598s.099-2.543.199-1.671c.099.944.099 2.397 0 3.269Zm.644 6.392c0 .363-.099.726-.198.726-.149 0-.397-.363-.546-.726-.148-.436-.049-.727.199-.727.297 0 .545.291.545.727Zm.347 5.956c-.148.509-.248.145-.248-.872 0-1.016.1-1.38.248-.944.099.509.099 1.38 0 1.816Zm24.149 21.066c-.347 2.905-.545 5.883-.397 6.61.149.726.05 1.67-.198 2.179-.248.508-.595 2.542-.793 4.649-.149 2.034-.397 4.14-.546 4.721-.248.872-.694 6.538-.843 11.114-.049 1.162-.297 2.397-.496 2.615-.198.218-.496 2.615-.644 5.448-.149 2.76-.447 5.957-.695 7.191l-.446 2.18-.049-2.18c-.05-2.179.743-13.583 1.091-15.617.099-.581.347-2.76.545-4.721.198-2.035.793-6.61 1.289-10.17.496-3.632 1.19-9.516 1.537-13.22.348-3.705.794-6.538.943-6.393.198.146.049 2.688-.298 5.594Zm-23.157-1.453c-.149.58-.297.363-.297-.436-.05-.8.099-1.235.247-.944.149.218.199.871.05 1.38Zm34.86 146.223c.347.653.396 1.089.099 1.089-.248 0-.595-.508-.794-1.089-.148-.582-.198-1.09-.099-1.09s.446.508.794 1.09Zm6.892 2.832c.645.436 1.537 1.526 1.934 2.47.694 1.598.694 1.598-.694.509-.794-.581-1.686-1.09-1.984-1.09-.297 0-.843-.508-1.19-1.089-.347-.582-.793-.872-1.041-.654-.248.218-.446-.146-.446-.799 0-1.235.991-1.09 3.421.653Zm-25.587 8.935c-.347.145-1.041.145-1.487 0-.496-.218-.199-.363.595-.363.843 0 1.19.145.892.363Z"/><path fill="#000" d="M246.124 8.835c-1.339.581-2.777 1.671-3.124 2.397-.347.8-.942 1.38-1.339 1.38-.644 0-4.611 6.683-5.107 8.717-.149.581-.546 1.598-.843 2.18-.595 1.016-2.727 6.682-4.711 12.348-1.388 3.923-5.454 20.993-6.793 28.33-.595 3.486-.893 10.895-.546 15.617.199 3.341-.149 8.426-.545 7.99-.546-.436-1.24 2.252-.794 3.196.149.436.595.581.943.363.644-.363 1.289 2.18 2.281 9.153.694 5.23 1.487 9.37 1.933 10.751.546 1.525 1.637 7.118 1.835 9.661.298 3.414 1.091 5.593 3.124 8.28 1.091 1.526 2.132 3.342 2.281 4.068.198.799.546 1.38.843 1.38.298 0 1.537 1.453 2.727 3.269 1.785 2.76 2.083 3.632 1.835 5.158-.297 1.816-.248 1.888 1.141 1.452 1.041-.363 1.785-.072 2.727 1.017.843.945 2.033 1.453 3.322 1.453 1.141 0 2.033.363 2.033.799 0 .436.347.218.794-.436.595-.799.991-.944 1.438-.363.446.509 1.239.436 2.776-.29 1.191-.582 2.976-1.235 3.918-1.526 1.934-.581 5.851-3.632 6.843-5.375.545-.944.595-.944.297-.073-.248.727 0 .654.695-.29.595-.799 1.09-1.889 1.14-2.543 0-.799.099-.871.298-.218.148.509.843-.799 1.537-2.905.744-2.107 1.537-3.995 1.735-4.141.397-.218 1.19-2.687 1.24-3.922.05-.291.545-1.235 1.19-1.961.645-.799.992-1.381.793-1.453-.198 0 .1-1.526.595-3.342.546-1.816.893-3.632.695-3.995-.149-.363-.05-.654.148-.654.248 0 .447-1.089.447-2.397.049-1.235.198-3.486.396-4.866.149-1.381.447-5.013.595-7.99.149-2.979.496-6.393.794-7.483.446-1.598.397-2.251-.099-2.687-.595-.581-.546-4.068.148-9.08.149-.8.05-3.414-.198-5.811-.248-2.615-.198-5.666.099-7.555.298-1.961.298-3.486 0-3.995-.248-.436-.595-3.123-.793-5.884-.198-2.833-.645-6.9-1.041-9.152-.397-2.252-.695-5.303-.695-6.683 0-3.341-.793-6.32-1.636-6.32-.397 0-1.438-2.106-2.331-4.649-1.636-4.794-3.124-7.7-3.967-7.7-.297 0-.495-.435-.495-.944 0-.58-.943-3.123-2.083-5.738-2.033-4.576-4.265-7.046-5.355-6.03-.298.291-1.24.146-2.133-.29-2.826-1.307-8.33-1.453-11.008-.218Zm2.231 3.923c0 .726.149.654.447-.073.248-.581.545-.654.744-.218.148.436.942.581 1.685.363 1.984-.58 4.562-.29 4.562.582 0 .217.447.653.992.871.595.218.893.073.694-.363-.148-.363.348-.218 1.091.363 1.934 1.453 6.546 9.589 7.686 13.511.546 1.67.893 3.995.843 5.085-.049 1.09.05 2.324.248 2.76.199.436.397 2.47.397 4.504.049 2.034.248 3.486.446 3.341.546-.508.893 2.978.446 4.14-.595 1.38-.545 4.795.1 5.376.396.29.446-.073.198-1.235-.248-1.162-.198-1.525.149-1.017.545.8 1.289 6.175.843 6.175-.149 0-.496-.727-.744-1.671-.347-1.308-.446-1.09-.446 1.453-.05 2.324.148 3.123.694 3.123.397 0 .744.508.744 1.09 0 .58-.199 1.09-.496 1.09-.248 0-.496 1.016-.496 2.251 0 1.235.198 2.034.496 1.743.297-.218.496-.29.496-.072 0 .145.148.871.297 1.452.248.872.099 1.09-.496.727-.644-.363-.793 0-.793 1.743 0 1.235.198 2.325.446 2.47.298.145.298 1.525.099 3.269-.297 2.179-.248 3.123.149 3.196.347 0 .347.145-.049.436-.496.218-.496.653-.05 1.67.694 1.671.05 2.979-.645 1.453-.396-.799-.446-.726-.198.509.198 1.017.099 1.67-.248 1.67-.297 0-.397.364-.248.727.248.58.546.508 1.041-.073.546-.654.695-.581.695.363 0 .654-.347 1.162-.843 1.162-.695 0-.695.219.148 1.599.496.871.695 1.38.397 1.09-.744-.655-1.339 5.665-.892 9.588.198 1.598.148 3.486 0 4.14-.199.726-.397 3.923-.546 7.119-.099 4.358-.545 7.336-1.636 11.259-1.686 6.392-5.653 14.164-7.785 15.399-.794.436-2.232 1.308-3.174 1.889-.892.581-2.182.944-2.826.726-.645-.145-1.042 0-.893.291.149.363-.397.654-1.14.654-1.488 0-3.323-1.526-4.711-3.996-.595-1.017-.843-1.162-.893-.435 0 1.017-.744.435-.744-.582 0-.29-.843-1.598-1.834-2.905-1.042-1.308-1.885-3.051-1.885-3.777 0-.727-.297-1.38-.694-1.38-.595 0-2.231-6.901-2.975-12.349-.545-3.923-1.884-11.986-2.331-13.656-.446-1.598-.595-3.197-1.19-12.131-.099-2.034-.049-5.739.199-8.354.248-3.123.248-4.866-.099-5.23-.397-.29-.348-1.09.049-2.397.347-1.09.446-2.397.198-3.123-.247-.654-.347-1.889-.297-2.688.05-.799.248-5.085.446-9.443.447-10.605 2.033-23.172 3.521-27.458 1.487-4.503 2.43-6.392 2.777-5.883.149.218.446 0 .694-.509.248-.581.149-.726-.298-.29-.843.799-.148-2.252 1.141-4.94.744-1.67 1.091-1.888 1.438-1.09.347.727.397.654.198-.363-.198-.871.298-1.888 1.785-3.414 2.232-2.397 2.876-2.687 2.876-1.307Zm22.513 57.675c.149.581.099.872-.198.654-.298-.218-.496-.726-.496-1.162 0-1.017.347-.8.694.508ZM237.446 11.232c0 .364.248.509.496.291.298-.218.496-.581.496-.8 0-.144-.198-.29-.496-.29-.248 0-.496.364-.496.8ZM271.859 11.45c-.545.654-.198.8 1.538.8 1.239 0 2.231-.219 2.231-.436 0-.872-3.025-1.163-3.769-.364ZM223.612 14.065c-.05.218-.199 1.526-.298 2.833-.099 1.962-.049 2.252.347 1.308.248-.727.347-2.034.248-2.906-.099-.871-.248-1.453-.297-1.235ZM278.107 17.77c0 .363.248.508.496.29.298-.217.496-.58.496-.799 0-.145-.198-.29-.496-.29-.248 0-.496.363-.496.799ZM278.157 29.03c0 .798.149 1.016.298.435.148-.509.099-1.162-.05-1.38-.149-.29-.298.145-.248.944ZM57.198 31.499c-.148.363-.05 1.38.248 2.179.298.799.447 1.743.347 2.034-.148.29-.05 1.162.199 1.961.347 1.308.396 1.235.347-.363 0-1.017.149-2.906.347-4.213.297-1.816.198-2.325-.397-2.325-.446 0-.942.291-1.09.727ZM278.157 41.378c0 .799.149 1.017.298.435.148-.508.099-1.162-.05-1.38-.149-.29-.298.146-.248.945ZM278.108 56.196c.297.8.595 1.453.694 1.453.099 0 .099-.654-.05-1.453-.149-.799-.446-1.453-.744-1.453-.248 0-.198.654.1 1.453ZM278.107 59.755c0 .436.248.945.496 1.163.298.218.496-.073.496-.654 0-.654-.198-1.162-.496-1.162-.248 0-.496.29-.496.653ZM53.231 90.41c-.198.435-.248.87-.099 1.089.1.218.347-.145.496-.8.347-1.234.05-1.452-.397-.29ZM54.917 89.61c-.198 1.67-.148 7.99.1 7.99.545 0 .942-6.828.446-7.554-.248-.363-.496-.581-.546-.436ZM279.198 96.874c0 1.017.1 1.38.248.872.099-.436.099-1.308 0-1.816-.148-.436-.248-.073-.248.944ZM54.57 101.232c0 1.381.1 1.962.248 1.235.1-.653.1-1.816 0-2.542-.148-.654-.248-.073-.248 1.307ZM278.157 106.753c0 .799.149 1.017.298.436.148-.509.099-1.162-.05-1.38-.149-.291-.298.145-.248.944ZM54.273 107.479c-.397 1.598-.397 1.744.297 1.744.298 0 .397-.218.248-.509-.198-.218-.099-.871.199-1.452.347-.582.396-.945.05-.945-.249 0-.645.509-.794 1.162ZM194.355 113.291c0 .799.149 1.016.298.435.149-.508.099-1.162-.05-1.38-.148-.29-.297.146-.248.945ZM112.984 115.034c0 .871.347 1.453.793 1.453.744 0 .793.799.496 6.682-.199 3.705-.199 6.538-.05 6.247.446-.653 1.19-12.784.893-14.455-.347-1.888-2.132-1.816-2.132.073ZM278.405 120.918c-.446 2.179-.793 5.012-.595 5.012.595 0 1.735-4.722 1.289-5.375-.297-.436-.545-.291-.694.363ZM168.917 123.024c-.148 1.162-.049 2.179.199 2.179.198 0 .396-1.017.396-2.179 0-1.235-.099-2.179-.198-2.179s-.297.944-.397 2.179ZM58.389 127.237c-.1 3.342-.05 6.247.148 6.392.447.436.744-6.9.347-9.878-.198-1.889-.347-.945-.495 3.486ZM222.868 123.533c-.397 2.179-.248 7.482.198 7.482.248 0 .397-.582.397-1.308 0-.654.149-2.615.347-4.358.248-2.034.198-3.051-.149-3.051-.297 0-.644.581-.793 1.235ZM169.066 127.891c.347.872.744 1.453.893 1.235.149-.145-.149-.872-.645-1.598-.843-1.162-.892-1.162-.248.363ZM1.017 133.194c0 4.866.099 5.738.446 4.213.347-1.235.347-3.414.05-6.175l-.496-4.213v6.175ZM170.058 132.177c0 .799.149 1.017.297.436.149-.509.1-1.163-.049-1.381-.149-.29-.298.146-.248.945ZM277.612 133.194c.297.799.595 1.452.694 1.452.099 0 .099-.653-.05-1.452-.149-.799-.446-1.453-.744-1.453-.248 0-.198.654.1 1.453ZM223.116 134.356c0 .799.148 1.017.297.436.149-.509.099-1.162-.049-1.38-.149-.291-.298.145-.248.944ZM275.975 135.155c-.595.872-.347 3.632.397 4.576.942 1.162.942 1.961-.05 3.487-.743 1.09-.743 1.162.1 1.671 1.586.944 1.834.726 1.586-1.163-.148-1.017-.049-1.816.248-1.816.298 0-.099-.944-.843-2.106-.991-1.526-1.289-2.543-1.041-3.632.298-1.526.198-1.889-.397-1.017ZM20.504 140.53c-.545 1.235.1 1.671 2.727 1.671 2.579.073 3.422-.581 1.14-.872-.743-.072-1.586-.508-1.834-.871-.645-.945-1.636-.945-2.033.072ZM7.86 141.039c0 .29.694.944 1.487 1.38 1.19.654 1.488.654 1.488-.145 0-.509-.496-1.09-1.091-1.381-1.537-.581-1.885-.508-1.885.146ZM65.033 141.983c-.496.291.694.508 2.579.508 3.47 0 3.52-.29.148-.726-.991-.145-2.231-.073-2.727.218ZM269.926 144.09c.148.363.793.726 1.388.653 1.041 0 1.041-.072.099-.653-1.388-.872-1.834-.872-1.487 0ZM194.901 149.901c0 1.017.099 1.38.248.871.099-.436.099-1.307 0-1.816-.149-.436-.248-.072-.248.945ZM2.405 151.281c0 1.816.298 1.961.645.436.198-.581.099-1.235-.15-1.453-.297-.291-.495.218-.495 1.017ZM1.76 175.252c-.099.726-.05 1.816.199 2.324.297.727.446.291.446-1.38 0-2.615-.248-3.051-.645-.944ZM251.182 181.935c.198.944.397 1.307.545.726.1-.508-.049-1.307-.297-1.671-.397-.581-.446-.29-.248.945ZM251.38 185.93c0 .799.149 1.017.298.436.148-.509.099-1.163-.05-1.381-.149-.29-.297.146-.248.945ZM250.934 194.138c.05 1.162.248 2.034.446 1.889.298-.364 0-3.996-.347-3.996-.149 0-.149.945-.099 2.107ZM1.612 196.898c.148 1.962.297 4.141.297 4.94.05.799.347-.363.694-2.543.645-4.431.546-5.811-.496-5.811-.545 0-.694.799-.495 3.414ZM86.256 196.099c0 .799.149 1.017.298.436.148-.508.099-1.162-.05-1.38-.149-.291-.297.145-.248.944ZM2.355 206.051c.199 1.235.298 3.704.199 5.448-.15 3.704.644 3.486 1.14-.291.199-1.453.05-3.414-.297-4.649-.893-3.051-1.438-3.341-1.042-.508ZM279.744 214.913c0 1.598.099 2.179.198 1.235.099-.872.099-2.179 0-2.906-.149-.654-.248.073-.198 1.671ZM85.81 214.55c0 1.017.1 1.38.248.871.099-.436.099-1.307 0-1.816-.149-.436-.248-.072-.248.945ZM251.926 217.092c0 1.162.099 1.598.248.872.099-.654.099-1.671 0-2.179-.149-.436-.248.072-.248 1.307ZM1.116 221.45c-.199.727.099 1.816.743 2.761l1.091 1.598-.148-2.47c-.15-2.688-1.19-3.85-1.686-1.889ZM85.661 228.061c-.198 8.063-.149 15.544.198 15.544.397 0 .596-4.866.397-11.622-.148-4.431-.496-6.973-.595-3.922ZM251.38 230.893c0 .8.198 2.107.446 2.906l.447 1.453v-1.453c0-.799-.199-2.106-.447-2.906l-.446-1.452v1.452ZM1.116 236.196c-.05 4.649.05 5.158.396 3.051.248-1.38.645-3.559.843-4.867.397-2.034-.05-3.85-.892-3.85-.199 0-.298 2.543-.347 5.666ZM251.231 237.14c-.148 3.487.199 9.661.595 11.114.248.872.348-1.307.149-5.375-.248-6.755-.545-9.225-.744-5.739ZM280.835 240.337c.148 2.76.248 7.118.248 9.588 0 2.542.198 4.576.496 4.576.694 0 .545-7.336-.248-13.801l-.695-5.448.199 5.085ZM.471 248.109c0 4.504.1 4.794 1.29 3.123.644-1.017.644-1.452-.249-4.213l-.991-3.051-.05 4.141ZM85.314 253.702c0 4.068.05 7.337.149 7.191.446-.653.694-12.711.297-13.583-.297-.727-.496 1.525-.446 6.392ZM251.628 252.467c.05.945.149 3.85.149 6.538.05 2.76.248 4.939.446 4.939.446 0 .347-8.208-.099-9.951-.149-.509-.05-.945.198-.945s.347-.508.199-1.089c-.447-1.671-1.042-1.308-.893.508ZM.422 254.501c0 .363.247.727.545.727.248 0 .347-.364.198-.727-.148-.436-.396-.726-.545-.726-.1 0-.198.29-.198.726ZM.72 257.334c-.15.291-.2 1.961-.05 3.705.099 1.67 0 6.174-.199 10.024-.446 7.554-.397 8.281.694 7.7.744-.436.794-5.666.05-7.41-.198-.435-.248-1.162-.1-1.525.15-.363.397-1.889.546-3.414.149-1.598.397-3.85.496-5.085.397-3.414-.595-6.029-1.438-3.995ZM85.215 269.174c0 4.431.198 7.046.446 6.465.546-1.307.546-13.075 0-13.583-.248-.218-.446 2.833-.446 7.118ZM251.876 265.833c0 .799.149 1.017.298.436.148-.509.099-1.162-.05-1.38-.149-.291-.298.145-.248.944ZM28.24 267.286c0 .799.149 1.017.297.435.149-.508.1-1.162-.05-1.38-.148-.29-.297.146-.247.945ZM252.074 271.935c.149 2.615.248 4.721.248 4.721.05 0 .149.581.248 1.308.447 3.414.694 1.67.397-2.833-.397-6.683-1.141-9.298-.893-3.196ZM27.744 273.823c0 .799.149 1.017.297.436.15-.508.1-1.162-.05-1.38-.148-.291-.297.145-.247.944ZM281.281 274.768c.149 1.307.298 3.849.298 5.593 0 1.743.198 3.196.396 3.196.595 0 .149-9.661-.496-10.533-.396-.508-.446-.072-.198 1.744ZM7.265 277.528c.595.145 1.586.145 2.23 0 .596-.146.1-.291-1.14-.291s-1.735.145-1.09.291Z"/><path fill="#000" d="M241.81 278.109c-.149.218-.149 1.162-.05 2.034.248 1.743 2.281 2.542 3.323 1.307.644-.726 5.256-.508 7.983.436 1.091.363 2.331.581 2.727.509.397 0 1.587-.146 2.629-.146 3.223-.218 1.983-1.307-1.488-1.307-1.884-.073-5.256-.436-7.537-.944-2.926-.582-4.314-.654-4.711-.073-.744 1.09-1.19.872-1.091-.509.05-1.234-1.19-2.179-1.785-1.307ZM279.198 278.69c-.793 1.38.348 2.906 1.389 1.961.644-.581.644-.799-.05-1.816-.644-1.017-.843-1.017-1.339-.145ZM119.578 278.981c.447.145 1.141.145 1.488 0 .298-.218-.049-.364-.892-.364-.794 0-1.091.146-.596.364ZM121.909 279.199c0 .363.248.726.546.726.247 0 .347-.363.198-.726-.149-.436-.397-.727-.546-.727-.099 0-.198.291-.198.727ZM193.711 278.981c.297.145.892.145 1.239 0 .298-.218.05-.364-.644-.364-.694 0-.942.146-.595.364ZM200.157 279.707c.347.218.793.145.942-.073.199-.218-.099-.435-.644-.363-.546 0-.695.218-.298.436ZM266.901 281.015c-.843.944-.744.944 1.041.29 2.926-1.09 3.124-1.235 1.438-1.307-.793-.073-1.934.435-2.479 1.017ZM276.124 280.724c-.397.363-1.736.508-2.975.29-1.637-.29-1.934-.217-1.24.291 1.884 1.308 6.893.509 5.356-.872-.248-.218-.744-.072-1.141.291ZM240.322 281.886c.347.218.794.146.943-.072.198-.218-.1-.436-.645-.364-.546 0-.694.218-.298.436Z"/></svg>